G04 start of page 12 for group -4079 idx -4079 *
G04 Title: (unknown), topsilk *
G04 Creator: pcb 20140316 *
G04 CreationDate: Tue 21 Mar 2017 17:58:39 GMT UTC *
G04 For: kier *
G04 Format: Gerber/RS-274X *
G04 PCB-Dimensions (mil): 3346.46 4133.86 *
G04 PCB-Coordinate-Origin: lower left *
%MOIN*%
%FSLAX25Y25*%
%LNTOPSILK*%
%ADD201C,0.0138*%
%ADD200C,0.0098*%
%ADD199C,0.0118*%
%ADD198C,0.0079*%
%ADD197C,0.0197*%
%ADD196C,0.0059*%
%ADD195C,0.0001*%
G54D195*G36*
X254702Y117728D02*X256667D01*
X257431Y117571D01*
X258060Y117142D01*
X258489Y116513D01*
X258646Y115748D01*
Y107903D01*
X258489Y107133D01*
X258060Y106503D01*
X257431Y106075D01*
X256667Y105923D01*
X254702D01*
Y108250D01*
X257154D01*
Y109189D01*
X254963D01*
Y110404D01*
X257154D01*
Y111375D01*
X254702D01*
Y112207D01*
X254724Y112205D01*
X255815Y112298D01*
X256595Y112591D01*
X257063Y113095D01*
X257219Y113806D01*
X257063Y114511D01*
X256595Y115021D01*
X255815Y115309D01*
X254724Y115401D01*
X254702Y115399D01*
Y117728D01*
G37*
G36*
X250763Y107903D02*Y115748D01*
X250915Y116513D01*
X251344Y117142D01*
X251973Y117571D01*
X252743Y117728D01*
X254702D01*
Y115399D01*
X253606Y115309D01*
X252815Y115021D01*
X252336Y114511D01*
X252185Y113806D01*
X252336Y113095D01*
X252815Y112591D01*
X253606Y112298D01*
X254702Y112207D01*
Y111375D01*
X252293D01*
Y110404D01*
X254132D01*
Y109189D01*
X252293D01*
Y108250D01*
X254702D01*
Y105923D01*
X252743D01*
X251973Y106075D01*
X251344Y106503D01*
X250915Y107133D01*
X250763Y107903D01*
G37*
G36*
X254705Y114461D02*X254724Y114462D01*
X255483Y114414D01*
X256004Y114289D01*
X256313Y114093D01*
X256422Y113806D01*
X256313Y113513D01*
X256004Y113318D01*
X255483Y113209D01*
X254724Y113182D01*
X254705Y113183D01*
Y113428D01*
X254724Y113421D01*
X255000Y113529D01*
X255104Y113806D01*
X255000Y114083D01*
X254724Y114224D01*
X254705Y114215D01*
Y114461D01*
G37*
G36*
X253020Y113806D02*X253107Y114093D01*
X253400Y114289D01*
X253937Y114414D01*
X254705Y114461D01*
Y114215D01*
X254409Y114083D01*
X254306Y113806D01*
X254409Y113529D01*
X254705Y113428D01*
Y113183D01*
X253937Y113209D01*
X253400Y113318D01*
X253107Y113513D01*
X253020Y113806D01*
G37*
G36*
X139040Y343877D02*X140516D01*
X141281Y343730D01*
X141909Y343318D01*
X142333Y342699D01*
X142491Y341935D01*
Y338354D01*
X142333Y337594D01*
X141909Y336976D01*
X141281Y336563D01*
X140516Y336411D01*
X139040D01*
Y337768D01*
X139713D01*
X140863Y342629D01*
X139887D01*
X139056Y338565D01*
X139040Y338640D01*
Y343877D01*
G37*
G36*
X135044Y340038D02*X135411Y339916D01*
X135655Y339330D01*
X135411Y338701D01*
X135069Y338533D01*
X135044Y338529D01*
Y340038D01*
G37*
G36*
Y343877D02*X139040D01*
Y338640D01*
X138188Y342629D01*
X137217D01*
X138394Y337768D01*
X139040D01*
Y336411D01*
X135044D01*
Y337700D01*
X135530Y337779D01*
X136105Y338115D01*
X136469Y338641D01*
X136588Y339330D01*
X136474Y339987D01*
X136138Y340508D01*
X135611Y340849D01*
X135044Y340944D01*
Y341761D01*
X136311D01*
Y342629D01*
X135044D01*
Y343877D01*
G37*
G36*
Y340944D02*X134960Y340958D01*
X134678Y340925D01*
X134439Y340855D01*
Y341761D01*
X135044D01*
Y340944D01*
G37*
G36*
X133848Y343877D02*X135044D01*
Y342629D01*
X133674D01*
Y339916D01*
X134194Y340090D01*
X134678Y340160D01*
X135044Y340038D01*
Y338529D01*
X134613Y338462D01*
X134054Y338527D01*
X133501Y338739D01*
Y337871D01*
X134157Y337730D01*
X134787Y337659D01*
X135044Y337700D01*
Y336411D01*
X133848D01*
X133078Y336563D01*
X132448Y336976D01*
X132020Y337594D01*
X131868Y338354D01*
Y341935D01*
X132020Y342699D01*
X132448Y343318D01*
X133078Y343730D01*
X133848Y343877D01*
G37*
G36*
X83446Y289571D02*Y281726D01*
X83294Y280961D01*
X82867Y280332D01*
X82237Y279903D01*
X81467Y279746D01*
X79454D01*
Y282825D01*
X79557Y282735D01*
X80116Y282388D01*
X80637Y282279D01*
X81207Y282399D01*
X81641Y282735D01*
X81906Y283261D01*
X81988Y283950D01*
X81922Y284574D01*
X81711Y285269D01*
X80843D01*
X81120Y284607D01*
X81228Y284016D01*
X81055Y283462D01*
X80566Y283256D01*
X80116Y283359D01*
X79628Y283706D01*
X79454Y283868D01*
Y288047D01*
X81885D01*
Y289018D01*
X79454D01*
Y291551D01*
X81467D01*
X82237Y291399D01*
X82867Y290971D01*
X83294Y290341D01*
X83446Y289571D01*
G37*
G36*
X79454Y279746D02*X77544D01*
X76780Y279903D01*
X76150Y280332D01*
X75720Y280961D01*
X75564Y281726D01*
Y289571D01*
X75720Y290341D01*
X76150Y290971D01*
X76780Y291399D01*
X77544Y291551D01*
X79454D01*
Y289018D01*
X77024D01*
Y285996D01*
X77892D01*
Y288047D01*
X79454D01*
Y283868D01*
X79209Y284097D01*
X78411Y284851D01*
X77859Y285372D01*
X77024D01*
Y282279D01*
X77892D01*
Y284330D01*
X78554Y283668D01*
X79194Y283055D01*
X79454Y282825D01*
Y279746D01*
G37*
G36*
X83464Y151776D02*Y143931D01*
X83312Y143166D01*
X82883Y142537D01*
X82254Y142108D01*
X81484Y141951D01*
X79504D01*
Y145287D01*
X81934D01*
Y146221D01*
X81695Y147230D01*
X80827D01*
X81066Y146221D01*
X79504D01*
Y148374D01*
X81934D01*
Y149313D01*
X80095D01*
Y150528D01*
X81934D01*
Y151499D01*
X79504D01*
Y153756D01*
X81484D01*
X82254Y153604D01*
X82883Y153176D01*
X83312Y152546D01*
X83464Y151776D01*
G37*
G36*
X79504Y141951D02*X77561D01*
X76796Y142108D01*
X76167Y142537D01*
X75738Y143166D01*
X75581Y143931D01*
Y151776D01*
X75738Y152546D01*
X76167Y153176D01*
X76796Y153604D01*
X77561Y153756D01*
X79504D01*
Y151499D01*
X77073D01*
Y150528D01*
X79227D01*
Y149313D01*
X77073D01*
Y148374D01*
X79504D01*
Y146221D01*
X77941D01*
Y147300D01*
X77073D01*
Y144246D01*
X77941D01*
Y145287D01*
X79504D01*
Y141951D01*
G37*
G36*
X83446Y222674D02*Y214791D01*
X83294Y214026D01*
X82867Y213396D01*
X82237Y212967D01*
X81467Y212811D01*
X79524D01*
Y216023D01*
X79698Y216354D01*
X80078Y215659D01*
X80772Y215415D01*
X81309Y215517D01*
X81711Y215833D01*
X81955Y216359D01*
X82026Y217048D01*
X81988Y217672D01*
X81814Y218333D01*
X80946D01*
X81157Y217672D01*
X81228Y217086D01*
X81055Y216526D01*
X80637Y216320D01*
X80252Y216526D01*
X80116Y217086D01*
Y217607D01*
X79524D01*
Y221181D01*
X81955D01*
Y222152D01*
X79524D01*
Y224617D01*
X81467D01*
X82237Y224470D01*
X82867Y224057D01*
X83294Y223439D01*
X83446Y222674D01*
G37*
G36*
X79524Y212811D02*X77544D01*
X76780Y212967D01*
X76150Y213396D01*
X75720Y214026D01*
X75564Y214791D01*
Y222674D01*
X75720Y223439D01*
X76150Y224057D01*
X76780Y224470D01*
X77544Y224617D01*
X79524D01*
Y222152D01*
X77094D01*
Y219131D01*
X77930D01*
Y221181D01*
X79524D01*
Y217607D01*
X79248D01*
Y217086D01*
X79215Y216722D01*
X79074Y216457D01*
X78483Y216217D01*
X77994Y216457D01*
X77820Y217048D01*
X77892Y217813D01*
X78135Y218474D01*
X77235D01*
X77061Y217780D01*
X76991Y217048D01*
X77094Y216289D01*
X77370Y215730D01*
X77831Y215393D01*
X78451Y215280D01*
X79280Y215556D01*
X79524Y216023D01*
Y212811D01*
G37*
G36*
X107586Y281106D02*X108438D01*
X109203Y280954D01*
X109832Y280525D01*
X110261Y279896D01*
X110418Y279125D01*
Y275165D01*
X110261Y274405D01*
X109832Y273787D01*
X109203Y273374D01*
X108438Y273222D01*
X107586D01*
Y277183D01*
X108921D01*
Y278051D01*
X107586D01*
Y279093D01*
X109094D01*
Y279923D01*
X107586D01*
Y281106D01*
G37*
G36*
Y278051D02*X107049D01*
Y279093D01*
X107586D01*
Y278051D01*
G37*
G36*
X103593Y281106D02*X107586D01*
Y279923D01*
X106078D01*
Y275062D01*
X107049D01*
Y277183D01*
X107586D01*
Y273222D01*
X103593D01*
Y277183D01*
X104895D01*
Y278051D01*
X103593D01*
Y279093D01*
X105101D01*
Y279923D01*
X103593D01*
Y281106D01*
G37*
G36*
Y278051D02*X103018D01*
Y279093D01*
X103593D01*
Y278051D01*
G37*
G36*
X99478Y281106D02*X103593D01*
Y279923D01*
X102085D01*
Y275062D01*
X103018D01*
Y277183D01*
X103593D01*
Y273222D01*
X99478D01*
Y274992D01*
X99481Y274991D01*
X100207Y275148D01*
X100728Y275621D01*
X101059Y276407D01*
X101179Y277492D01*
X101059Y278604D01*
X100728Y279402D01*
X100207Y279879D01*
X99481Y280026D01*
X99478Y280025D01*
Y281106D01*
G37*
G36*
X95468D02*X99478D01*
Y280025D01*
X98732Y279879D01*
X98195Y279402D01*
X97875Y278604D01*
X97777Y277492D01*
X97875Y276407D01*
X98195Y275621D01*
X98732Y275148D01*
X99478Y274992D01*
Y273222D01*
X95468D01*
Y274264D01*
X95970D01*
Y279749D01*
X95468D01*
Y281106D01*
G37*
G36*
X91440D02*X95468D01*
Y279749D01*
X94967D01*
Y274264D01*
X95468D01*
Y273222D01*
X91440D01*
Y276649D01*
X92048Y275062D01*
X93057D01*
Y279923D01*
X92221D01*
Y276418D01*
X91440Y278437D01*
Y281106D01*
G37*
G36*
X87428D02*X91440D01*
Y278437D01*
X90865Y279923D01*
X89823D01*
Y275062D01*
X90691D01*
Y278604D01*
X91440Y276649D01*
Y273222D01*
X87428D01*
Y274992D01*
X87431Y274991D01*
X88174Y275148D01*
X88717Y275621D01*
X89026Y276407D01*
X89129Y277492D01*
X89026Y278604D01*
X88717Y279402D01*
X88174Y279879D01*
X87431Y280026D01*
X87428Y280025D01*
Y281106D01*
G37*
G36*
X86389D02*X87428D01*
Y280025D01*
X86682Y279879D01*
X86145Y279402D01*
X85825Y278604D01*
X85727Y277492D01*
X85825Y276407D01*
X86145Y275621D01*
X86682Y275148D01*
X87428Y274992D01*
Y273222D01*
X86389D01*
X85624Y273374D01*
X85006Y273787D01*
X84588Y274405D01*
X84441Y275165D01*
Y279125D01*
X84588Y279896D01*
X85006Y280525D01*
X85624Y280954D01*
X86389Y281106D01*
G37*
G36*
X99481Y279158D02*X99790Y279066D01*
X100001Y278778D01*
X100126Y278257D01*
X100175Y277492D01*
X100126Y276749D01*
X100001Y276244D01*
X99790Y275957D01*
X99481Y275859D01*
X99150Y275957D01*
X98922Y276244D01*
X98792Y276749D01*
X98748Y277492D01*
X98792Y278257D01*
X98922Y278778D01*
X99150Y279066D01*
X99481Y279158D01*
G37*
G36*
X87431D02*X87756Y279066D01*
X87984Y278778D01*
X88109Y278257D01*
X88158Y277492D01*
X88109Y276749D01*
X87984Y276244D01*
X87756Y275957D01*
X87431Y275859D01*
X87122Y275957D01*
X86910Y276244D01*
X86780Y276749D01*
X86736Y277492D01*
X86780Y278257D01*
X86910Y278778D01*
X87122Y279066D01*
X87431Y279158D01*
G37*
G36*
X254727Y188764D02*X256691D01*
X257456Y188607D01*
X258085Y188178D01*
X258514Y187549D01*
X258671Y186784D01*
Y178901D01*
X258514Y178136D01*
X258085Y177517D01*
X257456Y177105D01*
X256691Y176958D01*
X254727D01*
Y179422D01*
X257179D01*
Y182405D01*
X256311D01*
Y180360D01*
X254727D01*
Y183069D01*
X254749Y183067D01*
X255839Y183176D01*
X256620Y183486D01*
X257087Y183990D01*
X257244Y184700D01*
X257087Y185389D01*
X256620Y185878D01*
X255839Y186187D01*
X254749Y186295D01*
X254727Y186293D01*
Y188764D01*
G37*
G36*
X250788Y178901D02*Y186784D01*
X250940Y187549D01*
X251369Y188178D01*
X251998Y188607D01*
X252768Y188764D01*
X254727D01*
Y186293D01*
X253631Y186187D01*
X252839Y185878D01*
X252361Y185389D01*
X252210Y184700D01*
X252361Y183990D01*
X252839Y183486D01*
X253631Y183176D01*
X254727Y183069D01*
Y180360D01*
X252318D01*
Y179422D01*
X254727D01*
Y176958D01*
X252768D01*
X251998Y177105D01*
X251369Y177517D01*
X250940Y178136D01*
X250788Y178901D01*
G37*
G36*
X254729Y185324D02*X254749Y185324D01*
X255508Y185292D01*
X256029Y185183D01*
X256338Y184988D01*
X256447Y184700D01*
X256338Y184408D01*
X256029Y184212D01*
X255508Y184082D01*
X254749Y184039D01*
X254729Y184040D01*
Y184290D01*
X254749Y184283D01*
X255025Y184386D01*
X255128Y184700D01*
X255025Y184977D01*
X254749Y185080D01*
X254729Y185074D01*
Y185324D01*
G37*
G36*
X253045Y184700D02*X253132Y184988D01*
X253425Y185183D01*
X253962Y185292D01*
X254729Y185324D01*
Y185074D01*
X254434Y184977D01*
X254331Y184700D01*
X254434Y184386D01*
X254729Y184290D01*
Y184040D01*
X253962Y184082D01*
X253425Y184212D01*
X253132Y184408D01*
X253045Y184700D01*
G37*
G36*
X254728Y259617D02*X256708D01*
X257472Y259461D01*
X258102Y259031D01*
X258531Y258402D01*
X258688Y257637D01*
Y249793D01*
X258531Y249022D01*
X258102Y248393D01*
X257472Y247965D01*
X256708Y247813D01*
X254728D01*
Y250243D01*
X257158D01*
Y253226D01*
X256322D01*
Y251181D01*
X254728D01*
Y255207D01*
X256322D01*
Y254133D01*
X257158D01*
Y257187D01*
X256322D01*
Y256146D01*
X254728D01*
Y259617D01*
G37*
G36*
X250806Y249793D02*Y257637D01*
X250957Y258402D01*
X251385Y259031D01*
X252015Y259461D01*
X252785Y259617D01*
X254728D01*
Y256146D01*
X252297D01*
Y255207D01*
X252541Y254204D01*
X253409D01*
X253165Y255207D01*
X254728D01*
Y251181D01*
X252297D01*
Y250243D01*
X254728D01*
Y247813D01*
X252785D01*
X252015Y247965D01*
X251385Y248393D01*
X250957Y249022D01*
X250806Y249793D01*
G37*
G36*
X245929Y281088D02*X247419D01*
X248183Y280936D01*
X248813Y280507D01*
X249242Y279878D01*
X249399Y279108D01*
Y275186D01*
X249242Y274420D01*
X248813Y273791D01*
X248183Y273362D01*
X247419Y273206D01*
X245929D01*
Y274736D01*
X246415D01*
Y278760D01*
X247630D01*
Y279596D01*
X245929D01*
Y281088D01*
G37*
G36*
X242126D02*X245929D01*
Y279596D01*
X244229D01*
Y278760D01*
X245444D01*
Y274736D01*
X245929D01*
Y273206D01*
X242126D01*
Y276215D01*
X242210Y276086D01*
X242281Y275950D01*
X242872Y274736D01*
X243914D01*
X243046Y276471D01*
X242769Y276889D01*
X242525Y277024D01*
X243252Y277371D01*
X243496Y278169D01*
X243388Y278816D01*
X243078Y279249D01*
X242530Y279509D01*
X242126Y279553D01*
Y281088D01*
G37*
G36*
X237908D02*X242126D01*
Y279553D01*
X241728Y279596D01*
X240339D01*
Y274736D01*
X241310D01*
Y276644D01*
X241624D01*
X241939Y276504D01*
X242126Y276215D01*
Y273206D01*
X237908D01*
Y275912D01*
X238531D01*
X238847Y274736D01*
X239818D01*
X238499Y279596D01*
X237908D01*
Y281088D01*
G37*
G36*
X233896D02*X237908D01*
Y279596D01*
X237317D01*
X235998Y274736D01*
X236970D01*
X237246Y275912D01*
X237908D01*
Y273206D01*
X233896D01*
Y274736D01*
X234365D01*
Y278760D01*
X235613D01*
Y279596D01*
X233896D01*
Y281088D01*
G37*
G36*
X229886Y276727D02*X230025Y276677D01*
X230372Y276400D01*
X230513Y276054D01*
X230340Y275566D01*
X229886Y275455D01*
Y276727D01*
G37*
G36*
Y281088D02*X233896D01*
Y279596D01*
X232179D01*
Y278760D01*
X233427D01*
Y274736D01*
X233896D01*
Y273206D01*
X229886D01*
Y274648D01*
X230519Y274719D01*
X231067Y274980D01*
X231381Y275441D01*
X231483Y276086D01*
X231207Y276993D01*
X230340Y277546D01*
X229955Y277719D01*
X229886Y277751D01*
Y278846D01*
X229955Y278863D01*
X230578Y278760D01*
X231207Y278451D01*
Y279384D01*
X230546Y279596D01*
X229886Y279666D01*
Y281088D01*
G37*
G36*
Y277751D02*X229363Y277996D01*
X229228Y278343D01*
X229433Y278728D01*
X229886Y278846D01*
Y277751D01*
G37*
G36*
X228533Y281088D02*X229886D01*
Y279666D01*
X229883Y279667D01*
X229217Y279574D01*
X228707Y279281D01*
X228392Y278836D01*
X228289Y278239D01*
X228359Y277795D01*
X228566Y277443D01*
X228935Y277144D01*
X229537Y276851D01*
X229886Y276727D01*
Y275455D01*
X229781Y275430D01*
X229054Y275566D01*
X228322Y275950D01*
Y274980D01*
X229016Y274736D01*
X229748Y274632D01*
X229886Y274648D01*
Y273206D01*
X228533D01*
X227763Y273362D01*
X227133Y273791D01*
X226705Y274420D01*
X226553Y275186D01*
Y279108D01*
X226705Y279878D01*
X227133Y280507D01*
X227763Y280936D01*
X228533Y281088D01*
G37*
G36*
X237907Y278691D02*X238357Y276716D01*
X237457D01*
X237907Y278691D01*
G37*
G36*
X241310Y278760D02*X241760D01*
X242319Y278626D01*
X242493Y278104D01*
X242319Y277617D01*
X241760Y277443D01*
X241310D01*
Y278760D01*
G37*
G36*
X133441Y97595D02*X134201Y97448D01*
X134819Y97036D01*
X135232Y96418D01*
X135384Y95653D01*
Y91692D01*
X135232Y90933D01*
X134819Y90314D01*
X134201Y89902D01*
X133441Y89750D01*
X131599D01*
Y91557D01*
X132085D01*
Y95582D01*
X133300D01*
Y96418D01*
X131599D01*
Y97595D01*
X133441D01*
G37*
G36*
X131599Y89750D02*X127587D01*
Y92772D01*
X128233D01*
X128542Y91557D01*
X129481D01*
X128195Y96418D01*
X127587D01*
Y97595D01*
X131599D01*
Y96418D01*
X129899D01*
Y95582D01*
X131114D01*
Y91557D01*
X131599D01*
Y89750D01*
G37*
G36*
X127587D02*X123803D01*
Y91557D01*
X125314D01*
Y92387D01*
X123803D01*
Y97595D01*
X127587D01*
Y96418D01*
X127018D01*
X125694Y91557D01*
X126671D01*
X126947Y92772D01*
X127587D01*
Y89750D01*
G37*
G36*
X123803D02*X119672D01*
Y93672D01*
X121006D01*
Y94508D01*
X119672D01*
Y95582D01*
X121180D01*
Y96418D01*
X119672D01*
Y97595D01*
X123803D01*
Y92387D01*
X123263D01*
Y96418D01*
X122292D01*
Y91557D01*
X123803D01*
Y89750D01*
G37*
G36*
X119672Y94508D02*X119135D01*
Y95582D01*
X119672D01*
Y94508D01*
G37*
G36*
Y89750D02*X115575D01*
Y90759D01*
X116080D01*
Y96206D01*
X115575D01*
Y97595D01*
X119672D01*
Y96418D01*
X118164D01*
Y91557D01*
X119135D01*
Y93672D01*
X119672D01*
Y89750D01*
G37*
G36*
X115575D02*X111753D01*
Y93042D01*
X111843Y92907D01*
X111914Y92772D01*
X112500Y91557D01*
X113541D01*
X112673Y93293D01*
X112434Y93710D01*
X112152Y93846D01*
X112885Y94193D01*
X113129Y94991D01*
X113020Y95636D01*
X112711Y96070D01*
X112163Y96325D01*
X111753Y96372D01*
Y97595D01*
X115575D01*
Y96206D01*
X115071D01*
Y90759D01*
X115575D01*
Y89750D01*
G37*
G36*
X111753D02*X107535D01*
Y94088D01*
X108094Y91557D01*
X108995D01*
X109548Y96418D01*
X108718D01*
X108441Y92842D01*
X107953Y95164D01*
X107535D01*
Y97595D01*
X111753D01*
Y96372D01*
X111355Y96418D01*
X109966D01*
Y91557D01*
X110937D01*
Y93466D01*
X111252D01*
X111566Y93325D01*
X111753Y93042D01*
Y89750D01*
G37*
G36*
X107535D02*X103648D01*
Y93396D01*
X104237Y93466D01*
X104828Y93743D01*
X105143Y94204D01*
X105246Y94888D01*
X105143Y95593D01*
X104828Y96070D01*
X104237Y96336D01*
X103648Y96391D01*
Y97595D01*
X107535D01*
Y95164D01*
X107156D01*
X106738Y92842D01*
X106391Y96418D01*
X105523D01*
X106146Y91557D01*
X107015D01*
X107535Y94090D01*
X107535Y94088D01*
Y89750D01*
G37*
G36*
X103648D02*X101947D01*
X101177Y89902D01*
X100548Y90314D01*
X100119Y90933D01*
X99967Y91692D01*
Y95653D01*
X100119Y96418D01*
X100548Y97036D01*
X101177Y97448D01*
X101947Y97595D01*
X103648D01*
Y96391D01*
X103369Y96418D01*
X102050D01*
Y91557D01*
X103021D01*
Y93363D01*
X103369D01*
X103648Y93396D01*
Y89750D01*
G37*
G36*
X128060Y93537D02*X127153D01*
X127604Y95550D01*
X128060Y93537D01*
G37*
G36*
X111393Y95620D02*X111946Y95447D01*
X112120Y94958D01*
X111946Y94437D01*
X111393Y94264D01*
X110937D01*
Y95620D01*
X111393D01*
G37*
G36*
X103407D02*X104063Y95447D01*
X104275Y94888D01*
X104063Y94334D01*
X103407Y94193D01*
X103021D01*
Y95620D01*
X103407D01*
G37*
G54D196*X199213Y43307D02*Y79921D01*
X201181Y86614D02*X205118D01*
X199213Y47244D02*X205118D01*
X136220Y43307D02*X199213D01*
Y90551D02*X136220D01*
Y59055D01*
Y86614D02*X130315D01*
X199213Y90551D02*Y89370D01*
X136220Y43307D02*Y44882D01*
G54D197*X92126Y282677D02*Y290551D01*
X89370Y287795D01*
X92126Y290551D02*X94882Y287795D01*
X233465Y282677D02*Y290551D01*
X230709Y287795D01*
X233465Y290551D02*X236220Y287795D01*
G54D196*X286052Y365354D02*X285252Y366154D01*
X289252D01*
Y366854D02*Y365354D01*
X206299Y350169D02*X207099Y350969D01*
Y346969D01*
X206299D02*X207799D01*
X104724Y315929D02*X106724D01*
X107224Y315429D01*
Y314429D01*
X106724Y313929D02*X107224Y314429D01*
X105224Y313929D02*X106724D01*
X105224Y315929D02*Y311929D01*
X106024Y313929D02*X107224Y311929D01*
X105118Y284370D02*X107118D01*
X107618Y284870D01*
Y286070D02*Y284870D01*
X107118Y286570D02*X107618Y286070D01*
X105618Y286570D02*X107118D01*
X105618Y288370D02*Y284370D01*
X105118Y288370D02*X107118D01*
X107618Y287870D01*
Y287070D01*
X107118Y286570D02*X107618Y287070D01*
X237205Y296063D02*X244685D01*
X237205Y300000D02*X244685D01*
Y296063D01*
X237205Y300000D02*Y296063D01*
Y300000D02*X244685D01*
X237205Y303937D02*X244685D01*
Y300000D01*
X237205Y303937D02*Y300000D01*
X225787Y299606D02*X233268D01*
X225787Y303543D02*X233268D01*
Y299606D01*
X225787Y303543D02*Y299606D01*
X225591Y289961D02*Y282480D01*
X229528Y289961D02*Y282480D01*
X225591D02*X229528D01*
X225591Y289961D02*X229528D01*
X237205Y284252D02*X244685D01*
X237205Y288189D02*X244685D01*
Y284252D01*
X237205Y288189D02*Y284252D01*
Y292126D02*X244685D01*
X237205Y288189D02*X244685D01*
X237205Y292126D02*Y288189D01*
X244685Y292126D02*Y288189D01*
X237205Y292126D02*X244685D01*
X237205Y296063D02*X244685D01*
Y292126D01*
X237205Y296063D02*Y292126D01*
X266142Y240945D02*Y231496D01*
X270866Y240945D02*Y231496D01*
X266142D02*X270866D01*
X266142Y240945D02*X270866D01*
X265748Y241339D02*X271260D01*
X265748D02*Y238189D01*
X271260Y241339D02*Y238189D01*
X284646Y239961D02*Y232480D01*
X280709Y239961D02*Y232480D01*
Y239961D02*X284646D01*
X280709Y232480D02*X284646D01*
X280709Y239961D02*Y232480D01*
X276772Y239961D02*Y232480D01*
Y239961D02*X280709D01*
X276772Y232480D02*X280709D01*
X272835Y239961D02*Y232480D01*
X276772Y239961D02*Y232480D01*
X272835D02*X276772D01*
X272835Y239961D02*X276772D01*
X263386Y275394D02*Y267913D01*
X259449Y275394D02*Y267913D01*
Y275394D02*X263386D01*
X259449Y267913D02*X263386D01*
G54D198*X250787Y292323D02*Y278543D01*
X258661Y292323D02*Y278543D01*
X250787D02*X258661D01*
X250787Y292323D02*X258661D01*
X250787Y278543D02*Y264764D01*
X258661Y278543D02*Y264764D01*
X250787D02*X258661D01*
X250787Y278543D02*X258661D01*
G54D199*X254724Y264370D02*Y263780D01*
G54D198*X250787Y271654D02*X258661D01*
X254724D02*Y270472D01*
G54D200*X263780Y301181D02*X311024D01*
X263780Y242126D02*X311024D01*
X263780Y301181D02*Y242126D01*
X311024Y301181D02*Y242126D01*
X295276Y253937D02*Y242126D01*
Y277559D02*Y265748D01*
Y301181D02*Y289370D01*
G54D196*X209449Y334843D02*X217323D01*
X209449Y325000D02*X217323D01*
X209449Y334843D02*Y325000D01*
X217323Y334843D02*Y325000D01*
X173228Y342323D02*Y334843D01*
X169291Y342323D02*Y334843D01*
Y342323D02*X173228D01*
X169291Y334843D02*X173228D01*
G54D198*X244685Y353740D02*Y343110D01*
X231693Y353740D02*Y343110D01*
Y353740D02*X244685D01*
X231693Y343110D02*X244685D01*
G54D196*X200787Y345079D02*Y337598D01*
X204724Y345079D02*Y337598D01*
X200787D02*X204724D01*
X200787Y345079D02*X204724D01*
X169291Y334843D02*Y327362D01*
X173228Y334843D02*Y327362D01*
X169291D02*X173228D01*
X169291Y334843D02*X173228D01*
X180512Y325197D02*X187992D01*
X180512Y329134D02*X187992D01*
Y325197D01*
X180512Y329134D02*Y325197D01*
X225787Y295669D02*X233268D01*
X225787Y299606D02*X233268D01*
Y295669D01*
X225787Y299606D02*Y295669D01*
Y307480D02*X233268D01*
X225787Y311417D02*X233268D01*
Y307480D01*
X225787Y311417D02*Y307480D01*
Y303543D02*X233268D01*
X225787Y307480D02*X233268D01*
Y303543D01*
X225787Y307480D02*Y303543D01*
X225591Y319094D02*Y311614D01*
X229528Y319094D02*Y311614D01*
X225591D02*X229528D01*
X225591Y319094D02*X229528D01*
X237205Y303937D02*X244685D01*
X237205Y307874D02*X244685D01*
Y303937D01*
X237205Y307874D02*Y303937D01*
G54D198*X173031Y325000D02*Y272638D01*
X225394Y325000D02*Y272638D01*
X173031D02*X225394D01*
X173031Y325000D02*X225394D01*
G54D199*X172638Y272244D02*X180512D01*
X172638Y280118D02*Y272244D01*
G54D196*X199606Y269094D02*Y261614D01*
X203543Y269094D02*Y261614D01*
X199606D02*X203543D01*
X199606Y269094D02*X203543D01*
G54D200*X292402Y362244D02*Y302244D01*
X282402Y362244D02*Y302244D01*
Y362244D02*X292402D01*
X282402Y302244D02*X292402D01*
G54D197*X282402Y362244D02*Y352244D01*
Y362244D02*X292402D01*
Y352244D01*
G54D196*X273819Y329921D02*X281299D01*
X273819Y325984D02*X281299D01*
X273819Y329921D02*Y325984D01*
X281299Y329921D02*Y325984D01*
G54D198*X265945Y351181D02*X279724D01*
X265945Y343307D02*X279724D01*
X265945Y351181D02*Y343307D01*
X279724Y351181D02*Y343307D01*
G54D199*X264961Y347244D02*X265551D01*
G54D198*X272835Y351181D02*Y343307D01*
X271654Y347244D02*X272835D01*
X266732Y343110D02*Y330118D01*
X280512Y343110D02*Y330118D01*
X266732D02*X280512D01*
X266732Y343110D02*X280512D01*
G54D196*X275591Y310827D02*Y303346D01*
X279528Y310827D02*Y303346D01*
X275591D02*X279528D01*
X275591Y310827D02*X279528D01*
G54D200*X246024Y389764D02*Y353543D01*
X281535Y389764D02*Y353543D01*
X246024D02*X281535D01*
X246024Y389764D02*X281535D01*
X275547Y374016D02*X281535D01*
X257232D02*X270327D01*
X246024D02*X252012D01*
G54D196*X240157Y369882D02*Y362402D01*
X244094Y369882D02*Y362402D01*
X240157D02*X244094D01*
X240157Y369882D02*X244094D01*
G54D198*X233268Y372244D02*Y360039D01*
X239173Y372244D02*Y360039D01*
X233268D02*X239173D01*
X233268Y372244D02*X239173D01*
G54D196*X234646Y358661D02*X242126D01*
X234646Y354724D02*X242126D01*
X234646Y358661D02*Y354724D01*
X242126Y358661D02*Y354724D01*
X265945Y329921D02*X273425D01*
X265945Y325984D02*X273425D01*
X265945Y329921D02*Y325984D01*
X273425Y329921D02*Y325984D01*
G54D200*X264764Y341929D02*Y311614D01*
X231299Y341929D02*Y311614D01*
X264764D01*
X231299Y341929D02*X264764D01*
G54D196*X253740Y351772D02*X263189D01*
X253740Y347047D02*X263189D01*
X253740Y351772D02*Y347047D01*
X263189Y351772D02*Y347047D01*
X263583Y352165D02*Y346654D01*
X260433Y352165D02*X263583D01*
X260433Y346654D02*X263583D01*
G54D198*X262402Y310039D02*Y297047D01*
X248622Y310039D02*Y297047D01*
Y310039D02*X262402D01*
X248622Y297047D02*X262402D01*
G54D196*X244882Y351969D02*X252362D01*
X244882Y348031D02*X252362D01*
X244882Y351969D02*Y348031D01*
X252362Y351969D02*Y348031D01*
X244882D02*X252362D01*
X244882Y344094D02*X252362D01*
X244882Y348031D02*Y344094D01*
X252362Y348031D02*Y344094D01*
G54D198*X280512Y325787D02*Y312795D01*
X266732Y325787D02*Y312795D01*
Y325787D02*X280512D01*
X266732Y312795D02*X280512D01*
G54D196*X267717Y310827D02*Y303346D01*
X271654Y310827D02*Y303346D01*
X267717D02*X271654D01*
X267717Y310827D02*X271654D01*
Y303346D01*
X275591Y310827D02*Y303346D01*
X271654D02*X275591D01*
X271654Y310827D02*X275591D01*
X172047Y284055D02*Y276575D01*
X168110Y284055D02*Y276575D01*
Y284055D02*X172047D01*
X168110Y276575D02*X172047D01*
X146457Y263189D02*Y255709D01*
X150394Y263189D02*Y255709D01*
X146457D02*X150394D01*
X146457Y263189D02*X150394D01*
X142520D02*Y255709D01*
X138583Y263189D02*Y255709D01*
Y263189D02*X142520D01*
X138583Y255709D02*X142520D01*
Y263189D02*Y255709D01*
X146457Y263189D02*Y255709D01*
X142520D02*X146457D01*
X142520Y263189D02*X146457D01*
X142520Y255709D02*Y248228D01*
X138583Y255709D02*Y248228D01*
Y255709D02*X142520D01*
X138583Y248228D02*X142520D01*
X154921Y281890D02*X162402D01*
X154921Y277953D02*X162402D01*
X154921Y281890D02*Y277953D01*
X162402Y281890D02*Y277953D01*
X154921Y285827D02*X162402D01*
X154921Y281890D02*X162402D01*
X154921Y285827D02*Y281890D01*
X162402Y285827D02*Y281890D01*
G54D198*Y296654D02*Y286024D01*
X149409Y296654D02*Y286024D01*
Y296654D02*X162402D01*
X149409Y286024D02*X162402D01*
X101378Y196260D02*X119882D01*
X101378Y187205D02*X119882D01*
X101378Y196260D02*Y187205D01*
X119882Y196260D02*Y187205D01*
G54D196*X152756Y206496D02*Y199016D01*
X148819Y206496D02*Y199016D01*
Y206496D02*X152756D01*
X148819Y199016D02*X152756D01*
X53937Y239961D02*Y232480D01*
X50000Y239961D02*Y232480D01*
Y239961D02*X53937D01*
X50000Y232480D02*X53937D01*
X57874Y239961D02*Y232480D01*
X53937Y239961D02*Y232480D01*
Y239961D02*X57874D01*
X53937Y232480D02*X57874D01*
Y239961D02*Y232480D01*
X61811Y239961D02*Y232480D01*
X57874D02*X61811D01*
X57874Y239961D02*X61811D01*
X53937Y169094D02*Y161614D01*
X50000Y169094D02*Y161614D01*
Y169094D02*X53937D01*
X50000Y161614D02*X53937D01*
X57874Y169094D02*Y161614D01*
X53937Y169094D02*Y161614D01*
Y169094D02*X57874D01*
X53937Y161614D02*X57874D01*
Y169094D02*Y161614D01*
X61811Y169094D02*Y161614D01*
X57874D02*X61811D01*
X57874Y169094D02*X61811D01*
X63976Y170079D02*Y160630D01*
X68701Y170079D02*Y160630D01*
X63976D02*X68701D01*
X63976Y170079D02*X68701D01*
X63583Y170472D02*X69094D01*
X63583D02*Y167323D01*
X69094Y170472D02*Y167323D01*
X63780Y240945D02*Y231496D01*
X68504Y240945D02*Y231496D01*
X63780D02*X68504D01*
X63780Y240945D02*X68504D01*
X63386Y241339D02*X68898D01*
X63386D02*Y238189D01*
X68898Y241339D02*Y238189D01*
X71260Y204528D02*Y197047D01*
X75197Y204528D02*Y197047D01*
X71260D02*X75197D01*
X71260Y204528D02*X75197D01*
G54D198*X83465Y262795D02*Y249016D01*
X75591Y262795D02*Y249016D01*
Y262795D02*X83465D01*
X75591Y249016D02*X83465D01*
Y191929D02*Y178150D01*
X75591Y191929D02*Y178150D01*
Y191929D02*X83465D01*
X75591Y178150D02*X83465D01*
G54D196*X138583Y255709D02*Y248228D01*
X134646Y255709D02*Y248228D01*
Y255709D02*X138583D01*
X134646Y248228D02*X138583D01*
X126969Y248425D02*X134449D01*
X126969Y252362D02*X134449D01*
Y248425D01*
X126969Y252362D02*Y248425D01*
X112992Y257283D02*Y249803D01*
X109055Y257283D02*Y249803D01*
Y257283D02*X112992D01*
X109055Y249803D02*X112992D01*
G54D198*X90354Y311220D02*Y292717D01*
X81299Y311220D02*Y292717D01*
Y311220D02*X90354D01*
X81299Y292717D02*X90354D01*
G54D196*X71260Y275394D02*Y267913D01*
X75197Y275394D02*Y267913D01*
X71260D02*X75197D01*
X71260Y275394D02*X75197D01*
G54D200*X23622Y242126D02*X70866D01*
X23622Y301181D02*X70866D01*
Y242126D01*
X23622Y301181D02*Y242126D01*
X39370Y301181D02*Y289370D01*
Y277559D02*Y265748D01*
Y253937D02*Y242126D01*
G54D196*X71457Y307480D02*X78937D01*
X71457Y311417D02*X78937D01*
Y307480D01*
X71457Y311417D02*Y307480D01*
Y303543D02*X78937D01*
X71457Y299606D02*X78937D01*
X71457Y303543D02*Y299606D01*
X78937Y303543D02*Y299606D01*
X71457D02*X78937D01*
X71457Y295669D02*X78937D01*
X71457Y299606D02*Y295669D01*
X78937Y299606D02*Y295669D01*
X71457Y307480D02*X78937D01*
X71457Y303543D02*X78937D01*
X71457Y307480D02*Y303543D01*
X78937Y307480D02*Y303543D01*
G54D198*X123031Y267913D02*Y249409D01*
X113976Y267913D02*Y249409D01*
Y267913D02*X123031D01*
X113976Y249409D02*X123031D01*
G54D196*X144488Y315945D02*Y308465D01*
X140551Y315945D02*Y308465D01*
Y315945D02*X144488D01*
X140551Y308465D02*X144488D01*
X140551Y321457D02*Y313976D01*
X136614Y321457D02*Y313976D01*
Y321457D02*X140551D01*
X136614Y313976D02*X140551D01*
X136614Y321457D02*Y313976D01*
X132677Y321457D02*Y313976D01*
Y321457D02*X136614D01*
X132677Y313976D02*X136614D01*
Y306496D02*Y299016D01*
X140551Y306496D02*Y299016D01*
X136614D02*X140551D01*
X136614Y306496D02*X140551D01*
X108661Y319094D02*Y311614D01*
X112598Y319094D02*Y311614D01*
X108661D02*X112598D01*
X108661Y319094D02*X112598D01*
Y304331D02*X129921D01*
X112598Y321654D02*X129921D01*
Y304331D01*
X112598Y321654D02*Y304331D01*
G54D199*X130315Y311024D02*Y303937D01*
X123228D02*X130315D01*
G54D198*X99409Y311220D02*Y292717D01*
X90354Y311220D02*Y292717D01*
Y311220D02*X99409D01*
X90354Y292717D02*X99409D01*
G54D200*X111693Y309882D02*Y289882D01*
X101693Y309882D02*Y289882D01*
Y309882D02*X111693D01*
X101693Y289882D02*X111693D01*
G54D197*X101693Y309882D02*Y299882D01*
X111693Y309882D02*Y299882D01*
X101693Y309882D02*X111693D01*
G54D196*X136614Y299016D02*Y291535D01*
X132677Y299016D02*Y291535D01*
Y299016D02*X136614D01*
X132677Y291535D02*X136614D01*
X138583Y263189D02*Y255709D01*
X134646Y263189D02*Y255709D01*
Y263189D02*X138583D01*
X134646Y255709D02*X138583D01*
X112992Y267520D02*Y260039D01*
X109055Y267520D02*Y260039D01*
Y267520D02*X112992D01*
X109055Y260039D02*X112992D01*
G54D198*X111220Y281693D02*X121850D01*
X111220Y268701D02*X121850D01*
X111220Y281693D02*Y268701D01*
X121850Y281693D02*Y268701D01*
G54D196*X163189Y294882D02*X170669D01*
X163189Y298819D02*X170669D01*
Y294882D01*
X163189Y298819D02*Y294882D01*
Y298819D02*X170669D01*
X163189Y302756D02*X170669D01*
Y298819D01*
X163189Y302756D02*Y298819D01*
G54D198*X153346Y319094D02*Y300591D01*
X162402Y319094D02*Y300591D01*
X153346D02*X162402D01*
X153346Y319094D02*X162402D01*
G54D196*X122244Y271063D02*X134055D01*
X122244Y280906D02*X134055D01*
Y271063D01*
X122244Y280906D02*Y271063D01*
G54D198*X135827Y276969D02*Y263189D01*
X143701Y276969D02*Y263189D01*
X135827D02*X143701D01*
X135827Y276969D02*X143701D01*
X144488D02*Y263189D01*
X152362Y276969D02*Y263189D01*
X144488D02*X152362D01*
X144488Y276969D02*X152362D01*
G54D196*X143071Y291339D02*Y278740D01*
X136457Y291339D02*Y278740D01*
Y291339D02*X143071D01*
X136457Y278740D02*X143071D01*
X136063Y278346D02*X143465D01*
Y283071D02*Y278346D01*
G54D199*X142283Y281496D02*Y278740D01*
G54D196*X136063Y283071D02*Y278346D01*
G54D199*X137244Y281496D02*Y278740D01*
G54D196*X123031Y258268D02*X130512D01*
X123031Y254331D02*X130512D01*
X123031Y258268D02*Y254331D01*
X130512Y258268D02*Y254331D01*
X124213Y270866D02*Y259055D01*
X134055Y270866D02*Y259055D01*
X124213D02*X134055D01*
X124213Y270866D02*X134055D01*
G54D199*X123819Y258661D02*X128150D01*
X123819Y262992D02*Y258661D01*
G54D196*X126378Y106496D02*Y99016D01*
X130315Y106496D02*Y99016D01*
X126378D02*X130315D01*
X126378Y106496D02*X130315D01*
G54D198*X137598Y58071D02*Y45866D01*
X131693Y58071D02*Y45866D01*
Y58071D02*X137598D01*
X131693Y45866D02*X137598D01*
X111220Y106693D02*X125000D01*
X111220Y98819D02*X125000D01*
X111220Y106693D02*Y98819D01*
X125000Y106693D02*Y98819D01*
G54D199*X110236Y102756D02*X110827D01*
G54D198*X118110Y106693D02*Y98819D01*
X116929Y102756D02*X118110D01*
X74409Y104134D02*X98031D01*
X74409Y90354D02*X98031D01*
X74409Y104134D02*Y90354D01*
X98031Y104134D02*Y90354D01*
X98425Y104528D02*Y89961D01*
X89370Y104528D02*X98425D01*
G54D201*X90945Y103346D02*X97638D01*
G54D198*X89370Y89961D02*X98425D01*
G54D201*X90945Y91142D02*X97638D01*
G54D196*X63780Y99213D02*Y89764D01*
X68504Y99213D02*Y89764D01*
X63780D02*X68504D01*
X63780Y99213D02*X68504D01*
X63386Y99606D02*X68898D01*
X63386D02*Y96457D01*
X68898Y99606D02*Y96457D01*
G54D200*X42126Y88583D02*X85433D01*
X42126Y45276D02*X85433D01*
X42126Y88583D02*Y45276D01*
X85433Y88583D02*Y45276D01*
X130315Y88583D02*Y45276D01*
X87008Y88583D02*Y45276D01*
Y88583D02*X130315D01*
X87008Y45276D02*X130315D01*
G54D196*X53543Y98228D02*Y90748D01*
X49606Y98228D02*Y90748D01*
Y98228D02*X53543D01*
X49606Y90748D02*X53543D01*
X57480Y98228D02*Y90748D01*
X53543Y98228D02*Y90748D01*
Y98228D02*X57480D01*
X53543Y90748D02*X57480D01*
Y98228D02*Y90748D01*
X61417Y98228D02*Y90748D01*
X57480D02*X61417D01*
X57480Y98228D02*X61417D01*
G54D198*X141142Y118307D02*Y99803D01*
X150197Y118307D02*Y99803D01*
X141142D02*X150197D01*
X141142Y118307D02*X150197D01*
X175984Y115157D02*X210630D01*
X175984Y99803D02*X210630D01*
X175984Y115157D02*Y99803D01*
X210630Y115157D02*Y99803D01*
X175984Y130906D02*X210630D01*
X175984Y115551D02*X210630D01*
X175984Y130906D02*Y115551D01*
X210630Y130906D02*Y115551D01*
X154862Y43701D02*X182421D01*
X154862Y65748D02*X182421D01*
Y43701D01*
X154862Y65748D02*Y43701D01*
G54D199*X182815Y47244D02*Y43307D01*
X178878D02*X182815D01*
G54D198*X154862Y68110D02*X182421D01*
X154862Y90157D02*X182421D01*
Y68110D01*
X154862Y90157D02*Y68110D01*
G54D199*X182815Y71654D02*Y67717D01*
X178878D02*X182815D01*
G54D196*X160630Y90354D02*X174803D01*
X160630Y99409D02*X174803D01*
Y90354D01*
X160630Y99409D02*Y90354D01*
G54D199*X175197Y93898D02*Y89961D01*
X169685D02*X175197D01*
G54D196*X155906Y98622D02*Y91142D01*
X159843Y98622D02*Y91142D01*
X155906D02*X159843D01*
X155906Y98622D02*X159843D01*
X173228Y140748D02*Y133268D01*
X177165Y140748D02*Y133268D01*
X173228D02*X177165D01*
X173228Y140748D02*X177165D01*
X178346Y137008D02*X185827D01*
X178346Y133071D02*X185827D01*
X178346Y137008D02*Y133071D01*
X185827Y137008D02*Y133071D01*
X178346Y140945D02*X185827D01*
X178346Y137008D02*X185827D01*
X178346Y140945D02*Y137008D01*
X185827Y140945D02*Y137008D01*
X190157Y88976D02*Y79528D01*
X194882Y88976D02*Y79528D01*
X190157D02*X194882D01*
X190157Y88976D02*X194882D01*
X189764Y89370D02*X195276D01*
X189764D02*Y86220D01*
X195276Y89370D02*Y86220D01*
X196063Y88386D02*Y80906D01*
X200000Y88386D02*Y80906D01*
X196063D02*X200000D01*
X196063Y88386D02*X200000D01*
G54D198*X249803Y44488D02*X292717D01*
Y85433D01*
X284843Y93307D01*
X257677D02*X284843D01*
X249803Y44488D02*Y85433D01*
X257677Y93307D01*
G54D200*X248425Y88583D02*Y45276D01*
X205118Y88583D02*Y45276D01*
Y88583D02*X248425D01*
X205118Y45276D02*X248425D01*
G54D198*X233661Y184843D02*Y141929D01*
X187598Y184843D02*Y141929D01*
Y184843D02*X233661D01*
X187598Y141929D02*X233661D01*
G54D199*X187205Y185236D02*X195079D01*
X187205D02*Y177362D01*
G54D200*X263780Y159449D02*X311024D01*
X263780Y100394D02*X311024D01*
X263780Y159449D02*Y100394D01*
X311024Y159449D02*Y100394D01*
X295276Y112205D02*Y100394D01*
Y135827D02*Y124016D01*
Y159449D02*Y147638D01*
G54D196*X284646Y169094D02*Y161614D01*
X280709Y169094D02*Y161614D01*
Y169094D02*X284646D01*
X280709Y161614D02*X284646D01*
X280709Y169094D02*Y161614D01*
X276772Y169094D02*Y161614D01*
Y169094D02*X280709D01*
X276772Y161614D02*X280709D01*
X272835Y169094D02*Y161614D01*
X276772Y169094D02*Y161614D01*
X272835D02*X276772D01*
X272835Y169094D02*X276772D01*
X267717Y99213D02*X277165D01*
X267717Y94488D02*X277165D01*
X267717Y99213D02*Y94488D01*
X277165Y99213D02*Y94488D01*
X277559Y99606D02*Y94094D01*
X274409Y99606D02*X277559D01*
X274409Y94094D02*X277559D01*
X278150Y95669D02*X285630D01*
X278150Y99606D02*X285630D01*
Y95669D01*
X278150Y99606D02*Y95669D01*
X289764Y99803D02*Y92323D01*
X293701Y99803D02*Y92323D01*
X289764D02*X293701D01*
X289764Y99803D02*X293701D01*
X285827D02*Y92323D01*
X289764Y99803D02*Y92323D01*
X285827D02*X289764D01*
X285827Y99803D02*X289764D01*
G54D198*X210433Y132480D02*X228937D01*
X210433Y141535D02*X228937D01*
Y132480D01*
X210433Y141535D02*Y132480D01*
G54D196*X263386Y133661D02*Y126181D01*
X259449Y133661D02*Y126181D01*
Y133661D02*X263386D01*
X259449Y126181D02*X263386D01*
X266142Y170079D02*Y160630D01*
X270866Y170079D02*Y160630D01*
X266142D02*X270866D01*
X266142Y170079D02*X270866D01*
X265748Y170472D02*X271260D01*
X265748D02*Y167323D01*
X271260Y170472D02*Y167323D01*
G54D198*X250787Y150591D02*Y136811D01*
X258661Y150591D02*Y136811D01*
X250787D02*X258661D01*
X250787Y150591D02*X258661D01*
X250787Y136811D02*Y123031D01*
X258661Y136811D02*Y123031D01*
X250787D02*X258661D01*
X250787Y136811D02*X258661D01*
G54D199*X254724Y122638D02*Y122047D01*
G54D198*X250787Y129921D02*X258661D01*
X254724D02*Y128740D01*
X75591Y207677D02*Y193898D01*
X83465Y207677D02*Y193898D01*
X75591D02*X83465D01*
X75591Y207677D02*X83465D01*
G54D199*X79528Y193504D02*Y192913D01*
G54D198*X75591Y200787D02*X83465D01*
X79528D02*Y199606D01*
G54D200*X23622Y171260D02*X70866D01*
X23622Y230315D02*X70866D01*
Y171260D01*
X23622Y230315D02*Y171260D01*
X39370Y230315D02*Y218504D01*
Y206693D02*Y194882D01*
Y183071D02*Y171260D01*
G54D198*X75591Y278543D02*Y264764D01*
X83465Y278543D02*Y264764D01*
X75591D02*X83465D01*
X75591Y278543D02*X83465D01*
G54D199*X79528Y264370D02*Y263780D01*
G54D198*X75591Y271654D02*X83465D01*
X79528D02*Y270472D01*
X116732Y141535D02*X135236D01*
X116732Y132480D02*X135236D01*
X116732Y141535D02*Y132480D01*
X135236Y141535D02*Y132480D01*
X100984Y184843D02*Y141929D01*
X147047Y184843D02*Y141929D01*
X100984D02*X147047D01*
X100984Y184843D02*X147047D01*
G54D199*X139567Y141535D02*X147441D01*
Y149409D02*Y141535D01*
G54D198*X100984Y239961D02*Y197047D01*
X147047Y239961D02*Y197047D01*
X100984D02*X147047D01*
X100984Y239961D02*X147047D01*
G54D199*X139567Y196654D02*X147441D01*
Y204528D02*Y196654D01*
G54D196*X71260Y133661D02*Y126181D01*
X75197Y133661D02*Y126181D01*
X71260D02*X75197D01*
X71260Y133661D02*X75197D01*
G54D200*X23622Y100394D02*X70866D01*
X23622Y159449D02*X70866D01*
Y100394D01*
X23622Y159449D02*Y100394D01*
X39370Y159449D02*Y147638D01*
Y135827D02*Y124016D01*
Y112205D02*Y100394D01*
G54D198*X83465Y121063D02*Y107283D01*
X75591Y121063D02*Y107283D01*
Y121063D02*X83465D01*
X75591Y107283D02*X83465D01*
X75591Y136811D02*Y123031D01*
X83465Y136811D02*Y123031D01*
X75591D02*X83465D01*
X75591Y136811D02*X83465D01*
G54D199*X79528Y122638D02*Y122047D01*
G54D198*X75591Y129921D02*X83465D01*
X79528D02*Y128740D01*
X210039Y187205D02*X228543D01*
X210039Y196260D02*X228543D01*
Y187205D01*
X210039Y196260D02*Y187205D01*
X233661Y239961D02*Y197047D01*
X187598Y239961D02*Y197047D01*
Y239961D02*X233661D01*
X187598Y197047D02*X233661D01*
G54D199*X187205Y240354D02*X195079D01*
X187205D02*Y232480D01*
G54D198*X88583Y120079D02*Y112205D01*
X96457D01*
X88583Y269685D02*Y261811D01*
Y269685D02*X96457D01*
X246063Y120079D02*Y112205D01*
X238189D02*X246063D01*
Y269685D02*Y261811D01*
X238189Y269685D02*X246063D01*
X104331Y115354D02*X105388Y115401D01*
X106438Y115541D01*
X107472Y115772D01*
X108483Y116094D01*
X109464Y116503D01*
X110406Y116997D01*
X111303Y117573D01*
X112149Y118225D01*
X112936Y118949D01*
X113660Y119740D01*
X114315Y120592D01*
X114896Y121498D01*
X115399Y122452D01*
X115820Y123446D01*
X116156Y124474D01*
X116404Y125528D01*
X116563Y126600D01*
X116631Y127682D01*
X116608Y128765D01*
X116495Y129843D01*
X116291Y130907D01*
X115999Y131949D01*
X115620Y132961D01*
X115158Y133936D01*
X114615Y134867D01*
X113997Y135747D01*
X113307Y136569D01*
X112550Y137327D01*
X111733Y138016D01*
X110860Y138630D01*
X109940Y139166D01*
X108978Y139618D01*
X107981Y139984D01*
X106958Y140261D01*
X105915Y140446D01*
X104860Y140540D01*
X103801D01*
X102747Y140446D01*
X101704Y140261D01*
X100680Y139984D01*
X99684Y139618D01*
X98722Y139166D01*
X97801Y138630D01*
X96929Y138016D01*
X96111Y137327D01*
X95355Y136569D01*
X94665Y135747D01*
X94046Y134867D01*
X93504Y133936D01*
X93042Y132961D01*
X92663Y131949D01*
X92371Y130907D01*
X92167Y129843D01*
X92053Y128765D01*
X92030Y127682D01*
X92099Y126600D01*
X92258Y125528D01*
X92506Y124474D01*
X92842Y123446D01*
X93262Y122452D01*
X93765Y121498D01*
X94346Y120592D01*
X95001Y119740D01*
X95725Y118949D01*
X96513Y118225D01*
X97358Y117573D01*
X98256Y116997D01*
X99198Y116503D01*
X100178Y116094D01*
X101189Y115772D01*
X102223Y115541D01*
X103273Y115401D01*
X104331Y115354D01*
X230315Y241339D02*X231373Y241385D01*
X232422Y241525D01*
X233457Y241756D01*
X234468Y242078D01*
X235448Y242487D01*
X236390Y242982D01*
X237287Y243557D01*
X238133Y244209D01*
X238920Y244933D01*
X239645Y245724D01*
X240299Y246576D01*
X240880Y247482D01*
X241383Y248436D01*
X241804Y249431D01*
X242140Y250459D01*
X242388Y251512D01*
X242547Y252584D01*
X242615Y253666D01*
X242592Y254750D01*
X242479Y255827D01*
X242275Y256891D01*
X241983Y257933D01*
X241604Y258945D01*
X241142Y259921D01*
X240599Y260852D01*
X239981Y261731D01*
X239291Y262553D01*
X238534Y263312D01*
X237717Y264000D01*
X236845Y264615D01*
X235924Y265150D01*
X234962Y265602D01*
X233965Y265968D01*
X232942Y266245D01*
X231899Y266431D01*
X230844Y266524D01*
X229786D01*
X228731Y266431D01*
X227688Y266245D01*
X226664Y265968D01*
X225668Y265602D01*
X224706Y265150D01*
X223785Y264615D01*
X222913Y264000D01*
X222096Y263312D01*
X221339Y262553D01*
X220649Y261731D01*
X220030Y260852D01*
X219488Y259921D01*
X219026Y258945D01*
X218647Y257933D01*
X218355Y256891D01*
X218151Y255827D01*
X218037Y254750D01*
X218015Y253666D01*
X218083Y252584D01*
X218242Y251512D01*
X218490Y250459D01*
X218826Y249431D01*
X219247Y248436D01*
X219749Y247482D01*
X220330Y246576D01*
X220985Y245724D01*
X221709Y244933D01*
X222497Y244209D01*
X223343Y243557D01*
X224240Y242982D01*
X225182Y242487D01*
X226162Y242078D01*
X227173Y241756D01*
X228208Y241525D01*
X229257Y241385D01*
X230315Y241339D01*
G54D196*X182874Y248425D02*Y240551D01*
X173031Y248425D02*Y240551D01*
Y248425D02*X182874D01*
X173031Y240551D02*X182874D01*
X157677Y248425D02*Y240551D01*
X147835Y248425D02*Y240551D01*
Y248425D02*X157677D01*
X147835Y240551D02*X157677D01*
X157874Y248228D02*Y240748D01*
X161811Y248228D02*Y240748D01*
X157874D02*X161811D01*
X157874Y248228D02*X161811D01*
X168898D02*Y240748D01*
X172835Y248228D02*Y240748D01*
X168898D02*X172835D01*
X168898Y248228D02*X172835D01*
X181890Y237992D02*Y230512D01*
X185827Y237992D02*Y230512D01*
X181890D02*X185827D01*
X181890Y237992D02*X185827D01*
X181890Y182874D02*Y175394D01*
X185827Y182874D02*Y175394D01*
X181890D02*X185827D01*
X181890Y182874D02*X185827D01*
X167913Y161417D02*X175394D01*
X167913Y157480D02*X175394D01*
X167913Y161417D02*Y157480D01*
X175394Y161417D02*Y157480D01*
X152756Y151378D02*Y143898D01*
X148819Y151378D02*Y143898D01*
Y151378D02*X152756D01*
X148819Y143898D02*X152756D01*
G54D198*X159055Y142618D02*X175591D01*
X159055Y156398D02*X175591D01*
Y142618D01*
X159055Y156398D02*Y142618D01*
G54D199*X175984Y146161D02*Y142224D01*
X172047D02*X175984D01*
G54D196*X176772Y156496D02*Y149016D01*
X180709Y156496D02*Y149016D01*
X176772D02*X180709D01*
X176772Y156496D02*X180709D01*
X172835Y263583D02*Y256102D01*
X168898Y263583D02*Y256102D01*
Y263583D02*X172835D01*
X168898Y256102D02*X172835D01*
G54D198*X158465Y274016D02*X172244D01*
X158465Y266142D02*X172244D01*
X158465Y274016D02*Y266142D01*
X172244Y274016D02*Y266142D01*
G54D196*X173228Y349803D02*Y342323D01*
X169291Y349803D02*Y342323D01*
Y349803D02*X173228D01*
X169291Y342323D02*X173228D01*
G54D198*X189567Y372835D02*Y349213D01*
X175787Y372835D02*Y349213D01*
Y372835D02*X189567D01*
X175787Y349213D02*X189567D01*
X175394Y348819D02*X189961D01*
Y357874D02*Y348819D01*
G54D201*X188780Y356299D02*Y349606D01*
G54D198*X175394Y357874D02*Y348819D01*
G54D201*X176575Y356299D02*Y349606D01*
G54D198*X174291Y332874D02*X199764D01*
X174291Y346457D02*X199764D01*
Y332874D01*
X174291Y346457D02*Y332874D01*
G54D199*X194488Y346850D02*X199961D01*
Y339606D01*
G54D200*X104291Y389764D02*Y353543D01*
X139803Y389764D02*Y353543D01*
X104291D02*X139803D01*
X104291Y389764D02*X139803D01*
X133815Y374016D02*X139803D01*
X115500D02*X128594D01*
X104291D02*X110280D01*
X139724Y389764D02*Y353543D01*
X175236Y389764D02*Y353543D01*
X139724D02*X175236D01*
X139724Y389764D02*X175236D01*
X169248Y374016D02*X175236D01*
X150933D02*X164028D01*
X139724D02*X145713D01*
G54D196*X143110Y340945D02*X150591D01*
X143110Y344882D02*X150591D01*
Y340945D01*
X143110Y344882D02*Y340945D01*
Y337008D02*X150591D01*
X143110Y340945D02*X150591D01*
Y337008D01*
X143110Y340945D02*Y337008D01*
G54D198*X135236Y344882D02*X149016D01*
X135236Y352756D02*X149016D01*
Y344882D01*
X135236Y352756D02*Y344882D01*
G54D196*X190551Y351969D02*X200000D01*
X190551Y347244D02*X200000D01*
X190551Y351969D02*Y347244D01*
X200000Y351969D02*Y347244D01*
X200394Y352362D02*Y346850D01*
X197244Y352362D02*X200394D01*
X197244Y346850D02*X200394D01*
X200787Y352559D02*Y345079D01*
X204724Y352559D02*Y345079D01*
X200787D02*X204724D01*
X200787Y352559D02*X204724D01*
G54D198*X209646Y334843D02*X225000D01*
X209646Y348622D02*X225000D01*
Y334843D01*
X209646Y348622D02*Y334843D01*
G54D199*X225394Y338386D02*Y334449D01*
X221457D02*X225394D01*
G54D198*X190157Y380039D02*Y352756D01*
X231102Y380039D02*Y352756D01*
X190157D02*X231102D01*
X190157Y380039D02*X231102D01*
X222913Y374016D02*X231102D01*
X206535D02*X214724D01*
X190157D02*X198346D01*
X65354Y339370D02*Y303937D01*
X42520Y339370D02*Y303937D01*
Y339370D02*X65354D01*
X42520Y303937D02*X65354D01*
X39961Y342323D02*X52953D01*
X39961Y356102D02*X52953D01*
Y342323D01*
X39961Y356102D02*Y342323D01*
G54D200*X103346Y341929D02*Y311614D01*
X69882Y341929D02*Y311614D01*
X103346D01*
X69882Y341929D02*X103346D01*
X53150Y389764D02*Y342520D01*
X97244Y389764D02*Y342520D01*
X53150D02*X97244D01*
X53150Y389764D02*X97244D01*
X88425Y374016D02*X97244D01*
X70787D02*X79606D01*
X53150D02*X61969D01*
G54D198*X154528Y344882D02*X168307D01*
X154528Y352756D02*X168307D01*
Y344882D01*
X154528Y352756D02*Y344882D01*
G54D196*X154724Y339961D02*Y332480D01*
X150787Y339961D02*Y332480D01*
Y339961D02*X154724D01*
X150787Y332480D02*X154724D01*
G54D198*X155315Y344488D02*Y327953D01*
X169094Y344488D02*Y327953D01*
X155315D02*X169094D01*
X155315Y344488D02*X169094D01*
G54D199*X154921Y327559D02*X158858D01*
X154921Y331496D02*Y327559D01*
G54D198*X140945Y335039D02*Y316142D01*
X149606Y335039D02*Y316142D01*
X140945D02*X149606D01*
X140945Y335039D02*X149606D01*
X140551Y335433D02*X150000D01*
X140551D02*Y328740D01*
G54D201*X141535Y334646D02*Y330315D01*
G54D198*X150000Y335433D02*Y328740D01*
G54D201*X149016Y334646D02*Y330315D01*
G54D198*X123228Y352165D02*Y338386D01*
X131102Y352165D02*Y338386D01*
X123228D02*X131102D01*
X123228Y352165D02*X131102D01*
G54D199*X127165Y337992D02*Y337402D01*
G54D198*X123228Y345768D02*X131102D01*
X127165D02*Y344587D01*
G54D196*X135039Y352165D02*Y344685D01*
X131102Y352165D02*Y344685D01*
Y352165D02*X135039D01*
X131102Y344685D02*X135039D01*
G54D198*X108858Y351969D02*X122638D01*
X108858Y344094D02*X122638D01*
X108858Y351969D02*Y344094D01*
X122638Y351969D02*Y344094D01*
G54D196*X123228Y342913D02*Y321654D01*
X106693Y342913D02*Y321654D01*
Y342913D02*X123228D01*
X106693Y321654D02*X123228D01*
G54D198*Y335630D02*Y321850D01*
X131102Y335630D02*Y321850D01*
X123228D02*X131102D01*
X123228Y335630D02*X131102D01*
Y321850D01*
X138976Y335630D02*Y321850D01*
X131102D02*X138976D01*
X131102Y335630D02*X138976D01*
G54D196*X148031Y314370D02*Y306890D01*
X151969Y314370D02*Y306890D01*
X148031D02*X151969D01*
X148031Y314370D02*X151969D01*
X140551Y313976D02*Y306496D01*
X136614Y313976D02*Y306496D01*
Y313976D02*X140551D01*
X136614Y306496D02*X140551D01*
G54D198*X112795Y291142D02*X131299D01*
X112795Y300197D02*X131299D01*
Y291142D01*
X112795Y300197D02*Y291142D01*
G54D196*X132677Y313976D02*Y306496D01*
X136614Y313976D02*Y306496D01*
X132677D02*X136614D01*
X132677Y313976D02*X136614D01*
X114764Y300394D02*X122244D01*
X114764Y304331D02*X122244D01*
Y300394D01*
X114764Y304331D02*Y300394D01*
X132677Y306496D02*Y299016D01*
X136614Y306496D02*Y299016D01*
X132677D02*X136614D01*
X132677Y306496D02*X136614D01*
G54D198*X112795Y282087D02*X131299D01*
X112795Y291142D02*X131299D01*
Y282087D01*
X112795Y291142D02*Y282087D01*
X167323Y323622D02*G75*G03X167323Y323622I0J-24803D01*G01*
Y313583D02*G75*G03X167323Y313583I0J-4921D01*G01*
Y293898D02*G75*G03X167323Y293898I0J-4921D01*G01*
X182087Y300787D02*G75*G03X182087Y300787I0J-1969D01*G01*
X152559D02*G75*G03X152559Y300787I0J-1969D01*G01*
G54D196*X263386Y204528D02*Y197047D01*
X259449Y204528D02*Y197047D01*
Y204528D02*X263386D01*
X259449Y197047D02*X263386D01*
G54D198*X250787Y221457D02*Y207677D01*
X258661Y221457D02*Y207677D01*
X250787D02*X258661D01*
X250787Y221457D02*X258661D01*
G54D200*X263780Y230315D02*X311024D01*
X263780Y171260D02*X311024D01*
X263780Y230315D02*Y171260D01*
X311024Y230315D02*Y171260D01*
X295276Y183071D02*Y171260D01*
Y206693D02*Y194882D01*
Y230315D02*Y218504D01*
G54D198*X250787Y207677D02*Y193898D01*
X258661Y207677D02*Y193898D01*
X250787D02*X258661D01*
X250787Y207677D02*X258661D01*
G54D199*X254724Y193504D02*Y192913D01*
G54D198*X250787Y200787D02*X258661D01*
X254724D02*Y199606D01*
G54D196*X203740Y268504D02*X211220D01*
X203740Y264567D02*X211220D01*
X203740Y268504D02*Y264567D01*
X211220Y268504D02*Y264567D01*
X203740Y272441D02*X211220D01*
X203740Y268504D02*X211220D01*
X203740Y272441D02*Y268504D01*
X211220Y272441D02*Y268504D01*
X218701D01*
X211220Y272441D02*X218701D01*
Y268504D01*
X211220Y272441D02*Y268504D01*
X207677Y263780D02*X215157D01*
X207677Y259843D02*X215157D01*
X207677Y263780D02*Y259843D01*
X215157Y263780D02*Y259843D01*
X207677Y249213D02*X215157D01*
X207677Y245276D02*X215157D01*
X207677Y249213D02*Y245276D01*
X215157Y249213D02*Y245276D01*
X207677Y249213D02*X215157D01*
X207677Y253150D02*X215157D01*
Y249213D01*
X207677Y253150D02*Y249213D01*
Y255906D02*X215157D01*
X207677Y259843D02*X215157D01*
Y255906D01*
X207677Y259843D02*Y255906D01*
X199606Y261614D02*Y254134D01*
X203543Y261614D02*Y254134D01*
X199606D02*X203543D01*
X199606Y261614D02*X203543D01*
Y252953D02*Y245472D01*
X207480Y252953D02*Y245472D01*
X203543D02*X207480D01*
X203543Y252953D02*X207480D01*
Y263583D02*Y256102D01*
X203543Y263583D02*Y256102D01*
Y263583D02*X207480D01*
X203543Y256102D02*X207480D01*
G54D198*X173031Y254134D02*X199409D01*
X173031Y271063D02*X199409D01*
Y254134D01*
X173031Y271063D02*Y254134D01*
G54D196*X196703Y83957D02*Y82677D01*
Y83957D02*X197023Y84277D01*
X197663D01*
X197983Y83957D02*X197663Y84277D01*
X197983Y83957D02*Y82997D01*
X196703D02*X199263D01*
X197983Y83509D02*X199263Y84277D01*
X196703Y86325D02*Y85045D01*
X197983D01*
X197663Y85365D01*
Y86005D02*Y85365D01*
Y86005D02*X197983Y86325D01*
X198943D01*
X199263Y86005D02*X198943Y86325D01*
X199263Y86005D02*Y85365D01*
X198943Y85045D02*X199263Y85365D01*
X165827Y80331D02*Y77331D01*
Y80331D02*X166327Y80831D01*
X167327D01*
X167827Y80331D01*
Y77831D01*
X166827Y76831D02*X167827Y77831D01*
X166327Y76831D02*X166827D01*
X165827Y77331D02*X166327Y76831D01*
X166827Y78331D02*X167827Y76831D01*
X169027Y80331D02*X169527Y80831D01*
X171027D01*
X171527Y80331D01*
Y79331D01*
X169027Y76831D02*X171527Y79331D01*
X169027Y76831D02*X171527D01*
X165354Y97031D02*Y93531D01*
X165854Y93031D01*
X166854D01*
X167354Y93531D01*
Y97031D02*Y93531D01*
X169054Y93031D02*X170554Y95031D01*
Y96531D02*Y95031D01*
X170054Y97031D02*X170554Y96531D01*
X169054Y97031D02*X170054D01*
X168554Y96531D02*X169054Y97031D01*
X168554Y96531D02*Y95531D01*
X169054Y95031D01*
X170554D01*
X127018Y101280D02*Y100000D01*
Y101280D02*X127338Y101600D01*
X127978D01*
X128298Y101280D02*X127978Y101600D01*
X128298Y101280D02*Y100320D01*
X127018D02*X129578D01*
X128298Y100832D02*X129578Y101600D01*
X127530Y102368D02*X127018Y102880D01*
X129578D01*
Y103328D02*Y102368D01*
X129258Y104096D02*X129578Y104416D01*
X127338Y104096D02*X129258D01*
X127338D02*X127018Y104416D01*
Y105056D02*Y104416D01*
Y105056D02*X127338Y105376D01*
X129258D01*
X129578Y105056D02*X129258Y105376D01*
X129578Y105056D02*Y104416D01*
X128938Y104096D02*X127658Y105376D01*
X147913Y108693D02*Y107393D01*
X147213Y106693D02*X147913Y107393D01*
X144613Y106693D02*X147213D01*
X144613D02*X143913Y107393D01*
Y108693D02*Y107393D01*
X144413Y109893D02*X143913Y110393D01*
Y111393D02*Y110393D01*
Y111393D02*X144413Y111893D01*
X147913Y111393D02*X147413Y111893D01*
X147913Y111393D02*Y110393D01*
X147413Y109893D02*X147913Y110393D01*
X145713Y111393D02*Y110393D01*
X144413Y111893D02*X145213D01*
X146213D02*X147413D01*
X146213D02*X145713Y111393D01*
X145213Y111893D02*X145713Y111393D01*
X190967Y82295D02*X194207D01*
X190967Y83348D02*X191534Y83915D01*
X193640D01*
X194207Y83348D02*X193640Y83915D01*
X194207Y83348D02*Y81890D01*
X190967Y83348D02*Y81890D01*
X191372Y84887D02*X190967Y85292D01*
Y86507D02*Y85292D01*
Y86507D02*X191372Y86912D01*
X192182D01*
X194207Y84887D02*X192182Y86912D01*
X194207D02*Y84887D01*
X190157Y109630D02*X192157D01*
X192657Y109130D01*
Y108130D01*
X192157Y107630D02*X192657Y108130D01*
X190657Y107630D02*X192157D01*
X190657Y109630D02*Y105630D01*
X191457Y107630D02*X192657Y105630D01*
X193857Y109130D02*X194357Y109630D01*
X195857D01*
X196357Y109130D01*
Y108130D01*
X193857Y105630D02*X196357Y108130D01*
X193857Y105630D02*X196357D01*
X166201Y56256D02*Y53256D01*
Y56256D02*X166701Y56756D01*
X167701D01*
X168201Y56256D01*
Y53756D01*
X167201Y52756D02*X168201Y53756D01*
X166701Y52756D02*X167201D01*
X166201Y53256D02*X166701Y52756D01*
X167201Y54256D02*X168201Y52756D01*
X169401Y55956D02*X170201Y56756D01*
Y52756D01*
X169401D02*X170901D01*
X159106Y93406D02*Y92574D01*
X158658Y92126D02*X159106Y92574D01*
X156994Y92126D02*X158658D01*
X156994D02*X156546Y92574D01*
Y93406D02*Y92574D01*
X158146Y94174D02*X156546Y95454D01*
X158146Y95774D02*Y94174D01*
X156546Y95454D02*X159106D01*
X158786Y96542D02*X159106Y96862D01*
X158274Y96542D02*X158786D01*
X158274D02*X157826Y96990D01*
Y97374D02*Y96990D01*
Y97374D02*X158274Y97822D01*
X158786D01*
X159106Y97502D02*X158786Y97822D01*
X159106Y97502D02*Y96862D01*
X157378Y96542D02*X157826Y96990D01*
X156866Y96542D02*X157378D01*
X156866D02*X156546Y96862D01*
Y97502D02*Y96862D01*
Y97502D02*X156866Y97822D01*
X157378D01*
X157826Y97374D02*X157378Y97822D01*
X121654Y220654D02*Y217154D01*
X122154Y216654D01*
X123154D01*
X123654Y217154D01*
Y220654D02*Y217154D01*
X124854D02*X125354Y216654D01*
X124854Y217954D02*Y217154D01*
Y217954D02*X125554Y218654D01*
X126154D01*
X126854Y217954D01*
Y217154D01*
X126354Y216654D02*X126854Y217154D01*
X125354Y216654D02*X126354D01*
X124854Y219354D02*X125554Y218654D01*
X124854Y220154D02*Y219354D01*
Y220154D02*X125354Y220654D01*
X126354D01*
X126854Y220154D01*
Y219354D01*
X126154Y218654D02*X126854Y219354D01*
X141783Y250493D02*Y249661D01*
X141335Y249213D02*X141783Y249661D01*
X139671Y249213D02*X141335D01*
X139671D02*X139223Y249661D01*
Y250493D02*Y249661D01*
X139735Y251261D02*X139223Y251773D01*
X141783D01*
Y252221D02*Y251261D01*
X139543Y252989D02*X139223Y253309D01*
Y254269D02*Y253309D01*
Y254269D02*X139543Y254589D01*
X140183D01*
X141783Y252989D02*X140183Y254589D01*
X141783D02*Y252989D01*
X135286Y251280D02*Y250000D01*
Y251280D02*X135606Y251600D01*
X136246D01*
X136566Y251280D02*X136246Y251600D01*
X136566Y251280D02*Y250320D01*
X135286D02*X137846D01*
X136566Y250832D02*X137846Y251600D01*
X137526Y252368D02*X137846Y252688D01*
X137014Y252368D02*X137526D01*
X137014D02*X136566Y252816D01*
Y253200D02*Y252816D01*
Y253200D02*X137014Y253648D01*
X137526D01*
X137846Y253328D02*X137526Y253648D01*
X137846Y253328D02*Y252688D01*
X136118Y252368D02*X136566Y252816D01*
X135606Y252368D02*X136118D01*
X135606D02*X135286Y252688D01*
Y253328D02*Y252688D01*
Y253328D02*X135606Y253648D01*
X136118D01*
X136566Y253200D02*X136118Y253648D01*
X128740Y251722D02*X130020D01*
X130340Y251402D01*
Y250762D01*
X130020Y250442D02*X130340Y250762D01*
X129060Y250442D02*X130020D01*
X129060Y251722D02*Y249162D01*
X129572Y250442D02*X130340Y249162D01*
X131428D02*X132708Y251722D01*
X131108D02*X132708D01*
X106999Y189882D02*X108299D01*
X106299Y190582D02*X106999Y189882D01*
X106299Y193182D02*Y190582D01*
Y193182D02*X106999Y193882D01*
X108299D01*
X109499Y191382D02*X111499Y193882D01*
X109499Y191382D02*X111999D01*
X111499Y193882D02*Y189882D01*
X113199Y193382D02*X113699Y193882D01*
X115199D01*
X115699Y193382D01*
Y192382D01*
X113199Y189882D02*X115699Y192382D01*
X113199Y189882D02*X115699D01*
X122747Y135157D02*X124047D01*
X122047Y135857D02*X122747Y135157D01*
X122047Y138457D02*Y135857D01*
Y138457D02*X122747Y139157D01*
X124047D01*
X125247Y138657D02*X125747Y139157D01*
X126747D01*
X127247Y138657D01*
X126747Y135157D02*X127247Y135657D01*
X125747Y135157D02*X126747D01*
X125247Y135657D02*X125747Y135157D01*
Y137357D02*X126747D01*
X127247Y138657D02*Y137857D01*
Y136857D02*Y135657D01*
Y136857D02*X126747Y137357D01*
X127247Y137857D02*X126747Y137357D01*
X128447Y135657D02*X128947Y135157D01*
X128447Y138657D02*Y135657D01*
Y138657D02*X128947Y139157D01*
X129947D01*
X130447Y138657D01*
Y135657D01*
X129947Y135157D02*X130447Y135657D01*
X128947Y135157D02*X129947D01*
X128447Y136157D02*X130447Y138157D01*
X152019Y146162D02*Y145330D01*
X151571Y144882D02*X152019Y145330D01*
X149907Y144882D02*X151571D01*
X149907D02*X149459Y145330D01*
Y146162D02*Y145330D01*
X149779Y146930D02*X149459Y147250D01*
Y147890D02*Y147250D01*
Y147890D02*X149779Y148210D01*
X152019Y147890D02*X151699Y148210D01*
X152019Y147890D02*Y147250D01*
X151699Y146930D02*X152019Y147250D01*
X150611Y147890D02*Y147250D01*
X149779Y148210D02*X150291D01*
X150931D02*X151699D01*
X150931D02*X150611Y147890D01*
X150291Y148210D02*X150611Y147890D01*
X149779Y148978D02*X149459Y149298D01*
Y150258D02*Y149298D01*
Y150258D02*X149779Y150578D01*
X150419D01*
X152019Y148978D02*X150419Y150578D01*
X152019D02*Y148978D01*
X164961Y152248D02*Y148748D01*
X165461Y148248D01*
X166461D01*
X166961Y148748D01*
Y152248D02*Y148748D01*
X168161Y151448D02*X168961Y152248D01*
Y148248D01*
X168161D02*X169661D01*
X185090Y177264D02*Y176432D01*
X184642Y175984D02*X185090Y176432D01*
X182978Y175984D02*X184642D01*
X182978D02*X182530Y176432D01*
Y177264D02*Y176432D01*
X182850Y178032D02*X182530Y178352D01*
Y179312D02*Y178352D01*
Y179312D02*X182850Y179632D01*
X183490D01*
X185090Y178032D02*X183490Y179632D01*
X185090D02*Y178032D01*
Y180720D02*X182530Y182000D01*
Y180400D01*
X164152Y188970D02*X166652Y192970D01*
X164152D02*X166652Y188970D01*
X167852Y192470D02*X168352Y192970D01*
X169852D01*
X170352Y192470D01*
Y191470D01*
X167852Y188970D02*X170352Y191470D01*
X167852Y188970D02*X170352D01*
X170527Y158217D02*X171359D01*
X170079Y158665D02*X170527Y158217D01*
X170079Y160329D02*Y158665D01*
Y160329D02*X170527Y160777D01*
X171359D01*
X173087D02*X173407Y160457D01*
X172447Y160777D02*X173087D01*
X172127Y160457D02*X172447Y160777D01*
X172127Y160457D02*Y158537D01*
X172447Y158217D01*
X173087Y159625D02*X173407Y159305D01*
X172127Y159625D02*X173087D01*
X172447Y158217D02*X173087D01*
X173407Y158537D01*
Y159305D02*Y158537D01*
X179972Y152461D02*Y151629D01*
X179524Y151181D02*X179972Y151629D01*
X177860Y151181D02*X179524D01*
X177860D02*X177412Y151629D01*
Y152461D02*Y151629D01*
Y154509D02*Y153229D01*
X178692D01*
X178372Y153549D01*
Y154189D02*Y153549D01*
Y154189D02*X178692Y154509D01*
X179652D01*
X179972Y154189D02*X179652Y154509D01*
X179972Y154189D02*Y153549D01*
X179652Y153229D02*X179972Y153549D01*
X190551Y125772D02*X192551D01*
X193051Y125272D01*
Y124272D01*
X192551Y123772D02*X193051Y124272D01*
X191051Y123772D02*X192551D01*
X191051Y125772D02*Y121772D01*
X191851Y123772D02*X193051Y121772D01*
X194251Y124972D02*X195051Y125772D01*
Y121772D01*
X194251D02*X195751D01*
X176428Y136319D02*Y135487D01*
X175980Y135039D02*X176428Y135487D01*
X174316Y135039D02*X175980D01*
X174316D02*X173868Y135487D01*
Y136319D02*Y135487D01*
X175468Y137087D02*X173868Y138367D01*
X175468Y138687D02*Y137087D01*
X173868Y138367D02*X176428D01*
X180118Y136368D02*X181398D01*
X181718Y136048D01*
Y135408D01*
X181398Y135088D02*X181718Y135408D01*
X180438Y135088D02*X181398D01*
X180438Y136368D02*Y133808D01*
X180950Y135088D02*X181718Y133808D01*
X182486Y134768D02*X183766Y136368D01*
X182486Y134768D02*X184086D01*
X183766Y136368D02*Y133808D01*
X180118Y140305D02*X181398D01*
X181718Y139985D01*
Y139345D01*
X181398Y139025D02*X181718Y139345D01*
X180438Y139025D02*X181398D01*
X180438Y140305D02*Y137745D01*
X180950Y139025D02*X181718Y137745D01*
X182486Y139985D02*X182806Y140305D01*
X183446D01*
X183766Y139985D01*
X183446Y137745D02*X183766Y138065D01*
X182806Y137745D02*X183446D01*
X182486Y138065D02*X182806Y137745D01*
Y139153D02*X183446D01*
X183766Y139985D02*Y139473D01*
Y138833D02*Y138065D01*
Y138833D02*X183446Y139153D01*
X183766Y139473D02*X183446Y139153D01*
X136496Y51606D02*Y50306D01*
X135796Y49606D02*X136496Y50306D01*
X133196Y49606D02*X135796D01*
X133196D02*X132496Y50306D01*
Y51606D02*Y50306D01*
X133296Y52806D02*X132496Y53606D01*
X136496D01*
Y54306D02*Y52806D01*
X84358Y99000D02*Y95000D01*
X85658Y99000D02*X86358Y98300D01*
Y95700D01*
X85658Y95000D02*X86358Y95700D01*
X83858Y95000D02*X85658D01*
X83858Y99000D02*X85658D01*
X87558Y98200D02*X88358Y99000D01*
Y95000D01*
X87558D02*X89058D01*
X74460Y128445D02*Y127613D01*
X74012Y127165D02*X74460Y127613D01*
X72348Y127165D02*X74012D01*
X72348D02*X71900Y127613D01*
Y128445D02*Y127613D01*
X72220Y129213D02*X71900Y129533D01*
Y130173D02*Y129533D01*
Y130173D02*X72220Y130493D01*
X74460Y130173D02*X74140Y130493D01*
X74460Y130173D02*Y129533D01*
X74140Y129213D02*X74460Y129533D01*
X73052Y130173D02*Y129533D01*
X72220Y130493D02*X72732D01*
X73372D02*X74140D01*
X73372D02*X73052Y130173D01*
X72732Y130493D02*X73052Y130173D01*
X72220Y131261D02*X71900Y131581D01*
Y132221D02*Y131581D01*
Y132221D02*X72220Y132541D01*
X74460Y132221D02*X74140Y132541D01*
X74460Y132221D02*Y131581D01*
X74140Y131261D02*X74460Y131581D01*
X73052Y132221D02*Y131581D01*
X72220Y132541D02*X72732D01*
X73372D02*X74140D01*
X73372D02*X73052Y132221D01*
X72732Y132541D02*X73052Y132221D01*
X64796Y162221D02*X68076D01*
X64796Y163287D02*X65370Y163861D01*
X67502D01*
X68076Y163287D02*X67502Y163861D01*
X68076Y163287D02*Y161811D01*
X64796Y163287D02*Y161811D01*
X65452Y164845D02*X64796Y165501D01*
X68076D01*
Y166075D02*Y164845D01*
X65206Y167059D02*X64796Y167469D01*
Y168699D02*Y167469D01*
Y168699D02*X65206Y169109D01*
X66026D01*
X68076Y167059D02*X66026Y169109D01*
X68076D02*Y167059D01*
X77378Y111449D02*Y109449D01*
Y111449D02*X77878Y111949D01*
X78878D01*
X79378Y111449D02*X78878Y111949D01*
X79378Y111449D02*Y109949D01*
X77378D02*X81378D01*
X79378Y110749D02*X81378Y111949D01*
X77878Y113149D02*X77378Y113649D01*
Y115149D02*Y113649D01*
Y115149D02*X77878Y115649D01*
X78878D01*
X81378Y113149D02*X78878Y115649D01*
X81378D02*Y113149D01*
X80878Y116849D02*X81378Y117349D01*
X80078Y116849D02*X80878D01*
X80078D02*X79378Y117549D01*
Y118149D02*Y117549D01*
Y118149D02*X80078Y118849D01*
X80878D01*
X81378Y118349D02*X80878Y118849D01*
X81378Y118349D02*Y117349D01*
X78678Y116849D02*X79378Y117549D01*
X77878Y116849D02*X78678D01*
X77878D02*X77378Y117349D01*
Y118349D02*Y117349D01*
Y118349D02*X77878Y118849D01*
X78678D01*
X79378Y118149D02*X78678Y118849D01*
X106999Y69079D02*X107799D01*
Y65579D01*
X107299Y65079D02*X107799Y65579D01*
X106799Y65079D02*X107299D01*
X106299Y65579D02*X106799Y65079D01*
X106299Y66079D02*Y65579D01*
X108999Y68279D02*X109799Y69079D01*
Y65079D01*
X108999D02*X110499D01*
X113886Y104906D02*Y100906D01*
X115186Y104906D02*X115886Y104206D01*
Y101606D01*
X115186Y100906D02*X115886Y101606D01*
X113386Y100906D02*X115186D01*
X113386Y104906D02*X115186D01*
X119086D02*X119586Y104406D01*
X117586Y104906D02*X119086D01*
X117086Y104406D02*X117586Y104906D01*
X117086Y104406D02*Y103406D01*
X117586Y102906D01*
X119086D01*
X119586Y102406D01*
Y101406D01*
X119086Y100906D02*X119586Y101406D01*
X117586Y100906D02*X119086D01*
X117086Y101406D02*X117586Y100906D01*
X120786Y104106D02*X121586Y104906D01*
Y100906D01*
X120786D02*X122286D01*
X64590Y92531D02*X67830D01*
X64590Y93584D02*X65157Y94151D01*
X67263D01*
X67830Y93584D02*X67263Y94151D01*
X67830Y93584D02*Y92126D01*
X64590Y93584D02*Y92126D01*
X67425Y95123D02*X67830Y95528D01*
X66777Y95123D02*X67425D01*
X66777D02*X66210Y95690D01*
Y96176D02*Y95690D01*
Y96176D02*X66777Y96743D01*
X67425D01*
X67830Y96338D02*X67425Y96743D01*
X67830Y96338D02*Y95528D01*
X65643Y95123D02*X66210Y95690D01*
X64995Y95123D02*X65643D01*
X64995D02*X64590Y95528D01*
Y96338D02*Y95528D01*
Y96338D02*X64995Y96743D01*
X65643D01*
X66210Y96176D02*X65643Y96743D01*
X62117Y68685D02*X62917D01*
Y65185D01*
X62417Y64685D02*X62917Y65185D01*
X61917Y64685D02*X62417D01*
X61417Y65185D02*X61917Y64685D01*
X61417Y65685D02*Y65185D01*
X64117Y68185D02*X64617Y68685D01*
X65617D01*
X66117Y68185D01*
X65617Y64685D02*X66117Y65185D01*
X64617Y64685D02*X65617D01*
X64117Y65185D02*X64617Y64685D01*
Y66885D02*X65617D01*
X66117Y68185D02*Y67385D01*
Y66385D02*Y65185D01*
Y66385D02*X65617Y66885D01*
X66117Y67385D02*X65617Y66885D01*
X52806Y93406D02*Y92574D01*
X52358Y92126D02*X52806Y92574D01*
X50694Y92126D02*X52358D01*
X50694D02*X50246Y92574D01*
Y93406D02*Y92574D01*
X50566Y94174D02*X50246Y94494D01*
Y95134D02*Y94494D01*
Y95134D02*X50566Y95454D01*
X52806Y95134D02*X52486Y95454D01*
X52806Y95134D02*Y94494D01*
X52486Y94174D02*X52806Y94494D01*
X51398Y95134D02*Y94494D01*
X50566Y95454D02*X51078D01*
X51718D02*X52486D01*
X51718D02*X51398Y95134D01*
X51078Y95454D02*X51398Y95134D01*
X50758Y96222D02*X50246Y96734D01*
X52806D01*
Y97182D02*Y96222D01*
X54183Y92619D02*Y91339D01*
Y92619D02*X54503Y92939D01*
X55143D01*
X55463Y92619D02*X55143Y92939D01*
X55463Y92619D02*Y91659D01*
X54183D02*X56743D01*
X55463Y92171D02*X56743Y92939D01*
X54503Y93707D02*X54183Y94027D01*
Y94987D02*Y94027D01*
Y94987D02*X54503Y95307D01*
X55143D01*
X56743Y93707D02*X55143Y95307D01*
X56743D02*Y93707D01*
Y96395D02*X54183Y97675D01*
Y96075D01*
X58120Y92619D02*Y91339D01*
Y92619D02*X58440Y92939D01*
X59080D01*
X59400Y92619D02*X59080Y92939D01*
X59400Y92619D02*Y91659D01*
X58120D02*X60680D01*
X59400Y92171D02*X60680Y92939D01*
X58440Y93707D02*X58120Y94027D01*
Y94987D02*Y94027D01*
Y94987D02*X58440Y95307D01*
X59080D01*
X60680Y93707D02*X59080Y95307D01*
X60680D02*Y93707D01*
X58440Y96075D02*X58120Y96395D01*
Y97035D02*Y96395D01*
Y97035D02*X58440Y97355D01*
X60680Y97035D02*X60360Y97355D01*
X60680Y97035D02*Y96395D01*
X60360Y96075D02*X60680Y96395D01*
X59272Y97035D02*Y96395D01*
X58440Y97355D02*X58952D01*
X59592D02*X60360D01*
X59592D02*X59272Y97035D01*
X58952Y97355D02*X59272Y97035D01*
X121260Y165929D02*Y162429D01*
X121760Y161929D01*
X122760D01*
X123260Y162429D01*
Y165929D02*Y162429D01*
X125960Y165929D02*X126460Y165429D01*
X124960Y165929D02*X125960D01*
X124460Y165429D02*X124960Y165929D01*
X124460Y165429D02*Y162429D01*
X124960Y161929D01*
X125960Y164129D02*X126460Y163629D01*
X124460Y164129D02*X125960D01*
X124960Y161929D02*X125960D01*
X126460Y162429D01*
Y163629D02*Y162429D01*
X53200Y163878D02*Y163046D01*
X52752Y162598D02*X53200Y163046D01*
X51088Y162598D02*X52752D01*
X51088D02*X50640Y163046D01*
Y163878D02*Y163046D01*
X52240Y164646D02*X50640Y165926D01*
X52240Y166246D02*Y164646D01*
X50640Y165926D02*X53200D01*
X52880Y167014D02*X53200Y167334D01*
X50960Y167014D02*X52880D01*
X50960D02*X50640Y167334D01*
Y167974D02*Y167334D01*
Y167974D02*X50960Y168294D01*
X52880D01*
X53200Y167974D02*X52880Y168294D01*
X53200Y167974D02*Y167334D01*
X52560Y167014D02*X51280Y168294D01*
X54577Y163485D02*Y162205D01*
Y163485D02*X54897Y163805D01*
X55537D01*
X55857Y163485D02*X55537Y163805D01*
X55857Y163485D02*Y162525D01*
X54577D02*X57137D01*
X55857Y163037D02*X57137Y163805D01*
X56177Y164573D02*X54577Y165853D01*
X56177Y166173D02*Y164573D01*
X54577Y165853D02*X57137D01*
X56817Y166941D02*X57137Y167261D01*
X54897Y166941D02*X56817D01*
X54897D02*X54577Y167261D01*
Y167901D02*Y167261D01*
Y167901D02*X54897Y168221D01*
X56817D01*
X57137Y167901D02*X56817Y168221D01*
X57137Y167901D02*Y167261D01*
X56497Y166941D02*X55217Y168221D01*
X64590Y233476D02*X67830D01*
X64590Y234529D02*X65157Y235096D01*
X67263D01*
X67830Y234529D02*X67263Y235096D01*
X67830Y234529D02*Y233071D01*
X64590Y234529D02*Y233071D01*
X65238Y236068D02*X64590Y236716D01*
X67830D01*
Y237283D02*Y236068D01*
X65238Y238255D02*X64590Y238903D01*
X67830D01*
Y239470D02*Y238255D01*
X61330Y132071D02*X62130D01*
Y128571D01*
X61630Y128071D02*X62130Y128571D01*
X61130Y128071D02*X61630D01*
X60630Y128571D02*X61130Y128071D01*
X60630Y129071D02*Y128571D01*
X63830Y128071D02*X65330Y130071D01*
Y131571D02*Y130071D01*
X64830Y132071D02*X65330Y131571D01*
X63830Y132071D02*X64830D01*
X63330Y131571D02*X63830Y132071D01*
X63330Y131571D02*Y130571D01*
X63830Y130071D01*
X65330D01*
X59755Y202937D02*X60555D01*
Y199437D01*
X60055Y198937D02*X60555Y199437D01*
X59555Y198937D02*X60055D01*
X59055Y199437D02*X59555Y198937D01*
X59055Y199937D02*Y199437D01*
X61755Y202137D02*X62555Y202937D01*
Y198937D01*
X61755D02*X63255D01*
X64455Y202437D02*X64955Y202937D01*
X65955D01*
X66455Y202437D01*
X65955Y198937D02*X66455Y199437D01*
X64955Y198937D02*X65955D01*
X64455Y199437D02*X64955Y198937D01*
Y201137D02*X65955D01*
X66455Y202437D02*Y201637D01*
Y200637D02*Y199437D01*
Y200637D02*X65955Y201137D01*
X66455Y201637D02*X65955Y201137D01*
X58514Y163485D02*Y162205D01*
Y163485D02*X58834Y163805D01*
X59474D01*
X59794Y163485D02*X59474Y163805D01*
X59794Y163485D02*Y162525D01*
X58514D02*X61074D01*
X59794Y163037D02*X61074Y163805D01*
X58834Y164573D02*X58514Y164893D01*
Y165533D02*Y164893D01*
Y165533D02*X58834Y165853D01*
X61074Y165533D02*X60754Y165853D01*
X61074Y165533D02*Y164893D01*
X60754Y164573D02*X61074Y164893D01*
X59666Y165533D02*Y164893D01*
X58834Y165853D02*X59346D01*
X59986D02*X60754D01*
X59986D02*X59666Y165533D01*
X59346Y165853D02*X59666Y165533D01*
X61074Y166941D02*X58514Y168221D01*
Y166621D01*
Y234745D02*Y233465D01*
Y234745D02*X58834Y235065D01*
X59474D01*
X59794Y234745D02*X59474Y235065D01*
X59794Y234745D02*Y233785D01*
X58514D02*X61074D01*
X59794Y234297D02*X61074Y235065D01*
X58834Y235833D02*X58514Y236153D01*
Y236793D02*Y236153D01*
Y236793D02*X58834Y237113D01*
X61074Y236793D02*X60754Y237113D01*
X61074Y236793D02*Y236153D01*
X60754Y235833D02*X61074Y236153D01*
X59666Y236793D02*Y236153D01*
X58834Y237113D02*X59346D01*
X59986D02*X60754D01*
X59986D02*X59666Y236793D01*
X59346Y237113D02*X59666Y236793D01*
X58514Y238841D02*X58834Y239161D01*
X58514Y238841D02*Y238201D01*
X58834Y237881D02*X58514Y238201D01*
X58834Y237881D02*X60754D01*
X61074Y238201D01*
X59666Y238841D02*X59986Y239161D01*
X59666Y238841D02*Y237881D01*
X61074Y238841D02*Y238201D01*
Y238841D02*X60754Y239161D01*
X59986D02*X60754D01*
X74460Y198918D02*Y198086D01*
X74012Y197638D02*X74460Y198086D01*
X72348Y197638D02*X74012D01*
X72348D02*X71900Y198086D01*
Y198918D02*Y198086D01*
X73500Y199686D02*X71900Y200966D01*
X73500Y201286D02*Y199686D01*
X71900Y200966D02*X74460D01*
Y202374D02*X71900Y203654D01*
Y202054D01*
X77772Y196169D02*X81772D01*
X77772Y197469D02*X78472Y198169D01*
X81072D01*
X81772Y197469D02*X81072Y198169D01*
X81772Y197469D02*Y195669D01*
X77772Y197469D02*Y195669D01*
Y201369D02*X78272Y201869D01*
X77772Y201369D02*Y199869D01*
X78272Y199369D02*X77772Y199869D01*
X78272Y199369D02*X79272D01*
X79772Y199869D01*
Y201369D02*Y199869D01*
Y201369D02*X80272Y201869D01*
X81272D01*
X81772Y201369D02*X81272Y201869D01*
X81772Y201369D02*Y199869D01*
X81272Y199369D02*X81772Y199869D01*
X81272Y203069D02*X81772Y203569D01*
X80472Y203069D02*X81272D01*
X80472D02*X79772Y203769D01*
Y204369D02*Y203769D01*
Y204369D02*X80472Y205069D01*
X81272D01*
X81772Y204569D02*X81272Y205069D01*
X81772Y204569D02*Y203569D01*
X79072Y203069D02*X79772Y203769D01*
X78272Y203069D02*X79072D01*
X78272D02*X77772Y203569D01*
Y204569D02*Y203569D01*
Y204569D02*X78272Y205069D01*
X79072D01*
X79772Y204369D02*X79072Y205069D01*
X77772Y125303D02*X81772D01*
X77772Y126603D02*X78472Y127303D01*
X81072D01*
X81772Y126603D02*X81072Y127303D01*
X81772Y126603D02*Y124803D01*
X77772Y126603D02*Y124803D01*
Y130503D02*X78272Y131003D01*
X77772Y130503D02*Y129003D01*
X78272Y128503D02*X77772Y129003D01*
X78272Y128503D02*X79272D01*
X79772Y129003D01*
Y130503D02*Y129003D01*
Y130503D02*X80272Y131003D01*
X81272D01*
X81772Y130503D02*X81272Y131003D01*
X81772Y130503D02*Y129003D01*
X81272Y128503D02*X81772Y129003D01*
X80272Y132203D02*X77772Y134203D01*
X80272Y134703D02*Y132203D01*
X77772Y134203D02*X81772D01*
X77772Y182315D02*Y180315D01*
Y182315D02*X78272Y182815D01*
X79272D01*
X79772Y182315D02*X79272Y182815D01*
X79772Y182315D02*Y180815D01*
X77772D02*X81772D01*
X79772Y181615D02*X81772Y182815D01*
X80272Y184015D02*X77772Y186015D01*
X80272Y186515D02*Y184015D01*
X77772Y186015D02*X81772D01*
X77772Y189215D02*X78272Y189715D01*
X77772Y189215D02*Y188215D01*
X78272Y187715D02*X77772Y188215D01*
X78272Y187715D02*X81272D01*
X81772Y188215D01*
X79572Y189215D02*X80072Y189715D01*
X79572Y189215D02*Y187715D01*
X81772Y189215D02*Y188215D01*
Y189215D02*X81272Y189715D01*
X80072D02*X81272D01*
X53200Y234745D02*Y233913D01*
X52752Y233465D02*X53200Y233913D01*
X51088Y233465D02*X52752D01*
X51088D02*X50640Y233913D01*
Y234745D02*Y233913D01*
X50960Y235513D02*X50640Y235833D01*
Y236473D02*Y235833D01*
Y236473D02*X50960Y236793D01*
X53200Y236473D02*X52880Y236793D01*
X53200Y236473D02*Y235833D01*
X52880Y235513D02*X53200Y235833D01*
X51792Y236473D02*Y235833D01*
X50960Y236793D02*X51472D01*
X52112D02*X52880D01*
X52112D02*X51792Y236473D01*
X51472Y236793D02*X51792Y236473D01*
X53200Y237881D02*X51920Y238841D01*
X50960D02*X51920D01*
X50640Y238521D02*X50960Y238841D01*
X50640Y238521D02*Y237881D01*
X50960Y237561D02*X50640Y237881D01*
X50960Y237561D02*X51600D01*
X51920Y237881D01*
Y238841D02*Y237881D01*
X54577Y234745D02*Y233465D01*
Y234745D02*X54897Y235065D01*
X55537D01*
X55857Y234745D02*X55537Y235065D01*
X55857Y234745D02*Y233785D01*
X54577D02*X57137D01*
X55857Y234297D02*X57137Y235065D01*
X54897Y235833D02*X54577Y236153D01*
Y236793D02*Y236153D01*
Y236793D02*X54897Y237113D01*
X57137Y236793D02*X56817Y237113D01*
X57137Y236793D02*Y236153D01*
X56817Y235833D02*X57137Y236153D01*
X55729Y236793D02*Y236153D01*
X54897Y237113D02*X55409D01*
X56049D02*X56817D01*
X56049D02*X55729Y236793D01*
X55409Y237113D02*X55729Y236793D01*
X57137Y238201D02*X55857Y239161D01*
X54897D02*X55857D01*
X54577Y238841D02*X54897Y239161D01*
X54577Y238841D02*Y238201D01*
X54897Y237881D02*X54577Y238201D01*
X54897Y237881D02*X55537D01*
X55857Y238201D01*
Y239161D02*Y238201D01*
X266962Y233087D02*X270242D01*
X266962Y234153D02*X267536Y234727D01*
X269668D01*
X270242Y234153D02*X269668Y234727D01*
X270242Y234153D02*Y232677D01*
X266962Y234153D02*Y232677D01*
X267618Y235711D02*X266962Y236367D01*
X270242D01*
Y236941D02*Y235711D01*
X269832Y237925D02*X270242Y238335D01*
X267372Y237925D02*X269832D01*
X267372D02*X266962Y238335D01*
Y239155D02*Y238335D01*
Y239155D02*X267372Y239565D01*
X269832D01*
X270242Y239155D02*X269832Y239565D01*
X270242Y239155D02*Y238335D01*
X269422Y237925D02*X267782Y239565D01*
X283909Y234745D02*Y233913D01*
X283461Y233465D02*X283909Y233913D01*
X281797Y233465D02*X283461D01*
X281797D02*X281349Y233913D01*
Y234745D02*Y233913D01*
X281669Y235513D02*X281349Y235833D01*
Y236473D02*Y235833D01*
Y236473D02*X281669Y236793D01*
X283909Y236473D02*X283589Y236793D01*
X283909Y236473D02*Y235833D01*
X283589Y235513D02*X283909Y235833D01*
X282501Y236473D02*Y235833D01*
X281669Y236793D02*X282181D01*
X282821D02*X283589D01*
X282821D02*X282501Y236473D01*
X282181Y236793D02*X282501Y236473D01*
X281349Y238841D02*Y237561D01*
X282629D01*
X282309Y237881D01*
Y238521D02*Y237881D01*
Y238521D02*X282629Y238841D01*
X283589D01*
X283909Y238521D02*X283589Y238841D01*
X283909Y238521D02*Y237881D01*
X283589Y237561D02*X283909Y237881D01*
X277412Y234351D02*Y233071D01*
Y234351D02*X277732Y234671D01*
X278372D01*
X278692Y234351D02*X278372Y234671D01*
X278692Y234351D02*Y233391D01*
X277412D02*X279972D01*
X278692Y233903D02*X279972Y234671D01*
X277732Y235439D02*X277412Y235759D01*
Y236399D02*Y235759D01*
Y236399D02*X277732Y236719D01*
X279972Y236399D02*X279652Y236719D01*
X279972Y236399D02*Y235759D01*
X279652Y235439D02*X279972Y235759D01*
X278564Y236399D02*Y235759D01*
X277732Y236719D02*X278244D01*
X278884D02*X279652D01*
X278884D02*X278564Y236399D01*
X278244Y236719D02*X278564Y236399D01*
X279012Y237487D02*X277412Y238767D01*
X279012Y239087D02*Y237487D01*
X277412Y238767D02*X279972D01*
X273475Y234351D02*Y233071D01*
Y234351D02*X273795Y234671D01*
X274435D01*
X274755Y234351D02*X274435Y234671D01*
X274755Y234351D02*Y233391D01*
X273475D02*X276035D01*
X274755Y233903D02*X276035Y234671D01*
X273795Y235439D02*X273475Y235759D01*
Y236399D02*Y235759D01*
Y236399D02*X273795Y236719D01*
X276035Y236399D02*X275715Y236719D01*
X276035Y236399D02*Y235759D01*
X275715Y235439D02*X276035Y235759D01*
X274627Y236399D02*Y235759D01*
X273795Y236719D02*X274307D01*
X274947D02*X275715D01*
X274947D02*X274627Y236399D01*
X274307Y236719D02*X274627Y236399D01*
X275715Y237487D02*X276035Y237807D01*
X273795Y237487D02*X275715D01*
X273795D02*X273475Y237807D01*
Y238447D02*Y237807D01*
Y238447D02*X273795Y238767D01*
X275715D01*
X276035Y238447D02*X275715Y238767D01*
X276035Y238447D02*Y237807D01*
X275395Y237487D02*X274115Y238767D01*
X262649Y199311D02*Y198479D01*
X262201Y198031D02*X262649Y198479D01*
X260537Y198031D02*X262201D01*
X260537D02*X260089Y198479D01*
Y199311D02*Y198479D01*
X260409Y200079D02*X260089Y200399D01*
Y201039D02*Y200399D01*
Y201039D02*X260409Y201359D01*
X262649Y201039D02*X262329Y201359D01*
X262649Y201039D02*Y200399D01*
X262329Y200079D02*X262649Y200399D01*
X261241Y201039D02*Y200399D01*
X260409Y201359D02*X260921D01*
X261561D02*X262329D01*
X261561D02*X261241Y201039D01*
X260921Y201359D02*X261241Y201039D01*
X262329Y202128D02*X262649Y202448D01*
X261817Y202128D02*X262329D01*
X261817D02*X261369Y202576D01*
Y202960D02*Y202576D01*
Y202960D02*X261817Y203408D01*
X262329D01*
X262649Y203088D02*X262329Y203408D01*
X262649Y203088D02*Y202448D01*
X260921Y202128D02*X261369Y202576D01*
X260409Y202128D02*X260921D01*
X260409D02*X260089Y202448D01*
Y203088D02*Y202448D01*
Y203088D02*X260409Y203408D01*
X260921D01*
X261369Y202960D02*X260921Y203408D01*
X252969Y211843D02*Y209843D01*
Y211843D02*X253469Y212343D01*
X254469D01*
X254969Y211843D02*X254469Y212343D01*
X254969Y211843D02*Y210343D01*
X252969D02*X256969D01*
X254969Y211143D02*X256969Y212343D01*
X253469Y213543D02*X252969Y214043D01*
Y215043D02*Y214043D01*
Y215043D02*X253469Y215543D01*
X256969Y215043D02*X256469Y215543D01*
X256969Y215043D02*Y214043D01*
X256469Y213543D02*X256969Y214043D01*
X254769Y215043D02*Y214043D01*
X253469Y215543D02*X254269D01*
X255269D02*X256469D01*
X255269D02*X254769Y215043D01*
X254269Y215543D02*X254769Y215043D01*
X252969Y218743D02*Y216743D01*
X254969D01*
X254469Y217243D01*
Y218243D02*Y217243D01*
Y218243D02*X254969Y218743D01*
X256469D01*
X256969Y218243D02*X256469Y218743D01*
X256969Y218243D02*Y217243D01*
X256469Y216743D02*X256969Y217243D01*
X268417Y202937D02*X269217D01*
Y199437D01*
X268717Y198937D02*X269217Y199437D01*
X268217Y198937D02*X268717D01*
X267717Y199437D02*X268217Y198937D01*
X267717Y199937D02*Y199437D01*
X270417Y202137D02*X271217Y202937D01*
Y198937D01*
X270417D02*X271917D01*
X273117Y199437D02*X273617Y198937D01*
X273117Y202437D02*Y199437D01*
Y202437D02*X273617Y202937D01*
X274617D01*
X275117Y202437D01*
Y199437D01*
X274617Y198937D02*X275117Y199437D01*
X273617Y198937D02*X274617D01*
X273117Y199937D02*X275117Y201937D01*
X252969Y196169D02*X256969D01*
X252969Y197469D02*X253669Y198169D01*
X256269D01*
X256969Y197469D02*X256269Y198169D01*
X256969Y197469D02*Y195669D01*
X252969Y197469D02*Y195669D01*
Y201369D02*X253469Y201869D01*
X252969Y201369D02*Y199869D01*
X253469Y199369D02*X252969Y199869D01*
X253469Y199369D02*X254469D01*
X254969Y199869D01*
Y201369D02*Y199869D01*
Y201369D02*X255469Y201869D01*
X256469D01*
X256969Y201369D02*X256469Y201869D01*
X256969Y201369D02*Y199869D01*
X256469Y199369D02*X256969Y199869D01*
X252969Y205069D02*Y203069D01*
X254969D01*
X254469Y203569D01*
Y204569D02*Y203569D01*
Y204569D02*X254969Y205069D01*
X256469D01*
X256969Y204569D02*X256469Y205069D01*
X256969Y204569D02*Y203569D01*
X256469Y203069D02*X256969Y203569D01*
X152019Y201280D02*Y200448D01*
X151571Y200000D02*X152019Y200448D01*
X149907Y200000D02*X151571D01*
X149907D02*X149459Y200448D01*
Y201280D02*Y200448D01*
X151059Y202048D02*X149459Y203328D01*
X151059Y203648D02*Y202048D01*
X149459Y203328D02*X152019D01*
X149779Y204416D02*X149459Y204736D01*
Y205376D02*Y204736D01*
Y205376D02*X149779Y205696D01*
X152019Y205376D02*X151699Y205696D01*
X152019Y205376D02*Y204736D01*
X151699Y204416D02*X152019Y204736D01*
X150611Y205376D02*Y204736D01*
X149779Y205696D02*X150291D01*
X150931D02*X151699D01*
X150931D02*X150611Y205376D01*
X150291Y205696D02*X150611Y205376D01*
X149657Y258367D02*Y257535D01*
X149209Y257087D02*X149657Y257535D01*
X147545Y257087D02*X149209D01*
X147545D02*X147097Y257535D01*
Y258367D02*Y257535D01*
X147609Y259135D02*X147097Y259647D01*
X149657D01*
Y260095D02*Y259135D01*
X147609Y260863D02*X147097Y261375D01*
X149657D01*
Y261823D02*Y260863D01*
X139223Y257579D02*Y256299D01*
Y257579D02*X139543Y257899D01*
X140183D01*
X140503Y257579D02*X140183Y257899D01*
X140503Y257579D02*Y256619D01*
X139223D02*X141783D01*
X140503Y257131D02*X141783Y257899D01*
X139735Y258667D02*X139223Y259179D01*
X141783D01*
Y259627D02*Y258667D01*
X139543Y260395D02*X139223Y260715D01*
Y261675D02*Y260715D01*
Y261675D02*X139543Y261995D01*
X140183D01*
X141783Y260395D02*X140183Y261995D01*
X141783D02*Y260395D01*
X143160Y258760D02*Y257480D01*
Y258760D02*X143480Y259080D01*
X144120D01*
X144440Y258760D02*X144120Y259080D01*
X144440Y258760D02*Y257800D01*
X143160D02*X145720D01*
X144440Y258312D02*X145720Y259080D01*
Y260168D02*X144440Y261128D01*
X143480D02*X144440D01*
X143160Y260808D02*X143480Y261128D01*
X143160Y260808D02*Y260168D01*
X143480Y259848D02*X143160Y260168D01*
X143480Y259848D02*X144120D01*
X144440Y260168D01*
Y261128D02*Y260168D01*
X141614Y269323D02*Y268023D01*
X140914Y267323D02*X141614Y268023D01*
X138314Y267323D02*X140914D01*
X138314D02*X137614Y268023D01*
Y269323D02*Y268023D01*
X141614Y271023D02*X139614Y272523D01*
X138114D02*X139614D01*
X137614Y272023D02*X138114Y272523D01*
X137614Y272023D02*Y271023D01*
X138114Y270523D02*X137614Y271023D01*
X138114Y270523D02*X139114D01*
X139614Y271023D01*
Y272523D02*Y271023D01*
X150276Y267748D02*Y266448D01*
X149576Y265748D02*X150276Y266448D01*
X146976Y265748D02*X149576D01*
X146976D02*X146276Y266448D01*
Y267748D02*Y266448D01*
X147076Y268948D02*X146276Y269748D01*
X150276D01*
Y270448D02*Y268948D01*
X149776Y271648D02*X150276Y272148D01*
X146776Y271648D02*X149776D01*
X146776D02*X146276Y272148D01*
Y273148D02*Y272148D01*
Y273148D02*X146776Y273648D01*
X149776D01*
X150276Y273148D02*X149776Y273648D01*
X150276Y273148D02*Y272148D01*
X149276Y271648D02*X147276Y273648D01*
X161724Y268228D02*X163024D01*
X161024Y268928D02*X161724Y268228D01*
X161024Y271528D02*Y268928D01*
Y271528D02*X161724Y272228D01*
X163024D01*
X164224D02*X166224D01*
X164224D02*Y270228D01*
X164724Y270728D01*
X165724D01*
X166224Y270228D01*
Y268728D01*
X165724Y268228D02*X166224Y268728D01*
X164724Y268228D02*X165724D01*
X164224Y268728D02*X164724Y268228D01*
X167424Y271728D02*X167924Y272228D01*
X168924D01*
X169424Y271728D01*
X168924Y268228D02*X169424Y268728D01*
X167924Y268228D02*X168924D01*
X167424Y268728D02*X167924Y268228D01*
Y270428D02*X168924D01*
X169424Y271728D02*Y270928D01*
Y269928D02*Y268728D01*
Y269928D02*X168924Y270428D01*
X169424Y270928D02*X168924Y270428D01*
X200246Y263878D02*Y262598D01*
Y263878D02*X200566Y264198D01*
X201206D01*
X201526Y263878D02*X201206Y264198D01*
X201526Y263878D02*Y262918D01*
X200246D02*X202806D01*
X201526Y263430D02*X202806Y264198D01*
X200246Y265926D02*X200566Y266246D01*
X200246Y265926D02*Y265286D01*
X200566Y264966D02*X200246Y265286D01*
X200566Y264966D02*X202486D01*
X202806Y265286D01*
X201398Y265926D02*X201718Y266246D01*
X201398Y265926D02*Y264966D01*
X202806Y265926D02*Y265286D01*
Y265926D02*X202486Y266246D01*
X201718D02*X202486D01*
X200566Y267014D02*X200246Y267334D01*
Y267974D02*Y267334D01*
Y267974D02*X200566Y268294D01*
X202806Y267974D02*X202486Y268294D01*
X202806Y267974D02*Y267334D01*
X202486Y267014D02*X202806Y267334D01*
X201398Y267974D02*Y267334D01*
X200566Y268294D02*X201078D01*
X201718D02*X202486D01*
X201718D02*X201398Y267974D01*
X201078Y268294D02*X201398Y267974D01*
X172098Y258760D02*Y257928D01*
X171650Y257480D02*X172098Y257928D01*
X169986Y257480D02*X171650D01*
X169986D02*X169538Y257928D01*
Y258760D02*Y257928D01*
Y260488D02*X169858Y260808D01*
X169538Y260488D02*Y259848D01*
X169858Y259528D02*X169538Y259848D01*
X169858Y259528D02*X171778D01*
X172098Y259848D01*
X170690Y260488D02*X171010Y260808D01*
X170690Y260488D02*Y259528D01*
X172098Y260488D02*Y259848D01*
Y260488D02*X171778Y260808D01*
X171010D02*X171778D01*
X170050Y261576D02*X169538Y262088D01*
X172098D01*
Y262536D02*Y261576D01*
X202806Y256398D02*Y255566D01*
X202358Y255118D02*X202806Y255566D01*
X200694Y255118D02*X202358D01*
X200694D02*X200246Y255566D01*
Y256398D02*Y255566D01*
Y258126D02*X200566Y258446D01*
X200246Y258126D02*Y257486D01*
X200566Y257166D02*X200246Y257486D01*
X200566Y257166D02*X202486D01*
X202806Y257486D01*
X201398Y258126D02*X201718Y258446D01*
X201398Y258126D02*Y257166D01*
X202806Y258126D02*Y257486D01*
Y258126D02*X202486Y258446D01*
X201718D02*X202486D01*
Y259214D02*X202806Y259534D01*
X200566Y259214D02*X202486D01*
X200566D02*X200246Y259534D01*
Y260174D02*Y259534D01*
Y260174D02*X200566Y260494D01*
X202486D01*
X202806Y260174D02*X202486Y260494D01*
X202806Y260174D02*Y259534D01*
X202166Y259214D02*X200886Y260494D01*
X183858Y265142D02*X184858Y263142D01*
X185858Y265142D01*
X184858Y263142D02*Y261142D01*
X187058Y264342D02*X187858Y265142D01*
Y261142D01*
X187058D02*X188558D01*
X204183Y257973D02*Y256693D01*
Y257973D02*X204503Y258293D01*
X205143D01*
X205463Y257973D02*X205143Y258293D01*
X205463Y257973D02*Y257013D01*
X204183D02*X206743D01*
X205463Y257525D02*X206743Y258293D01*
X205783Y259061D02*X204183Y260341D01*
X205783Y260661D02*Y259061D01*
X204183Y260341D02*X206743D01*
X205783Y261429D02*X204183Y262709D01*
X205783Y263029D02*Y261429D01*
X204183Y262709D02*X206743D01*
X216054Y189882D02*X217354D01*
X215354Y190582D02*X216054Y189882D01*
X215354Y193182D02*Y190582D01*
Y193182D02*X216054Y193882D01*
X217354D01*
X218554Y193382D02*X219054Y193882D01*
X220054D01*
X220554Y193382D01*
X220054Y189882D02*X220554Y190382D01*
X219054Y189882D02*X220054D01*
X218554Y190382D02*X219054Y189882D01*
Y192082D02*X220054D01*
X220554Y193382D02*Y192582D01*
Y191582D02*Y190382D01*
Y191582D02*X220054Y192082D01*
X220554Y192582D02*X220054Y192082D01*
X223254Y193882D02*X223754Y193382D01*
X222254Y193882D02*X223254D01*
X221754Y193382D02*X222254Y193882D01*
X221754Y193382D02*Y190382D01*
X222254Y189882D01*
X223254Y192082D02*X223754Y191582D01*
X221754Y192082D02*X223254D01*
X222254Y189882D02*X223254D01*
X223754Y190382D01*
Y191582D02*Y190382D01*
X216054Y135157D02*X217354D01*
X215354Y135857D02*X216054Y135157D01*
X215354Y138457D02*Y135857D01*
Y138457D02*X216054Y139157D01*
X217354D01*
X218554Y138657D02*X219054Y139157D01*
X220554D01*
X221054Y138657D01*
Y137657D01*
X218554Y135157D02*X221054Y137657D01*
X218554Y135157D02*X221054D01*
X223754Y139157D02*X224254Y138657D01*
X222754Y139157D02*X223754D01*
X222254Y138657D02*X222754Y139157D01*
X222254Y138657D02*Y135657D01*
X222754Y135157D01*
X223754Y137357D02*X224254Y136857D01*
X222254Y137357D02*X223754D01*
X222754Y135157D02*X223754D01*
X224254Y135657D01*
Y136857D02*Y135657D01*
X208268Y165142D02*Y161642D01*
X208768Y161142D01*
X209768D01*
X210268Y161642D01*
Y165142D02*Y161642D01*
X211468Y165142D02*X213468D01*
X211468D02*Y163142D01*
X211968Y163642D01*
X212968D01*
X213468Y163142D01*
Y161642D01*
X212968Y161142D02*X213468Y161642D01*
X211968Y161142D02*X212968D01*
X211468Y161642D02*X211968Y161142D01*
X225109Y68685D02*X225909D01*
Y65185D01*
X225409Y64685D02*X225909Y65185D01*
X224909Y64685D02*X225409D01*
X224409Y65185D02*X224909Y64685D01*
X224409Y65685D02*Y65185D01*
X227109Y68185D02*X227609Y68685D01*
X229109D01*
X229609Y68185D01*
Y67185D01*
X227109Y64685D02*X229609Y67185D01*
X227109Y64685D02*X229609D01*
X269204Y67047D02*X270504D01*
X268504Y67747D02*X269204Y67047D01*
X268504Y70347D02*Y67747D01*
Y70347D02*X269204Y71047D01*
X270504D01*
X271704Y70547D02*X272204Y71047D01*
X273704D01*
X274204Y70547D01*
Y69547D01*
X271704Y67047D02*X274204Y69547D01*
X271704Y67047D02*X274204D01*
X266962Y163402D02*X270242D01*
X266962Y164468D02*X267536Y165042D01*
X269668D01*
X270242Y164468D02*X269668Y165042D01*
X270242Y164468D02*Y162992D01*
X266962Y164468D02*Y162992D01*
X270242Y166436D02*X268602Y167666D01*
X267372D02*X268602D01*
X266962Y167256D02*X267372Y167666D01*
X266962Y167256D02*Y166436D01*
X267372Y166026D02*X266962Y166436D01*
X267372Y166026D02*X268192D01*
X268602Y166436D01*
Y167666D02*Y166436D01*
X283909Y163878D02*Y163046D01*
X283461Y162598D02*X283909Y163046D01*
X281797Y162598D02*X283461D01*
X281797D02*X281349Y163046D01*
Y163878D02*Y163046D01*
X281669Y164646D02*X281349Y164966D01*
Y165606D02*Y164966D01*
Y165606D02*X281669Y165926D01*
X283909Y165606D02*X283589Y165926D01*
X283909Y165606D02*Y164966D01*
X283589Y164646D02*X283909Y164966D01*
X282501Y165606D02*Y164966D01*
X281669Y165926D02*X282181D01*
X282821D02*X283589D01*
X282821D02*X282501Y165606D01*
X282181Y165926D02*X282501Y165606D01*
X282949Y166694D02*X281349Y167974D01*
X282949Y168294D02*Y166694D01*
X281349Y167974D02*X283909D01*
X277412Y163485D02*Y162205D01*
Y163485D02*X277732Y163805D01*
X278372D01*
X278692Y163485D02*X278372Y163805D01*
X278692Y163485D02*Y162525D01*
X277412D02*X279972D01*
X278692Y163037D02*X279972Y163805D01*
X277732Y164573D02*X277412Y164893D01*
Y165533D02*Y164893D01*
Y165533D02*X277732Y165853D01*
X279972Y165533D02*X279652Y165853D01*
X279972Y165533D02*Y164893D01*
X279652Y164573D02*X279972Y164893D01*
X278564Y165533D02*Y164893D01*
X277732Y165853D02*X278244D01*
X278884D02*X279652D01*
X278884D02*X278564Y165533D01*
X278244Y165853D02*X278564Y165533D01*
X277732Y166621D02*X277412Y166941D01*
Y167581D02*Y166941D01*
Y167581D02*X277732Y167901D01*
X279972Y167581D02*X279652Y167901D01*
X279972Y167581D02*Y166941D01*
X279652Y166621D02*X279972Y166941D01*
X278564Y167581D02*Y166941D01*
X277732Y167901D02*X278244D01*
X278884D02*X279652D01*
X278884D02*X278564Y167581D01*
X278244Y167901D02*X278564Y167581D01*
X273475Y163485D02*Y162205D01*
Y163485D02*X273795Y163805D01*
X274435D01*
X274755Y163485D02*X274435Y163805D01*
X274755Y163485D02*Y162525D01*
X273475D02*X276035D01*
X274755Y163037D02*X276035Y163805D01*
X273795Y164573D02*X273475Y164893D01*
Y165853D02*Y164893D01*
Y165853D02*X273795Y166173D01*
X274435D01*
X276035Y164573D02*X274435Y166173D01*
X276035D02*Y164573D01*
Y167261D02*X274755Y168221D01*
X273795D02*X274755D01*
X273475Y167901D02*X273795Y168221D01*
X273475Y167901D02*Y167261D01*
X273795Y166941D02*X273475Y167261D01*
X273795Y166941D02*X274435D01*
X274755Y167261D01*
Y168221D02*Y167261D01*
X270489Y98393D02*Y95113D01*
X271555Y98393D02*X272129Y97819D01*
Y95687D01*
X271555Y95113D02*X272129Y95687D01*
X270079Y95113D02*X271555D01*
X270079Y98393D02*X271555D01*
X273523Y95113D02*X275163Y98393D01*
X273113D02*X275163D01*
X262649Y128445D02*Y127613D01*
X262201Y127165D02*X262649Y127613D01*
X260537Y127165D02*X262201D01*
X260537D02*X260089Y127613D01*
Y128445D02*Y127613D01*
X260409Y129213D02*X260089Y129533D01*
Y130493D02*Y129533D01*
Y130493D02*X260409Y130813D01*
X261049D01*
X262649Y129213D02*X261049Y130813D01*
X262649D02*Y129213D01*
X262329Y131581D02*X262649Y131901D01*
X261817Y131581D02*X262329D01*
X261817D02*X261369Y132029D01*
Y132413D02*Y132029D01*
Y132413D02*X261817Y132861D01*
X262329D01*
X262649Y132541D02*X262329Y132861D01*
X262649Y132541D02*Y131901D01*
X260921Y131581D02*X261369Y132029D01*
X260409Y131581D02*X260921D01*
X260409D02*X260089Y131901D01*
Y132541D02*Y131901D01*
Y132541D02*X260409Y132861D01*
X260921D01*
X261369Y132413D02*X260921Y132861D01*
X252969Y140976D02*Y138976D01*
Y140976D02*X253469Y141476D01*
X254469D01*
X254969Y140976D02*X254469Y141476D01*
X254969Y140976D02*Y139476D01*
X252969D02*X256969D01*
X254969Y140276D02*X256969Y141476D01*
X253469Y142676D02*X252969Y143176D01*
Y144676D02*Y143176D01*
Y144676D02*X253469Y145176D01*
X254469D01*
X256969Y142676D02*X254469Y145176D01*
X256969D02*Y142676D01*
X253769Y146376D02*X252969Y147176D01*
X256969D01*
Y147876D02*Y146376D01*
X269991Y132071D02*X270791D01*
Y128571D01*
X270291Y128071D02*X270791Y128571D01*
X269791Y128071D02*X270291D01*
X269291Y128571D02*X269791Y128071D01*
X269291Y129071D02*Y128571D01*
X271991D02*X272491Y128071D01*
X271991Y129371D02*Y128571D01*
Y129371D02*X272691Y130071D01*
X273291D01*
X273991Y129371D01*
Y128571D01*
X273491Y128071D02*X273991Y128571D01*
X272491Y128071D02*X273491D01*
X271991Y130771D02*X272691Y130071D01*
X271991Y131571D02*Y130771D01*
Y131571D02*X272491Y132071D01*
X273491D01*
X273991Y131571D01*
Y130771D01*
X273291Y130071D02*X273991Y130771D01*
X252969Y125303D02*X256969D01*
X252969Y126603D02*X253669Y127303D01*
X256269D01*
X256969Y126603D02*X256269Y127303D01*
X256969Y126603D02*Y124803D01*
X252969Y126603D02*Y124803D01*
Y130503D02*X253469Y131003D01*
X252969Y130503D02*Y129003D01*
X253469Y128503D02*X252969Y129003D01*
X253469Y128503D02*X254469D01*
X254969Y129003D01*
Y130503D02*Y129003D01*
Y130503D02*X255469Y131003D01*
X256469D01*
X256969Y130503D02*X256469Y131003D01*
X256969Y130503D02*Y129003D01*
X256469Y128503D02*X256969Y129003D01*
X253469Y132203D02*X252969Y132703D01*
Y133703D02*Y132703D01*
Y133703D02*X253469Y134203D01*
X256969Y133703D02*X256469Y134203D01*
X256969Y133703D02*Y132703D01*
X256469Y132203D02*X256969Y132703D01*
X254769Y133703D02*Y132703D01*
X253469Y134203D02*X254269D01*
X255269D02*X256469D01*
X255269D02*X254769Y133703D01*
X254269Y134203D02*X254769Y133703D01*
X278740Y98966D02*X280020D01*
X280340Y98646D01*
Y98006D01*
X280020Y97686D02*X280340Y98006D01*
X279060Y97686D02*X280020D01*
X279060Y98966D02*Y96406D01*
X279572Y97686D02*X280340Y96406D01*
X281108Y98646D02*X281428Y98966D01*
X282388D01*
X282708Y98646D01*
Y98006D01*
X281108Y96406D02*X282708Y98006D01*
X281108Y96406D02*X282708D01*
X283476Y98646D02*X283796Y98966D01*
X284756D01*
X285076Y98646D01*
Y98006D01*
X283476Y96406D02*X285076Y98006D01*
X283476Y96406D02*X285076D01*
X292964Y94193D02*Y93361D01*
X292516Y92913D02*X292964Y93361D01*
X290852Y92913D02*X292516D01*
X290852D02*X290404Y93361D01*
Y94193D02*Y93361D01*
X290724Y94961D02*X290404Y95281D01*
Y96241D02*Y95281D01*
Y96241D02*X290724Y96561D01*
X291364D01*
X292964Y94961D02*X291364Y96561D01*
X292964D02*Y94961D01*
Y97649D02*X291684Y98609D01*
X290724D02*X291684D01*
X290404Y98289D02*X290724Y98609D01*
X290404Y98289D02*Y97649D01*
X290724Y97329D02*X290404Y97649D01*
X290724Y97329D02*X291364D01*
X291684Y97649D01*
Y98609D02*Y97649D01*
X286467Y94193D02*Y92913D01*
Y94193D02*X286787Y94513D01*
X287427D01*
X287747Y94193D02*X287427Y94513D01*
X287747Y94193D02*Y93233D01*
X286467D02*X289027D01*
X287747Y93745D02*X289027Y94513D01*
X286787Y95281D02*X286467Y95601D01*
Y96561D02*Y95601D01*
Y96561D02*X286787Y96881D01*
X287427D01*
X289027Y95281D02*X287427Y96881D01*
X289027D02*Y95281D01*
X286467Y98609D02*X286787Y98929D01*
X286467Y98609D02*Y97969D01*
X286787Y97649D02*X286467Y97969D01*
X286787Y97649D02*X288707D01*
X289027Y97969D01*
X287619Y98609D02*X287939Y98929D01*
X287619Y98609D02*Y97649D01*
X289027Y98609D02*Y97969D01*
Y98609D02*X288707Y98929D01*
X287939D02*X288707D01*
X209109Y246013D02*X209941D01*
X208661Y246461D02*X209109Y246013D01*
X208661Y248125D02*Y246461D01*
Y248125D02*X209109Y248573D01*
X209941D01*
X210709Y246973D02*X211989Y248573D01*
X210709Y246973D02*X212309D01*
X211989Y248573D02*Y246013D01*
X214037Y248573D02*X214357Y248253D01*
X213397Y248573D02*X214037D01*
X213077Y248253D02*X213397Y248573D01*
X213077Y248253D02*Y246333D01*
X213397Y246013D01*
X214037Y247421D02*X214357Y247101D01*
X213077Y247421D02*X214037D01*
X213397Y246013D02*X214037D01*
X214357Y246333D01*
Y247101D02*Y246333D01*
X208268Y252510D02*X209548D01*
X209868Y252190D01*
Y251550D01*
X209548Y251230D02*X209868Y251550D01*
X208588Y251230D02*X209548D01*
X208588Y252510D02*Y249950D01*
X209100Y251230D02*X209868Y249950D01*
X210636Y250910D02*X211916Y252510D01*
X210636Y250910D02*X212236D01*
X211916Y252510D02*Y249950D01*
X213004Y252190D02*X213324Y252510D01*
X213964D01*
X214284Y252190D01*
X213964Y249950D02*X214284Y250270D01*
X213324Y249950D02*X213964D01*
X213004Y250270D02*X213324Y249950D01*
Y251358D02*X213964D01*
X214284Y252190D02*Y251678D01*
Y251038D02*Y250270D01*
Y251038D02*X213964Y251358D01*
X214284Y251678D02*X213964Y251358D01*
X204183Y247343D02*Y246063D01*
Y247343D02*X204503Y247663D01*
X205143D01*
X205463Y247343D02*X205143Y247663D01*
X205463Y247343D02*Y246383D01*
X204183D02*X206743D01*
X205463Y246895D02*X206743Y247663D01*
X205783Y248431D02*X204183Y249711D01*
X205783Y250031D02*Y248431D01*
X204183Y249711D02*X206743D01*
X204183Y252079D02*Y250799D01*
X205463D01*
X205143Y251119D01*
Y251759D02*Y251119D01*
Y251759D02*X205463Y252079D01*
X206423D01*
X206743Y251759D02*X206423Y252079D01*
X206743Y251759D02*Y251119D01*
X206423Y250799D02*X206743Y251119D01*
X207874Y221047D02*Y217547D01*
X208374Y217047D01*
X209374D01*
X209874Y217547D01*
Y221047D02*Y217547D01*
X211574Y217047D02*X213574Y221047D01*
X211074D02*X213574D01*
X213386Y271801D02*Y269241D01*
X214666D01*
X215434Y271481D02*X215754Y271801D01*
X216394D01*
X216714Y271481D01*
X216394Y269241D02*X216714Y269561D01*
X215754Y269241D02*X216394D01*
X215434Y269561D02*X215754Y269241D01*
Y270649D02*X216394D01*
X216714Y271481D02*Y270969D01*
Y270329D02*Y269561D01*
Y270329D02*X216394Y270649D01*
X216714Y270969D02*X216394Y270649D01*
X205172Y265304D02*X206004D01*
X204724Y265752D02*X205172Y265304D01*
X204724Y267416D02*Y265752D01*
Y267416D02*X205172Y267864D01*
X206004D01*
X206772D02*X208052D01*
X206772D02*Y266584D01*
X207092Y266904D01*
X207732D01*
X208052Y266584D01*
Y265624D01*
X207732Y265304D02*X208052Y265624D01*
X207092Y265304D02*X207732D01*
X206772Y265624D02*X207092Y265304D01*
X208820Y267864D02*X210100D01*
X208820D02*Y266584D01*
X209140Y266904D01*
X209780D01*
X210100Y266584D01*
Y265624D01*
X209780Y265304D02*X210100Y265624D01*
X209140Y265304D02*X209780D01*
X208820Y265624D02*X209140Y265304D01*
X205172Y269241D02*X206004D01*
X204724Y269689D02*X205172Y269241D01*
X204724Y271353D02*Y269689D01*
Y271353D02*X205172Y271801D01*
X206004D01*
X206772D02*X208052D01*
X206772D02*Y270521D01*
X207092Y270841D01*
X207732D01*
X208052Y270521D01*
Y269561D01*
X207732Y269241D02*X208052Y269561D01*
X207092Y269241D02*X207732D01*
X206772Y269561D02*X207092Y269241D01*
X208820Y270201D02*X210100Y271801D01*
X208820Y270201D02*X210420D01*
X210100Y271801D02*Y269241D01*
X209109Y260580D02*X209941D01*
X208661Y261028D02*X209109Y260580D01*
X208661Y262692D02*Y261028D01*
Y262692D02*X209109Y263140D01*
X209941D01*
X210709Y261540D02*X211989Y263140D01*
X210709Y261540D02*X212309D01*
X211989Y263140D02*Y260580D01*
X213077Y263140D02*X214357D01*
X213077D02*Y261860D01*
X213397Y262180D01*
X214037D01*
X214357Y261860D01*
Y260900D01*
X214037Y260580D02*X214357Y260900D01*
X213397Y260580D02*X214037D01*
X213077Y260900D02*X213397Y260580D01*
X208268Y259203D02*X209548D01*
X209868Y258883D01*
Y258243D01*
X209548Y257923D02*X209868Y258243D01*
X208588Y257923D02*X209548D01*
X208588Y259203D02*Y256643D01*
X209100Y257923D02*X209868Y256643D01*
X210636Y257603D02*X211916Y259203D01*
X210636Y257603D02*X212236D01*
X211916Y259203D02*Y256643D01*
X213004Y258883D02*X213324Y259203D01*
X214284D01*
X214604Y258883D01*
Y258243D01*
X213004Y256643D02*X214604Y258243D01*
X213004Y256643D02*X214604D01*
X43807Y351362D02*Y347362D01*
X45107Y351362D02*X45807Y350662D01*
Y348062D01*
X45107Y347362D02*X45807Y348062D01*
X43307Y347362D02*X45107D01*
X43307Y351362D02*X45107D01*
X47007Y350862D02*X47507Y351362D01*
X48507D01*
X49007Y350862D01*
X48507Y347362D02*X49007Y347862D01*
X47507Y347362D02*X48507D01*
X47007Y347862D02*X47507Y347362D01*
Y349562D02*X48507D01*
X49007Y350862D02*Y350062D01*
Y349062D02*Y347862D01*
Y349062D02*X48507Y349562D01*
X49007Y350062D02*X48507Y349562D01*
X52181Y318898D02*X56181D01*
X52181Y320898D02*Y318898D01*
X53981Y320398D02*Y318898D01*
X54681Y322098D02*X52181Y324098D01*
X54681Y324598D02*Y322098D01*
X52181Y324098D02*X56181D01*
X77378Y253575D02*Y251575D01*
Y253575D02*X77878Y254075D01*
X78878D01*
X79378Y253575D02*X78878Y254075D01*
X79378Y253575D02*Y252075D01*
X77378D02*X81378D01*
X79378Y252875D02*X81378Y254075D01*
X79878Y255275D02*X77378Y257275D01*
X79878Y257775D02*Y255275D01*
X77378Y257275D02*X81378D01*
X78178Y258975D02*X77378Y259775D01*
X81378D01*
Y260475D02*Y258975D01*
X59755Y273803D02*X60555D01*
Y270303D01*
X60055Y269803D02*X60555Y270303D01*
X59555Y269803D02*X60055D01*
X59055Y270303D02*X59555Y269803D01*
X59055Y270803D02*Y270303D01*
X61755Y273003D02*X62555Y273803D01*
Y269803D01*
X61755D02*X63255D01*
X64455Y273303D02*X64955Y273803D01*
X66455D01*
X66955Y273303D01*
Y272303D01*
X64455Y269803D02*X66955Y272303D01*
X64455Y269803D02*X66955D01*
X72047Y310777D02*X73327D01*
X73647Y310457D01*
Y309817D01*
X73327Y309497D02*X73647Y309817D01*
X72367Y309497D02*X73327D01*
X72367Y310777D02*Y308217D01*
X72879Y309497D02*X73647Y308217D01*
X74735D02*X76015Y310777D01*
X74415D02*X76015D01*
X76783Y310265D02*X77295Y310777D01*
Y308217D01*
X76783D02*X77743D01*
X72047Y306840D02*X73327D01*
X73647Y306520D01*
Y305880D01*
X73327Y305560D02*X73647Y305880D01*
X72367Y305560D02*X73327D01*
X72367Y306840D02*Y304280D01*
X72879Y305560D02*X73647Y304280D01*
X75375Y306840D02*X75695Y306520D01*
X74735Y306840D02*X75375D01*
X74415Y306520D02*X74735Y306840D01*
X74415Y306520D02*Y304600D01*
X74735Y304280D01*
X75375Y305688D02*X75695Y305368D01*
X74415Y305688D02*X75375D01*
X74735Y304280D02*X75375D01*
X75695Y304600D01*
Y305368D02*Y304600D01*
X77423Y306840D02*X77743Y306520D01*
X76783Y306840D02*X77423D01*
X76463Y306520D02*X76783Y306840D01*
X76463Y306520D02*Y304600D01*
X76783Y304280D01*
X77423Y305688D02*X77743Y305368D01*
X76463Y305688D02*X77423D01*
X76783Y304280D02*X77423D01*
X77743Y304600D01*
Y305368D02*Y304600D01*
X72047Y302903D02*X73327D01*
X73647Y302583D01*
Y301943D01*
X73327Y301623D02*X73647Y301943D01*
X72367Y301623D02*X73327D01*
X72367Y302903D02*Y300343D01*
X72879Y301623D02*X73647Y300343D01*
X74735D02*X76015Y302903D01*
X74415D02*X76015D01*
X76783Y300663D02*X77103Y300343D01*
X76783Y302583D02*Y300663D01*
Y302583D02*X77103Y302903D01*
X77743D01*
X78063Y302583D01*
Y300663D01*
X77743Y300343D02*X78063Y300663D01*
X77103Y300343D02*X77743D01*
X76783Y300983D02*X78063Y302263D01*
X72047Y298966D02*X73327D01*
X73647Y298646D01*
Y298006D01*
X73327Y297686D02*X73647Y298006D01*
X72367Y297686D02*X73327D01*
X72367Y298966D02*Y296406D01*
X72879Y297686D02*X73647Y296406D01*
X75375Y298966D02*X75695Y298646D01*
X74735Y298966D02*X75375D01*
X74415Y298646D02*X74735Y298966D01*
X74415Y298646D02*Y296726D01*
X74735Y296406D01*
X75375Y297814D02*X75695Y297494D01*
X74415Y297814D02*X75375D01*
X74735Y296406D02*X75375D01*
X75695Y296726D01*
Y297494D02*Y296726D01*
X76783Y296406D02*X77743Y297686D01*
Y298646D02*Y297686D01*
X77423Y298966D02*X77743Y298646D01*
X76783Y298966D02*X77423D01*
X76463Y298646D02*X76783Y298966D01*
X76463Y298646D02*Y298006D01*
X76783Y297686D01*
X77743D01*
X133317Y301280D02*Y300000D01*
Y301280D02*X133637Y301600D01*
X134277D01*
X134597Y301280D02*X134277Y301600D01*
X134597Y301280D02*Y300320D01*
X133317D02*X135877D01*
X134597Y300832D02*X135877Y301600D01*
X133829Y302368D02*X133317Y302880D01*
X135877D01*
Y303328D02*Y302368D01*
X133317Y305376D02*Y304096D01*
X134597D01*
X134277Y304416D01*
Y305056D02*Y304416D01*
Y305056D02*X134597Y305376D01*
X135557D01*
X135877Y305056D02*X135557Y305376D01*
X135877Y305056D02*Y304416D01*
X135557Y304096D02*X135877Y304416D01*
X125787Y278134D02*Y274134D01*
X127787D01*
X128987Y277334D02*X129787Y278134D01*
Y274134D01*
X128987D02*X130487D01*
X133611Y293600D02*Y292520D01*
Y293600D02*X133881Y293870D01*
X134421D01*
X134691Y293600D02*X134421Y293870D01*
X134691Y293600D02*Y292790D01*
X133611D02*X135771D01*
X134691Y293222D02*X135771Y293870D01*
Y294788D02*X133611Y295868D01*
Y294518D01*
Y297596D02*Y296516D01*
X134691D01*
X134421Y296786D01*
Y297326D02*Y296786D01*
Y297326D02*X134691Y297596D01*
X135501D01*
X135771Y297326D02*X135501Y297596D01*
X135771Y297326D02*Y296786D01*
X135501Y296516D02*X135771Y296786D01*
X137283Y326803D02*Y325503D01*
X136583Y324803D02*X137283Y325503D01*
X133983Y324803D02*X136583D01*
X133983D02*X133283Y325503D01*
Y326803D02*Y325503D01*
X134083Y328003D02*X133283Y328803D01*
X137283D01*
Y329503D02*Y328003D01*
X136783Y330703D02*X137283Y331203D01*
X135983Y330703D02*X136783D01*
X135983D02*X135283Y331403D01*
Y332003D02*Y331403D01*
Y332003D02*X135983Y332703D01*
X136783D01*
X137283Y332203D02*X136783Y332703D01*
X137283Y332203D02*Y331203D01*
X134583Y330703D02*X135283Y331403D01*
X133783Y330703D02*X134583D01*
X133783D02*X133283Y331203D01*
Y332203D02*Y331203D01*
Y332203D02*X133783Y332703D01*
X134583D01*
X135283Y332003D02*X134583Y332703D01*
X125409Y341051D02*X129409D01*
X125409Y342351D02*X126109Y343051D01*
X128709D01*
X129409Y342351D02*X128709Y343051D01*
X129409Y342351D02*Y340551D01*
X125409Y342351D02*Y340551D01*
Y346251D02*X125909Y346751D01*
X125409Y346251D02*Y344751D01*
X125909Y344251D02*X125409Y344751D01*
X125909Y344251D02*X126909D01*
X127409Y344751D01*
Y346251D02*Y344751D01*
Y346251D02*X127909Y346751D01*
X128909D01*
X129409Y346251D02*X128909Y346751D01*
X129409Y346251D02*Y344751D01*
X128909Y344251D02*X129409Y344751D01*
X125909Y347951D02*X125409Y348451D01*
Y349951D02*Y348451D01*
Y349951D02*X125909Y350451D01*
X126909D01*
X129409Y347951D02*X126909Y350451D01*
X129409D02*Y347951D01*
X131742Y346949D02*Y345669D01*
Y346949D02*X132062Y347269D01*
X132702D01*
X133022Y346949D02*X132702Y347269D01*
X133022Y346949D02*Y345989D01*
X131742D02*X134302D01*
X133022Y346501D02*X134302Y347269D01*
X132254Y348037D02*X131742Y348549D01*
X134302D01*
Y348997D02*Y348037D01*
Y350085D02*X133022Y351045D01*
X132062D02*X133022D01*
X131742Y350725D02*X132062Y351045D01*
X131742Y350725D02*Y350085D01*
X132062Y349765D02*X131742Y350085D01*
X132062Y349765D02*X132702D01*
X133022Y350085D01*
Y351045D02*Y350085D01*
X74460Y269784D02*Y268952D01*
X74012Y268504D02*X74460Y268952D01*
X72348Y268504D02*X74012D01*
X72348D02*X71900Y268952D01*
Y269784D02*Y268952D01*
X73500Y270552D02*X71900Y271832D01*
X73500Y272152D02*Y270552D01*
X71900Y271832D02*X74460D01*
X73500Y272920D02*X71900Y274200D01*
X73500Y274520D02*Y272920D01*
X71900Y274200D02*X74460D01*
X109695Y263091D02*Y261811D01*
Y263091D02*X110015Y263411D01*
X110655D01*
X110975Y263091D02*X110655Y263411D01*
X110975Y263091D02*Y262131D01*
X109695D02*X112255D01*
X110975Y262643D02*X112255Y263411D01*
X109695Y265139D02*X110015Y265459D01*
X109695Y265139D02*Y264499D01*
X110015Y264179D02*X109695Y264499D01*
X110015Y264179D02*X111935D01*
X112255Y264499D01*
X110847Y265139D02*X111167Y265459D01*
X110847Y265139D02*Y264179D01*
X112255Y265139D02*Y264499D01*
Y265139D02*X111935Y265459D01*
X111167D02*X111935D01*
X77772Y267035D02*X81772D01*
X77772Y268335D02*X78472Y269035D01*
X81072D01*
X81772Y268335D02*X81072Y269035D01*
X81772Y268335D02*Y266535D01*
X77772Y268335D02*Y266535D01*
Y272235D02*X78272Y272735D01*
X77772Y272235D02*Y270735D01*
X78272Y270235D02*X77772Y270735D01*
X78272Y270235D02*X79272D01*
X79772Y270735D01*
Y272235D02*Y270735D01*
Y272235D02*X80272Y272735D01*
X81272D01*
X81772Y272235D02*X81272Y272735D01*
X81772Y272235D02*Y270735D01*
X81272Y270235D02*X81772Y270735D01*
Y274435D02*X77772Y276435D01*
Y273935D01*
X118417Y293819D02*X119717D01*
X117717Y294519D02*X118417Y293819D01*
X117717Y297119D02*Y294519D01*
Y297119D02*X118417Y297819D01*
X119717D01*
X120917Y297019D02*X121717Y297819D01*
Y293819D01*
X120917D02*X122417D01*
X123617Y295319D02*X125617Y297819D01*
X123617Y295319D02*X126117D01*
X125617Y297819D02*Y293819D01*
X116196Y301131D02*X117028D01*
X115748Y301579D02*X116196Y301131D01*
X115748Y303243D02*Y301579D01*
Y303243D02*X116196Y303691D01*
X117028D01*
X117796Y303179D02*X118308Y303691D01*
Y301131D01*
X117796D02*X118756D01*
X119524Y303691D02*X120804D01*
X119524D02*Y302411D01*
X119844Y302731D01*
X120484D01*
X120804Y302411D01*
Y301451D01*
X120484Y301131D02*X120804Y301451D01*
X119844Y301131D02*X120484D01*
X119524Y301451D02*X119844Y301131D01*
X118417Y284764D02*X119717D01*
X117717Y285464D02*X118417Y284764D01*
X117717Y288064D02*Y285464D01*
Y288064D02*X118417Y288764D01*
X119717D01*
X120917Y287964D02*X121717Y288764D01*
Y284764D01*
X120917D02*X122417D01*
X123617Y288264D02*X124117Y288764D01*
X125117D01*
X125617Y288264D01*
X125117Y284764D02*X125617Y285264D01*
X124117Y284764D02*X125117D01*
X123617Y285264D02*X124117Y284764D01*
Y286964D02*X125117D01*
X125617Y288264D02*Y287464D01*
Y286464D02*Y285264D01*
Y286464D02*X125117Y286964D01*
X125617Y287464D02*X125117Y286964D01*
X120354Y257512D02*Y256212D01*
X119654Y255512D02*X120354Y256212D01*
X117054Y255512D02*X119654D01*
X117054D02*X116354Y256212D01*
Y257512D02*Y256212D01*
X120354Y259212D02*X116354Y261212D01*
Y258712D01*
X84071Y298819D02*X88071D01*
X84071Y300819D02*Y298819D01*
X85871Y300319D02*Y298819D01*
X84571Y302019D02*X84071Y302519D01*
Y304019D02*Y302519D01*
Y304019D02*X84571Y304519D01*
X85571D01*
X88071Y302019D02*X85571Y304519D01*
X88071D02*Y302019D01*
X92732Y298819D02*X96732D01*
X92732Y300819D02*Y298819D01*
X94532Y300319D02*Y298819D01*
X93232Y302019D02*X92732Y302519D01*
Y303519D02*Y302519D01*
Y303519D02*X93232Y304019D01*
X96732Y303519D02*X96232Y304019D01*
X96732Y303519D02*Y302519D01*
X96232Y302019D02*X96732Y302519D01*
X94532Y303519D02*Y302519D01*
X93232Y304019D02*X94032D01*
X95032D02*X96232D01*
X95032D02*X94532Y303519D01*
X94032Y304019D02*X94532Y303519D01*
X104780Y298744D02*Y297944D01*
Y298744D02*X108280D01*
X108780Y298244D02*X108280Y298744D01*
X108780Y298244D02*Y297744D01*
X108280Y297244D02*X108780Y297744D01*
X107780Y297244D02*X108280D01*
X104780Y301944D02*Y299944D01*
X106780D01*
X106280Y300444D01*
Y301444D02*Y300444D01*
Y301444D02*X106780Y301944D01*
X108280D01*
X108780Y301444D02*X108280Y301944D01*
X108780Y301444D02*Y300444D01*
X108280Y299944D02*X108780Y300444D01*
X114173Y276453D02*Y273453D01*
Y276453D02*X114673Y276953D01*
X115673D01*
X116173Y276453D01*
Y273953D01*
X115173Y272953D02*X116173Y273953D01*
X114673Y272953D02*X115173D01*
X114173Y273453D02*X114673Y272953D01*
X115173Y274453D02*X116173Y272953D01*
X117373Y276453D02*X117873Y276953D01*
X118873D01*
X119373Y276453D01*
X118873Y272953D02*X119373Y273453D01*
X117873Y272953D02*X118873D01*
X117373Y273453D02*X117873Y272953D01*
Y275153D02*X118873D01*
X119373Y276453D02*Y275653D01*
Y274653D02*Y273453D01*
Y274653D02*X118873Y275153D01*
X119373Y275653D02*X118873Y275153D01*
X109852Y251791D02*Y250591D01*
Y251791D02*X110152Y252091D01*
X110752D01*
X111052Y251791D02*X110752Y252091D01*
X111052Y251791D02*Y250891D01*
X109852D02*X112252D01*
X111052Y251371D02*X112252Y252091D01*
Y253111D02*X109852Y254311D01*
Y252811D01*
X111352Y255031D02*X109852Y256231D01*
X111352Y256531D02*Y255031D01*
X109852Y256231D02*X112252D01*
X148671Y308760D02*Y307480D01*
Y308760D02*X148991Y309080D01*
X149631D01*
X149951Y308760D02*X149631Y309080D01*
X149951Y308760D02*Y307800D01*
X148671D02*X151231D01*
X149951Y308312D02*X151231Y309080D01*
X148991Y309848D02*X148671Y310168D01*
Y311128D02*Y310168D01*
Y311128D02*X148991Y311448D01*
X149631D01*
X151231Y309848D02*X149631Y311448D01*
X151231D02*Y309848D01*
X150911Y312216D02*X151231Y312536D01*
X148991Y312216D02*X150911D01*
X148991D02*X148671Y312536D01*
Y313176D02*Y312536D01*
Y313176D02*X148991Y313496D01*
X150911D01*
X151231Y313176D02*X150911Y313496D01*
X151231Y313176D02*Y312536D01*
X150591Y312216D02*X149311Y313496D01*
X172491Y329233D02*Y328401D01*
X172043Y327953D02*X172491Y328401D01*
X170379Y327953D02*X172043D01*
X170379D02*X169931Y328401D01*
Y329233D02*Y328401D01*
X170251Y330001D02*X169931Y330321D01*
Y331281D02*Y330321D01*
Y331281D02*X170251Y331601D01*
X170891D01*
X172491Y330001D02*X170891Y331601D01*
X172491D02*Y330001D01*
X171531Y332369D02*X169931Y333649D01*
X171531Y333969D02*Y332369D01*
X169931Y333649D02*X172491D01*
X164961Y315079D02*X167461Y319079D01*
X164961D02*X167461Y315079D01*
X168661Y318279D02*X169461Y319079D01*
Y315079D01*
X168661D02*X170161D01*
X119991Y365535D02*X120791D01*
Y362035D01*
X120291Y361535D02*X120791Y362035D01*
X119791Y361535D02*X120291D01*
X119291Y362035D02*X119791Y361535D01*
X119291Y362535D02*Y362035D01*
X122491Y361535D02*X124491Y365535D01*
X121991D02*X124491D01*
X155818D02*X156618D01*
Y362035D01*
X156118Y361535D02*X156618Y362035D01*
X155618Y361535D02*X156118D01*
X155118Y362035D02*X155618Y361535D01*
X155118Y362535D02*Y362035D01*
X159318Y365535D02*X159818Y365035D01*
X158318Y365535D02*X159318D01*
X157818Y365035D02*X158318Y365535D01*
X157818Y365035D02*Y362035D01*
X158318Y361535D01*
X159318Y363735D02*X159818Y363235D01*
X157818Y363735D02*X159318D01*
X158318Y361535D02*X159318D01*
X159818Y362035D01*
Y363235D02*Y362035D01*
X180528Y358768D02*X184528D01*
X180528Y360068D02*X181228Y360768D01*
X183828D01*
X184528Y360068D02*X183828Y360768D01*
X184528Y360068D02*Y358268D01*
X180528Y360068D02*Y358268D01*
Y363968D02*Y361968D01*
X182528D01*
X182028Y362468D01*
Y363468D02*Y362468D01*
Y363468D02*X182528Y363968D01*
X184028D01*
X184528Y363468D02*X184028Y363968D01*
X184528Y363468D02*Y362468D01*
X184028Y361968D02*X184528Y362468D01*
X169931Y336713D02*Y335433D01*
Y336713D02*X170251Y337033D01*
X170891D01*
X171211Y336713D02*X170891Y337033D01*
X171211Y336713D02*Y335753D01*
X169931D02*X172491D01*
X171211Y336265D02*X172491Y337033D01*
X169931Y338761D02*X170251Y339081D01*
X169931Y338761D02*Y338121D01*
X170251Y337801D02*X169931Y338121D01*
X170251Y337801D02*X172171D01*
X172491Y338121D01*
X171083Y338761D02*X171403Y339081D01*
X171083Y338761D02*Y337801D01*
X172491Y338761D02*Y338121D01*
Y338761D02*X172171Y339081D01*
X171403D02*X172171D01*
X171531Y339849D02*X169931Y341129D01*
X171531Y341449D02*Y339849D01*
X169931Y341129D02*X172491D01*
X158180Y346969D02*X159480D01*
X157480Y347669D02*X158180Y346969D01*
X157480Y350269D02*Y347669D01*
Y350269D02*X158180Y350969D01*
X159480D01*
X160680Y350469D02*X161180Y350969D01*
X162680D01*
X163180Y350469D01*
Y349469D01*
X160680Y346969D02*X163180Y349469D01*
X160680Y346969D02*X163180D01*
X164380Y350169D02*X165180Y350969D01*
Y346969D01*
X164380D02*X165880D01*
X153987Y334745D02*Y333913D01*
X153539Y333465D02*X153987Y333913D01*
X151875Y333465D02*X153539D01*
X151875D02*X151427Y333913D01*
Y334745D02*Y333913D01*
X151747Y335513D02*X151427Y335833D01*
Y336793D02*Y335833D01*
Y336793D02*X151747Y337113D01*
X152387D01*
X153987Y335513D02*X152387Y337113D01*
X153987D02*Y335513D01*
X151427Y339161D02*Y337881D01*
X152707D01*
X152387Y338201D01*
Y338841D02*Y338201D01*
Y338841D02*X152707Y339161D01*
X153667D01*
X153987Y338841D02*X153667Y339161D01*
X153987Y338841D02*Y338201D01*
X153667Y337881D02*X153987Y338201D01*
X144094Y344242D02*X145374D01*
X145694Y343922D01*
Y343282D01*
X145374Y342962D02*X145694Y343282D01*
X144414Y342962D02*X145374D01*
X144414Y344242D02*Y341682D01*
X144926Y342962D02*X145694Y341682D01*
X146462Y343730D02*X146974Y344242D01*
Y341682D01*
X146462D02*X147422D01*
X148190Y342002D02*X148510Y341682D01*
X148190Y342514D02*Y342002D01*
Y342514D02*X148638Y342962D01*
X149022D01*
X149470Y342514D01*
Y342002D01*
X149150Y341682D02*X149470Y342002D01*
X148510Y341682D02*X149150D01*
X148190Y343410D02*X148638Y342962D01*
X148190Y343922D02*Y343410D01*
Y343922D02*X148510Y344242D01*
X149150D01*
X149470Y343922D01*
Y343410D01*
X149022Y342962D02*X149470Y343410D01*
X112117Y346181D02*X113417D01*
X111417Y346881D02*X112117Y346181D01*
X111417Y349481D02*Y346881D01*
Y349481D02*X112117Y350181D01*
X113417D01*
X114617Y349681D02*X115117Y350181D01*
X116617D01*
X117117Y349681D01*
Y348681D01*
X114617Y346181D02*X117117Y348681D01*
X114617Y346181D02*X117117D01*
X118317Y346681D02*X118817Y346181D01*
X118317Y349681D02*Y346681D01*
Y349681D02*X118817Y350181D01*
X119817D01*
X120317Y349681D01*
Y346681D01*
X119817Y346181D02*X120317Y346681D01*
X118817Y346181D02*X119817D01*
X118317Y347181D02*X120317Y349181D01*
X73141Y360024D02*X73941D01*
Y356524D01*
X73441Y356024D02*X73941Y356524D01*
X72941Y356024D02*X73441D01*
X72441Y356524D02*X72941Y356024D01*
X72441Y357024D02*Y356524D01*
X75141Y357524D02*X77141Y360024D01*
X75141Y357524D02*X77641D01*
X77141Y360024D02*Y356024D01*
X113205Y329528D02*X117205D01*
Y331528D02*Y329528D01*
X113705Y332728D02*X113205Y333228D01*
Y334728D02*Y333228D01*
Y334728D02*X113705Y335228D01*
X114705D01*
X117205Y332728D02*X114705Y335228D01*
X117205D02*Y332728D01*
X111861Y313878D02*Y313046D01*
X111413Y312598D02*X111861Y313046D01*
X109749Y312598D02*X111413D01*
X109749D02*X109301Y313046D01*
Y313878D02*Y313046D01*
X109813Y314646D02*X109301Y315158D01*
X111861D01*
Y315606D02*Y314646D01*
Y316694D02*X109301Y317974D01*
Y316374D01*
X118504Y315142D02*Y311642D01*
X119004Y311142D01*
X120004D01*
X120504Y311642D01*
Y315142D02*Y311642D01*
X121704Y314642D02*X122204Y315142D01*
X123204D01*
X123704Y314642D01*
X123204Y311142D02*X123704Y311642D01*
X122204Y311142D02*X123204D01*
X121704Y311642D02*X122204Y311142D01*
Y313342D02*X123204D01*
X123704Y314642D02*Y313842D01*
Y312842D02*Y311642D01*
Y312842D02*X123204Y313342D01*
X123704Y313842D02*X123204Y313342D01*
X85858Y329315D02*X86358Y328815D01*
X84358Y329315D02*X85858D01*
X83858Y328815D02*X84358Y329315D01*
X83858Y328815D02*Y327815D01*
X84358Y327315D01*
X85858D01*
X86358Y326815D01*
Y325815D01*
X85858Y325315D02*X86358Y325815D01*
X84358Y325315D02*X85858D01*
X83858Y325815D02*X84358Y325315D01*
X87558Y328515D02*X88358Y329315D01*
Y325315D01*
X87558D02*X89058D01*
X174016Y246030D02*X175656D01*
X176066Y245620D01*
Y244800D01*
X175656Y244390D02*X176066Y244800D01*
X174426Y244390D02*X175656D01*
X174426Y246030D02*Y242750D01*
X175082Y244390D02*X176066Y242750D01*
X177050Y246030D02*Y242750D01*
Y246030D02*X179100Y242750D01*
Y246030D02*Y242750D01*
X180084Y245620D02*X180494Y246030D01*
X181314D01*
X181724Y245620D01*
X181314Y242750D02*X181724Y243160D01*
X180494Y242750D02*X181314D01*
X180084Y243160D02*X180494Y242750D01*
Y244554D02*X181314D01*
X181724Y245620D02*Y244964D01*
Y244144D02*Y243160D01*
Y244144D02*X181314Y244554D01*
X181724Y244964D02*X181314Y244554D01*
X149213Y246030D02*X150853D01*
X151263Y245620D01*
Y244800D01*
X150853Y244390D02*X151263Y244800D01*
X149623Y244390D02*X150853D01*
X149623Y246030D02*Y242750D01*
X150279Y244390D02*X151263Y242750D01*
X152247Y246030D02*Y242750D01*
Y246030D02*X154297Y242750D01*
Y246030D02*Y242750D01*
X155281Y245374D02*X155937Y246030D01*
Y242750D01*
X155281D02*X156511D01*
X158514Y242619D02*Y241339D01*
Y242619D02*X158834Y242939D01*
X159474D01*
X159794Y242619D02*X159474Y242939D01*
X159794Y242619D02*Y241659D01*
X158514D02*X161074D01*
X159794Y242171D02*X161074Y242939D01*
X158834Y243707D02*X158514Y244027D01*
Y244667D02*Y244027D01*
Y244667D02*X158834Y244987D01*
X161074Y244667D02*X160754Y244987D01*
X161074Y244667D02*Y244027D01*
X160754Y243707D02*X161074Y244027D01*
X159666Y244667D02*Y244027D01*
X158834Y244987D02*X159346D01*
X159986D02*X160754D01*
X159986D02*X159666Y244667D01*
X159346Y244987D02*X159666Y244667D01*
X158834Y245755D02*X158514Y246075D01*
Y247035D02*Y246075D01*
Y247035D02*X158834Y247355D01*
X159474D01*
X161074Y245755D02*X159474Y247355D01*
X161074D02*Y245755D01*
X169538Y242619D02*Y241339D01*
Y242619D02*X169858Y242939D01*
X170498D01*
X170818Y242619D02*X170498Y242939D01*
X170818Y242619D02*Y241659D01*
X169538D02*X172098D01*
X170818Y242171D02*X172098Y242939D01*
X169858Y243707D02*X169538Y244027D01*
Y244987D02*Y244027D01*
Y244987D02*X169858Y245307D01*
X170498D01*
X172098Y243707D02*X170498Y245307D01*
X172098D02*Y243707D01*
X169538Y247355D02*Y246075D01*
X170818D01*
X170498Y246395D01*
Y247035D02*Y246395D01*
Y247035D02*X170818Y247355D01*
X171778D01*
X172098Y247035D02*X171778Y247355D01*
X172098Y247035D02*Y246395D01*
X171778Y246075D02*X172098Y246395D01*
X185090Y232776D02*Y231944D01*
X184642Y231496D02*X185090Y231944D01*
X182978Y231496D02*X184642D01*
X182978D02*X182530Y231944D01*
Y232776D02*Y231944D01*
X182850Y233544D02*X182530Y233864D01*
Y234504D02*Y233864D01*
Y234504D02*X182850Y234824D01*
X185090Y234504D02*X184770Y234824D01*
X185090Y234504D02*Y233864D01*
X184770Y233544D02*X185090Y233864D01*
X183682Y234504D02*Y233864D01*
X182850Y234824D02*X183362D01*
X184002D02*X184770D01*
X184002D02*X183682Y234504D01*
X183362Y234824D02*X183682Y234504D01*
X185090Y235912D02*X182530Y237192D01*
Y235592D01*
X125645Y255068D02*X126477D01*
X125197Y255516D02*X125645Y255068D01*
X125197Y257180D02*Y255516D01*
Y257180D02*X125645Y257628D01*
X126477D01*
X127245Y255388D02*X127565Y255068D01*
X127245Y255900D02*Y255388D01*
Y255900D02*X127693Y256348D01*
X128077D01*
X128525Y255900D01*
Y255388D01*
X128205Y255068D02*X128525Y255388D01*
X127565Y255068D02*X128205D01*
X127245Y256796D02*X127693Y256348D01*
X127245Y257308D02*Y256796D01*
Y257308D02*X127565Y257628D01*
X128205D01*
X128525Y257308D01*
Y256796D01*
X128077Y256348D02*X128525Y256796D01*
X127378Y262598D02*X130878D01*
X131378Y263098D01*
Y264098D02*Y263098D01*
Y264098D02*X130878Y264598D01*
X127378D02*X130878D01*
X127878Y265798D02*X127378Y266298D01*
Y267798D02*Y266298D01*
Y267798D02*X127878Y268298D01*
X128878D01*
X131378Y265798D02*X128878Y268298D01*
X131378D02*Y265798D01*
X135286Y257973D02*Y256693D01*
Y257973D02*X135606Y258293D01*
X136246D01*
X136566Y257973D02*X136246Y258293D01*
X136566Y257973D02*Y257013D01*
X135286D02*X137846D01*
X136566Y257525D02*X137846Y258293D01*
X135798Y259061D02*X135286Y259573D01*
X137846D01*
Y260021D02*Y259061D01*
X135798Y260789D02*X135286Y261301D01*
X137846D01*
Y261749D02*Y260789D01*
X137614Y283571D02*X141614D01*
X137614Y284871D02*X138314Y285571D01*
X140914D01*
X141614Y284871D02*X140914Y285571D01*
X141614Y284871D02*Y283071D01*
X137614Y284871D02*Y283071D01*
X140114Y286771D02*X137614Y288771D01*
X140114Y289271D02*Y286771D01*
X137614Y288771D02*X141614D01*
X171310Y278839D02*Y278007D01*
X170862Y277559D02*X171310Y278007D01*
X169198Y277559D02*X170862D01*
X169198D02*X168750Y278007D01*
Y278839D02*Y278007D01*
Y280887D02*Y279607D01*
X170030D01*
X169710Y279927D01*
Y280567D02*Y279927D01*
Y280567D02*X170030Y280887D01*
X170990D01*
X171310Y280567D02*X170990Y280887D01*
X171310Y280567D02*Y279927D01*
X170990Y279607D02*X171310Y279927D01*
X169070Y281655D02*X168750Y281975D01*
Y282935D02*Y281975D01*
Y282935D02*X169070Y283255D01*
X169710D01*
X171310Y281655D02*X169710Y283255D01*
X171310D02*Y281655D01*
X155512Y281250D02*X156792D01*
X157112Y280930D01*
Y280290D01*
X156792Y279970D02*X157112Y280290D01*
X155832Y279970D02*X156792D01*
X155832Y281250D02*Y278690D01*
X156344Y279970D02*X157112Y278690D01*
X157880Y281250D02*X159160D01*
X157880D02*Y279970D01*
X158200Y280290D01*
X158840D01*
X159160Y279970D01*
Y279010D01*
X158840Y278690D02*X159160Y279010D01*
X158200Y278690D02*X158840D01*
X157880Y279010D02*X158200Y278690D01*
X159928Y279650D02*X161208Y281250D01*
X159928Y279650D02*X161528D01*
X161208Y281250D02*Y278690D01*
X155512Y285187D02*X156792D01*
X157112Y284867D01*
Y284227D01*
X156792Y283907D02*X157112Y284227D01*
X155832Y283907D02*X156792D01*
X155832Y285187D02*Y282627D01*
X156344Y283907D02*X157112Y282627D01*
X157880Y285187D02*X159160D01*
X157880D02*Y283907D01*
X158200Y284227D01*
X158840D01*
X159160Y283907D01*
Y282947D01*
X158840Y282627D02*X159160Y282947D01*
X158200Y282627D02*X158840D01*
X157880Y282947D02*X158200Y282627D01*
X159928Y285187D02*X161208D01*
X159928D02*Y283907D01*
X160248Y284227D01*
X160888D01*
X161208Y283907D01*
Y282947D01*
X160888Y282627D02*X161208Y282947D01*
X160248Y282627D02*X160888D01*
X159928Y282947D02*X160248Y282627D01*
X164173Y297785D02*X165453D01*
X165773Y297465D01*
Y296825D01*
X165453Y296505D02*X165773Y296825D01*
X164493Y296505D02*X165453D01*
X164493Y297785D02*Y295225D01*
X165005Y296505D02*X165773Y295225D01*
X167501Y297785D02*X167821Y297465D01*
X166861Y297785D02*X167501D01*
X166541Y297465D02*X166861Y297785D01*
X166541Y297465D02*Y295545D01*
X166861Y295225D01*
X167501Y296633D02*X167821Y296313D01*
X166541Y296633D02*X167501D01*
X166861Y295225D02*X167501D01*
X167821Y295545D01*
Y296313D02*Y295545D01*
X168589Y297273D02*X169101Y297785D01*
Y295225D01*
X168589D02*X169549D01*
X164173Y302116D02*X165453D01*
X165773Y301796D01*
Y301156D01*
X165453Y300836D02*X165773Y301156D01*
X164493Y300836D02*X165453D01*
X164493Y302116D02*Y299556D01*
X165005Y300836D02*X165773Y299556D01*
X167501Y302116D02*X167821Y301796D01*
X166861Y302116D02*X167501D01*
X166541Y301796D02*X166861Y302116D01*
X166541Y301796D02*Y299876D01*
X166861Y299556D01*
X167501Y300964D02*X167821Y300644D01*
X166541Y300964D02*X167501D01*
X166861Y299556D02*X167501D01*
X167821Y299876D01*
Y300644D02*Y299876D01*
X168589D02*X168909Y299556D01*
X168589Y301796D02*Y299876D01*
Y301796D02*X168909Y302116D01*
X169549D01*
X169869Y301796D01*
Y299876D01*
X169549Y299556D02*X169869Y299876D01*
X168909Y299556D02*X169549D01*
X168589Y300196D02*X169869Y301476D01*
X156118Y307906D02*Y305906D01*
Y307906D02*X156618Y308406D01*
X157618D01*
X158118Y307906D02*X157618Y308406D01*
X158118Y307906D02*Y306406D01*
X156118D02*X160118D01*
X158118Y307206D02*X160118Y308406D01*
X156118Y311606D02*Y309606D01*
X158118D01*
X157618Y310106D01*
Y311106D02*Y310106D01*
Y311106D02*X158118Y311606D01*
X159618D01*
X160118Y311106D02*X159618Y311606D01*
X160118Y311106D02*Y310106D01*
X159618Y309606D02*X160118Y310106D01*
X156918Y312806D02*X156118Y313606D01*
X160118D01*
Y314306D02*Y312806D01*
X139708Y301474D02*Y300772D01*
X139330Y300394D02*X139708Y300772D01*
X137926Y300394D02*X139330D01*
X137926D02*X137548Y300772D01*
Y301474D02*Y300772D01*
Y302932D02*X137818Y303202D01*
X137548Y302932D02*Y302392D01*
X137818Y302122D02*X137548Y302392D01*
X137818Y302122D02*X139438D01*
X139708Y302392D01*
X138520Y302932D02*X138790Y303202D01*
X138520Y302932D02*Y302122D01*
X139708Y302932D02*Y302392D01*
Y302932D02*X139438Y303202D01*
X138790D02*X139438D01*
X137818Y303850D02*X137548Y304120D01*
Y304660D02*Y304120D01*
Y304660D02*X137818Y304930D01*
X139708Y304660D02*X139438Y304930D01*
X139708Y304660D02*Y304120D01*
X139438Y303850D02*X139708Y304120D01*
X138520Y304660D02*Y304120D01*
X137818Y304930D02*X138250D01*
X138790D02*X139438D01*
X138790D02*X138520Y304660D01*
X138250Y304930D02*X138520Y304660D01*
X153150Y292594D02*Y289594D01*
Y292594D02*X153650Y293094D01*
X154650D01*
X155150Y292594D01*
Y290094D01*
X154150Y289094D02*X155150Y290094D01*
X153650Y289094D02*X154150D01*
X153150Y289594D02*X153650Y289094D01*
X154150Y290594D02*X155150Y289094D01*
X156350Y293094D02*X158350D01*
X156350D02*Y291094D01*
X156850Y291594D01*
X157850D01*
X158350Y291094D01*
Y289594D01*
X157850Y289094D02*X158350Y289594D01*
X156850Y289094D02*X157850D01*
X156350Y289594D02*X156850Y289094D01*
X227220Y296406D02*X228052D01*
X226772Y296854D02*X227220Y296406D01*
X226772Y298518D02*Y296854D01*
Y298518D02*X227220Y298966D01*
X228052D01*
X228820D02*X230100D01*
X228820D02*Y297686D01*
X229140Y298006D01*
X229780D01*
X230100Y297686D01*
Y296726D01*
X229780Y296406D02*X230100Y296726D01*
X229140Y296406D02*X229780D01*
X228820Y296726D02*X229140Y296406D01*
X231188D02*X232468Y298966D01*
X230868D02*X232468D01*
X226772Y310777D02*X228052D01*
X228372Y310457D01*
Y309817D01*
X228052Y309497D02*X228372Y309817D01*
X227092Y309497D02*X228052D01*
X227092Y310777D02*Y308217D01*
X227604Y309497D02*X228372Y308217D01*
X229140Y310457D02*X229460Y310777D01*
X230100D01*
X230420Y310457D01*
X230100Y308217D02*X230420Y308537D01*
X229460Y308217D02*X230100D01*
X229140Y308537D02*X229460Y308217D01*
Y309625D02*X230100D01*
X230420Y310457D02*Y309945D01*
Y309305D02*Y308537D01*
Y309305D02*X230100Y309625D01*
X230420Y309945D02*X230100Y309625D01*
X231188Y310265D02*X231700Y310777D01*
Y308217D01*
X231188D02*X232148D01*
X226378Y306840D02*X227658D01*
X227978Y306520D01*
Y305880D01*
X227658Y305560D02*X227978Y305880D01*
X226698Y305560D02*X227658D01*
X226698Y306840D02*Y304280D01*
X227210Y305560D02*X227978Y304280D01*
X228746Y306520D02*X229066Y306840D01*
X230026D01*
X230346Y306520D01*
Y305880D01*
X228746Y304280D02*X230346Y305880D01*
X228746Y304280D02*X230346D01*
X231114Y305240D02*X232394Y306840D01*
X231114Y305240D02*X232714D01*
X232394Y306840D02*Y304280D01*
X226772Y302903D02*X228052D01*
X228372Y302583D01*
Y301943D01*
X228052Y301623D02*X228372Y301943D01*
X227092Y301623D02*X228052D01*
X227092Y302903D02*Y300343D01*
X227604Y301623D02*X228372Y300343D01*
X229140Y302903D02*X230420D01*
X229140D02*Y301623D01*
X229460Y301943D01*
X230100D01*
X230420Y301623D01*
Y300663D01*
X230100Y300343D02*X230420Y300663D01*
X229460Y300343D02*X230100D01*
X229140Y300663D02*X229460Y300343D01*
X231508D02*X232468Y301623D01*
Y302583D02*Y301623D01*
X232148Y302903D02*X232468Y302583D01*
X231508Y302903D02*X232148D01*
X231188Y302583D02*X231508Y302903D01*
X231188Y302583D02*Y301943D01*
X231508Y301623D01*
X232468D01*
X195669Y300575D02*Y297075D01*
X196169Y296575D01*
X197169D01*
X197669Y297075D01*
Y300575D02*Y297075D01*
X198869Y299775D02*X199669Y300575D01*
Y296575D01*
X198869D02*X200369D01*
X201569Y297075D02*X202069Y296575D01*
X201569Y300075D02*Y297075D01*
Y300075D02*X202069Y300575D01*
X203069D01*
X203569Y300075D01*
Y297075D01*
X203069Y296575D02*X203569Y297075D01*
X202069Y296575D02*X203069D01*
X201569Y297575D02*X203569Y299575D01*
X228791Y285138D02*Y284306D01*
X228343Y283858D02*X228791Y284306D01*
X226679Y283858D02*X228343D01*
X226679D02*X226231Y284306D01*
Y285138D02*Y284306D01*
Y287186D02*Y285906D01*
X227511D01*
X227191Y286226D01*
Y286866D02*Y286226D01*
Y286866D02*X227511Y287186D01*
X228471D01*
X228791Y286866D02*X228471Y287186D01*
X228791Y286866D02*Y286226D01*
X228471Y285906D02*X228791Y286226D01*
X226743Y287954D02*X226231Y288466D01*
X228791D01*
Y288914D02*Y287954D01*
Y313878D02*Y313046D01*
X228343Y312598D02*X228791Y313046D01*
X226679Y312598D02*X228343D01*
X226679D02*X226231Y313046D01*
Y313878D02*Y313046D01*
X227831Y314646D02*X226231Y315926D01*
X227831Y316246D02*Y314646D01*
X226231Y315926D02*X228791D01*
Y317334D02*X227511Y318294D01*
X226551D02*X227511D01*
X226231Y317974D02*X226551Y318294D01*
X226231Y317974D02*Y317334D01*
X226551Y317014D02*X226231Y317334D01*
X226551Y317014D02*X227191D01*
X227511Y317334D01*
Y318294D02*Y317334D01*
X237795Y287549D02*X239075D01*
X239395Y287229D01*
Y286589D01*
X239075Y286269D02*X239395Y286589D01*
X238115Y286269D02*X239075D01*
X238115Y287549D02*Y284989D01*
X238627Y286269D02*X239395Y284989D01*
X241123Y287549D02*X241443Y287229D01*
X240483Y287549D02*X241123D01*
X240163Y287229D02*X240483Y287549D01*
X240163Y287229D02*Y285309D01*
X240483Y284989D01*
X241123Y286397D02*X241443Y286077D01*
X240163Y286397D02*X241123D01*
X240483Y284989D02*X241123D01*
X241443Y285309D01*
Y286077D02*Y285309D01*
X242211Y287229D02*X242531Y287549D01*
X243491D01*
X243811Y287229D01*
Y286589D01*
X242211Y284989D02*X243811Y286589D01*
X242211Y284989D02*X243811D01*
X238637Y296800D02*X239469D01*
X238189Y297248D02*X238637Y296800D01*
X238189Y298912D02*Y297248D01*
Y298912D02*X238637Y299360D01*
X239469D01*
X240237D02*X241517D01*
X240237D02*Y298080D01*
X240557Y298400D01*
X241197D01*
X241517Y298080D01*
Y297120D01*
X241197Y296800D02*X241517Y297120D01*
X240557Y296800D02*X241197D01*
X240237Y297120D02*X240557Y296800D01*
X242285Y297120D02*X242605Y296800D01*
X242285Y297632D02*Y297120D01*
Y297632D02*X242733Y298080D01*
X243117D01*
X243565Y297632D01*
Y297120D01*
X243245Y296800D02*X243565Y297120D01*
X242605Y296800D02*X243245D01*
X242285Y298528D02*X242733Y298080D01*
X242285Y299040D02*Y298528D01*
Y299040D02*X242605Y299360D01*
X243245D01*
X243565Y299040D01*
Y298528D01*
X243117Y298080D02*X243565Y298528D01*
X238637Y300737D02*X239469D01*
X238189Y301185D02*X238637Y300737D01*
X238189Y302849D02*Y301185D01*
Y302849D02*X238637Y303297D01*
X239469D01*
X240237D02*X241517D01*
X240237D02*Y302017D01*
X240557Y302337D01*
X241197D01*
X241517Y302017D01*
Y301057D01*
X241197Y300737D02*X241517Y301057D01*
X240557Y300737D02*X241197D01*
X240237Y301057D02*X240557Y300737D01*
X243245Y303297D02*X243565Y302977D01*
X242605Y303297D02*X243245D01*
X242285Y302977D02*X242605Y303297D01*
X242285Y302977D02*Y301057D01*
X242605Y300737D01*
X243245Y302145D02*X243565Y301825D01*
X242285Y302145D02*X243245D01*
X242605Y300737D02*X243245D01*
X243565Y301057D01*
Y301825D02*Y301057D01*
X237795Y307234D02*X239075D01*
X239395Y306914D01*
Y306274D01*
X239075Y305954D02*X239395Y306274D01*
X238115Y305954D02*X239075D01*
X238115Y307234D02*Y304674D01*
X238627Y305954D02*X239395Y304674D01*
X240163Y307234D02*X241443D01*
X240163D02*Y305954D01*
X240483Y306274D01*
X241123D01*
X241443Y305954D01*
Y304994D01*
X241123Y304674D02*X241443Y304994D01*
X240483Y304674D02*X241123D01*
X240163Y304994D02*X240483Y304674D01*
X242211Y306914D02*X242531Y307234D01*
X243491D01*
X243811Y306914D01*
Y306274D01*
X242211Y304674D02*X243811Y306274D01*
X242211Y304674D02*X243811D01*
X237795Y295423D02*X239075D01*
X239395Y295103D01*
Y294463D01*
X239075Y294143D02*X239395Y294463D01*
X238115Y294143D02*X239075D01*
X238115Y295423D02*Y292863D01*
X238627Y294143D02*X239395Y292863D01*
X240163Y295423D02*X241443D01*
X240163D02*Y294143D01*
X240483Y294463D01*
X241123D01*
X241443Y294143D01*
Y293183D01*
X241123Y292863D02*X241443Y293183D01*
X240483Y292863D02*X241123D01*
X240163Y293183D02*X240483Y292863D01*
X242531D02*X243811Y295423D01*
X242211D02*X243811D01*
X172491Y344587D02*Y343755D01*
X172043Y343307D02*X172491Y343755D01*
X170379Y343307D02*X172043D01*
X170379D02*X169931Y343755D01*
Y344587D02*Y343755D01*
Y346315D02*X170251Y346635D01*
X169931Y346315D02*Y345675D01*
X170251Y345355D02*X169931Y345675D01*
X170251Y345355D02*X172171D01*
X172491Y345675D01*
X171083Y346315D02*X171403Y346635D01*
X171083Y346315D02*Y345355D01*
X172491Y346315D02*Y345675D01*
Y346315D02*X172171Y346635D01*
X171403D02*X172171D01*
X170251Y347403D02*X169931Y347723D01*
Y348683D02*Y347723D01*
Y348683D02*X170251Y349003D01*
X170891D01*
X172491Y347403D02*X170891Y349003D01*
X172491D02*Y347403D01*
X183771Y341677D02*X184571D01*
Y338177D01*
X184071Y337677D02*X184571Y338177D01*
X183571Y337677D02*X184071D01*
X183071Y338177D02*X183571Y337677D01*
X183071Y338677D02*Y338177D01*
X185771Y340877D02*X186571Y341677D01*
Y337677D01*
X185771D02*X187271D01*
X188971D02*X190971Y341677D01*
X188471D02*X190971D01*
X181944Y325934D02*X182776D01*
X181496Y326382D02*X181944Y325934D01*
X181496Y328046D02*Y326382D01*
Y328046D02*X181944Y328494D01*
X182776D01*
X183544D02*X184824D01*
X183544D02*Y327214D01*
X183864Y327534D01*
X184504D01*
X184824Y327214D01*
Y326254D01*
X184504Y325934D02*X184824Y326254D01*
X183864Y325934D02*X184504D01*
X183544Y326254D02*X183864Y325934D01*
X185592Y326254D02*X185912Y325934D01*
X185592Y328174D02*Y326254D01*
Y328174D02*X185912Y328494D01*
X186552D01*
X186872Y328174D01*
Y326254D01*
X186552Y325934D02*X186872Y326254D01*
X185912Y325934D02*X186552D01*
X185592Y326574D02*X186872Y327854D01*
X192137Y351159D02*Y347919D01*
X193190Y351159D02*X193757Y350592D01*
Y348486D01*
X193190Y347919D02*X193757Y348486D01*
X191732Y347919D02*X193190D01*
X191732Y351159D02*X193190D01*
X194729Y350511D02*X195377Y351159D01*
Y347919D01*
X194729D02*X195944D01*
X198131Y351159D02*X198536Y350754D01*
X197321Y351159D02*X198131D01*
X196916Y350754D02*X197321Y351159D01*
X196916Y350754D02*Y348324D01*
X197321Y347919D01*
X198131Y349701D02*X198536Y349296D01*
X196916Y349701D02*X198131D01*
X197321Y347919D02*X198131D01*
X198536Y348324D01*
Y349296D02*Y348324D01*
X201427Y346949D02*Y345669D01*
Y346949D02*X201747Y347269D01*
X202387D01*
X202707Y346949D02*X202387Y347269D01*
X202707Y346949D02*Y345989D01*
X201427D02*X203987D01*
X202707Y346501D02*X203987Y347269D01*
X201427Y349317D02*Y348037D01*
X202707D01*
X202387Y348357D01*
Y348997D02*Y348357D01*
Y348997D02*X202707Y349317D01*
X203667D01*
X203987Y348997D02*X203667Y349317D01*
X203987Y348997D02*Y348357D01*
X203667Y348037D02*X203987Y348357D01*
X201747Y350085D02*X201427Y350405D01*
Y351045D02*Y350405D01*
Y351045D02*X201747Y351365D01*
X203987Y351045D02*X203667Y351365D01*
X203987Y351045D02*Y350405D01*
X203667Y350085D02*X203987Y350405D01*
X202579Y351045D02*Y350405D01*
X201747Y351365D02*X202259D01*
X202899D02*X203667D01*
X202899D02*X202579Y351045D01*
X202259Y351365D02*X202579Y351045D01*
X213780Y343882D02*Y340382D01*
X214280Y339882D01*
X215280D01*
X215780Y340382D01*
Y343882D02*Y340382D01*
X216980Y343082D02*X217780Y343882D01*
Y339882D01*
X216980D02*X218480D01*
X219680Y343082D02*X220480Y343882D01*
Y339882D01*
X219680D02*X221180D01*
X212057Y328052D02*Y326772D01*
Y328052D02*X212377Y328372D01*
X213017D01*
X213337Y328052D02*X213017Y328372D01*
X213337Y328052D02*Y327092D01*
X212057D02*X214617D01*
X213337Y327604D02*X214617Y328372D01*
X212057Y329140D02*X214617D01*
X212057D02*X214617Y330740D01*
X212057D02*X214617D01*
X212377Y331508D02*X212057Y331828D01*
Y332788D02*Y331828D01*
Y332788D02*X212377Y333108D01*
X213017D01*
X214617Y331508D02*X213017Y333108D01*
X214617D02*Y331508D01*
X201427Y339469D02*Y338189D01*
Y339469D02*X201747Y339789D01*
X202387D01*
X202707Y339469D02*X202387Y339789D01*
X202707Y339469D02*Y338509D01*
X201427D02*X203987D01*
X202707Y339021D02*X203987Y339789D01*
X201427Y341837D02*Y340557D01*
X202707D01*
X202387Y340877D01*
Y341517D02*Y340877D01*
Y341517D02*X202707Y341837D01*
X203667D01*
X203987Y341517D02*X203667Y341837D01*
X203987Y341517D02*Y340877D01*
X203667Y340557D02*X203987Y340877D01*
X201427Y343565D02*X201747Y343885D01*
X201427Y343565D02*Y342925D01*
X201747Y342605D02*X201427Y342925D01*
X201747Y342605D02*X203667D01*
X203987Y342925D01*
X202579Y343565D02*X202899Y343885D01*
X202579Y343565D02*Y342605D01*
X203987Y343565D02*Y342925D01*
Y343565D02*X203667Y343885D01*
X202899D02*X203667D01*
X235433Y349681D02*Y346681D01*
Y349681D02*X235933Y350181D01*
X236933D01*
X237433Y349681D01*
Y347181D01*
X236433Y346181D02*X237433Y347181D01*
X235933Y346181D02*X236433D01*
X235433Y346681D02*X235933Y346181D01*
X236433Y347681D02*X237433Y346181D01*
X238633Y347681D02*X240633Y350181D01*
X238633Y347681D02*X241133D01*
X240633Y350181D02*Y346181D01*
X240797Y364272D02*Y362992D01*
Y364272D02*X241117Y364592D01*
X241757D01*
X242077Y364272D02*X241757Y364592D01*
X242077Y364272D02*Y363312D01*
X240797D02*X243357D01*
X242077Y363824D02*X243357Y364592D01*
X240797Y366640D02*Y365360D01*
X242077D01*
X241757Y365680D01*
Y366320D02*Y365680D01*
Y366320D02*X242077Y366640D01*
X243037D01*
X243357Y366320D02*X243037Y366640D01*
X243357Y366320D02*Y365680D01*
X243037Y365360D02*X243357Y365680D01*
X243037Y367408D02*X243357Y367728D01*
X242525Y367408D02*X243037D01*
X242525D02*X242077Y367856D01*
Y368240D02*Y367856D01*
Y368240D02*X242525Y368688D01*
X243037D01*
X243357Y368368D02*X243037Y368688D01*
X243357Y368368D02*Y367728D01*
X241629Y367408D02*X242077Y367856D01*
X241117Y367408D02*X241629D01*
X241117D02*X240797Y367728D01*
Y368368D02*Y367728D01*
Y368368D02*X241117Y368688D01*
X241629D01*
X242077Y368240D02*X241629Y368688D01*
X238071Y363811D02*Y362511D01*
X237371Y361811D02*X238071Y362511D01*
X234771Y361811D02*X237371D01*
X234771D02*X234071Y362511D01*
Y363811D02*Y362511D01*
Y367011D02*Y365011D01*
X236071D01*
X235571Y365511D01*
Y366511D02*Y365511D01*
Y366511D02*X236071Y367011D01*
X237571D01*
X238071Y366511D02*X237571Y367011D01*
X238071Y366511D02*Y365511D01*
X237571Y365011D02*X238071Y365511D01*
Y368711D02*X236071Y370211D01*
X234571D02*X236071D01*
X234071Y369711D02*X234571Y370211D01*
X234071Y369711D02*Y368711D01*
X234571Y368211D02*X234071Y368711D01*
X234571Y368211D02*X235571D01*
X236071Y368711D01*
Y370211D02*Y368711D01*
X235236Y358021D02*X236516D01*
X236836Y357701D01*
Y357061D01*
X236516Y356741D02*X236836Y357061D01*
X235556Y356741D02*X236516D01*
X235556Y358021D02*Y355461D01*
X236068Y356741D02*X236836Y355461D01*
X237604Y356421D02*X238884Y358021D01*
X237604Y356421D02*X239204D01*
X238884Y358021D02*Y355461D01*
X240292D02*X241572Y358021D01*
X239972D02*X241572D01*
X245472Y351329D02*X246752D01*
X247072Y351009D01*
Y350369D01*
X246752Y350049D02*X247072Y350369D01*
X245792Y350049D02*X246752D01*
X245792Y351329D02*Y348769D01*
X246304Y350049D02*X247072Y348769D01*
X248160D02*X249440Y351329D01*
X247840D02*X249440D01*
X250208Y351009D02*X250528Y351329D01*
X251168D01*
X251488Y351009D01*
X251168Y348769D02*X251488Y349089D01*
X250528Y348769D02*X251168D01*
X250208Y349089D02*X250528Y348769D01*
Y350177D02*X251168D01*
X251488Y351009D02*Y350497D01*
Y349857D02*Y349089D01*
Y349857D02*X251168Y350177D01*
X251488Y350497D02*X251168Y350177D01*
X245472Y347391D02*X246752D01*
X247072Y347071D01*
Y346431D01*
X246752Y346111D02*X247072Y346431D01*
X245792Y346111D02*X246752D01*
X245792Y347391D02*Y344831D01*
X246304Y346111D02*X247072Y344831D01*
X248160D02*X249440Y347391D01*
X247840D02*X249440D01*
X250208Y347071D02*X250528Y347391D01*
X251488D01*
X251808Y347071D01*
Y346431D01*
X250208Y344831D02*X251808Y346431D01*
X250208Y344831D02*X251808D01*
X207787Y365929D02*X208587D01*
Y362429D01*
X208087Y361929D02*X208587Y362429D01*
X207587Y361929D02*X208087D01*
X207087Y362429D02*X207587Y361929D01*
X207087Y362929D02*Y362429D01*
X209787Y365129D02*X210587Y365929D01*
Y361929D01*
X209787D02*X211287D01*
X213987Y365929D02*X214487Y365429D01*
X212987Y365929D02*X213987D01*
X212487Y365429D02*X212987Y365929D01*
X212487Y365429D02*Y362429D01*
X212987Y361929D01*
X213987Y364129D02*X214487Y363629D01*
X212487Y364129D02*X213987D01*
X212987Y361929D02*X213987D01*
X214487Y362429D01*
Y363629D02*Y362429D01*
X260543Y365142D02*X261343D01*
Y361642D01*
X260843Y361142D02*X261343Y361642D01*
X260343Y361142D02*X260843D01*
X259843Y361642D02*X260343Y361142D01*
X259843Y362142D02*Y361642D01*
X262543Y364342D02*X263343Y365142D01*
Y361142D01*
X262543D02*X264043D01*
X265243Y365142D02*X267243D01*
X265243D02*Y363142D01*
X265743Y363642D01*
X266743D01*
X267243Y363142D01*
Y361642D01*
X266743Y361142D02*X267243Y361642D01*
X265743Y361142D02*X266743D01*
X265243Y361642D02*X265743Y361142D01*
X268212Y349404D02*Y345444D01*
X269499Y349404D02*X270192Y348711D01*
Y346137D01*
X269499Y345444D02*X270192Y346137D01*
X267717Y345444D02*X269499D01*
X267717Y349404D02*X269499D01*
X273360D02*X273855Y348909D01*
X271875Y349404D02*X273360D01*
X271380Y348909D02*X271875Y349404D01*
X271380Y348909D02*Y347919D01*
X271875Y347424D01*
X273360D01*
X273855Y346929D01*
Y345939D01*
X273360Y345444D02*X273855Y345939D01*
X271875Y345444D02*X273360D01*
X271380Y345939D02*X271875Y345444D01*
X275538D02*X277023Y347424D01*
Y348909D02*Y347424D01*
X276528Y349404D02*X277023Y348909D01*
X275538Y349404D02*X276528D01*
X275043Y348909D02*X275538Y349404D01*
X275043Y348909D02*Y347919D01*
X275538Y347424D01*
X277023D01*
X255331Y350952D02*Y347672D01*
X256397Y350952D02*X256971Y350378D01*
Y348246D01*
X256397Y347672D02*X256971Y348246D01*
X254921Y347672D02*X256397D01*
X254921Y350952D02*X256397D01*
X257955Y350296D02*X258611Y350952D01*
Y347672D01*
X257955D02*X259185D01*
X260579D02*X262219Y350952D01*
X260169D02*X262219D01*
X270185Y338764D02*Y334764D01*
X271485Y338764D02*X272185Y338064D01*
Y335464D01*
X271485Y334764D02*X272185Y335464D01*
X269685Y334764D02*X271485D01*
X269685Y338764D02*X271485D01*
X273385Y337964D02*X274185Y338764D01*
Y334764D01*
X273385D02*X274885D01*
X276085Y338764D02*X278085D01*
X276085D02*Y336764D01*
X276585Y337264D01*
X277585D01*
X278085Y336764D01*
Y335264D01*
X277585Y334764D02*X278085Y335264D01*
X276585Y334764D02*X277585D01*
X276085Y335264D02*X276585Y334764D01*
X129016Y326803D02*Y325503D01*
X128316Y324803D02*X129016Y325503D01*
X125716Y324803D02*X128316D01*
X125716D02*X125016Y325503D01*
Y326803D02*Y325503D01*
X125816Y328003D02*X125016Y328803D01*
X129016D01*
Y329503D02*Y328003D01*
X125016Y332203D02*X125516Y332703D01*
X125016Y332203D02*Y331203D01*
X125516Y330703D02*X125016Y331203D01*
X125516Y330703D02*X128516D01*
X129016Y331203D01*
X126816Y332203D02*X127316Y332703D01*
X126816Y332203D02*Y330703D01*
X129016Y332203D02*Y331203D01*
Y332203D02*X128516Y332703D01*
X127316D02*X128516D01*
X144094Y340305D02*X145374D01*
X145694Y339985D01*
Y339345D01*
X145374Y339025D02*X145694Y339345D01*
X144414Y339025D02*X145374D01*
X144414Y340305D02*Y337745D01*
X144926Y339025D02*X145694Y337745D01*
X146462Y339793D02*X146974Y340305D01*
Y337745D01*
X146462D02*X147422D01*
X148510D02*X149790Y340305D01*
X148190D02*X149790D01*
X159843Y338370D02*Y334870D01*
X160343Y334370D01*
X161343D01*
X161843Y334870D01*
Y338370D02*Y334870D01*
X163043Y335870D02*X165043Y338370D01*
X163043Y335870D02*X165543D01*
X165043Y338370D02*Y334370D01*
X137402Y350969D02*X139402D01*
X139902Y350469D01*
Y349469D01*
X139402Y348969D02*X139902Y349469D01*
X137902Y348969D02*X139402D01*
X137902Y350969D02*Y346969D01*
X138702Y348969D02*X139902Y346969D01*
X141102Y350169D02*X141902Y350969D01*
Y346969D01*
X141102D02*X142602D01*
X143802Y348469D02*X145802Y350969D01*
X143802Y348469D02*X146302D01*
X145802Y350969D02*Y346969D01*
X143520Y323335D02*X147520D01*
X143520Y324635D02*X144220Y325335D01*
X146820D01*
X147520Y324635D02*X146820Y325335D01*
X147520Y324635D02*Y322835D01*
X143520Y324635D02*Y322835D01*
Y328035D02*X144020Y328535D01*
X143520Y328035D02*Y327035D01*
X144020Y326535D02*X143520Y327035D01*
X144020Y326535D02*X147020D01*
X147520Y327035D01*
X145320Y328035D02*X145820Y328535D01*
X145320Y328035D02*Y326535D01*
X147520Y328035D02*Y327035D01*
Y328035D02*X147020Y328535D01*
X145820D02*X147020D01*
X143751Y311123D02*Y310291D01*
X143303Y309843D02*X143751Y310291D01*
X141639Y309843D02*X143303D01*
X141639D02*X141191Y310291D01*
Y311123D02*Y310291D01*
X141703Y311891D02*X141191Y312403D01*
X143751D01*
Y312851D02*Y311891D01*
Y313939D02*X142471Y314899D01*
X141511D02*X142471D01*
X141191Y314579D02*X141511Y314899D01*
X141191Y314579D02*Y313939D01*
X141511Y313619D02*X141191Y313939D01*
X141511Y313619D02*X142151D01*
X142471Y313939D01*
Y314899D02*Y313939D01*
X137254Y316241D02*Y314961D01*
Y316241D02*X137574Y316561D01*
X138214D01*
X138534Y316241D02*X138214Y316561D01*
X138534Y316241D02*Y315281D01*
X137254D02*X139814D01*
X138534Y315793D02*X139814Y316561D01*
X137766Y317329D02*X137254Y317841D01*
X139814D01*
Y318289D02*Y317329D01*
X137254Y320017D02*X137574Y320337D01*
X137254Y320017D02*Y319377D01*
X137574Y319057D02*X137254Y319377D01*
X137574Y319057D02*X139494D01*
X139814Y319377D01*
X138406Y320017D02*X138726Y320337D01*
X138406Y320017D02*Y319057D01*
X139814Y320017D02*Y319377D01*
Y320017D02*X139494Y320337D01*
X138726D02*X139494D01*
X137254Y308760D02*Y307480D01*
Y308760D02*X137574Y309080D01*
X138214D01*
X138534Y308760D02*X138214Y309080D01*
X138534Y308760D02*Y307800D01*
X137254D02*X139814D01*
X138534Y308312D02*X139814Y309080D01*
X137766Y309848D02*X137254Y310360D01*
X139814D01*
Y310808D02*Y309848D01*
X137574Y311576D02*X137254Y311896D01*
Y312536D02*Y311896D01*
Y312536D02*X137574Y312856D01*
X139814Y312536D02*X139494Y312856D01*
X139814Y312536D02*Y311896D01*
X139494Y311576D02*X139814Y311896D01*
X138406Y312536D02*Y311896D01*
X137574Y312856D02*X138086D01*
X138726D02*X139494D01*
X138726D02*X138406Y312536D01*
X138086Y312856D02*X138406Y312536D01*
X135877Y308760D02*Y307928D01*
X135429Y307480D02*X135877Y307928D01*
X133765Y307480D02*X135429D01*
X133765D02*X133317Y307928D01*
Y308760D02*Y307928D01*
X133637Y309528D02*X133317Y309848D01*
Y310808D02*Y309848D01*
Y310808D02*X133637Y311128D01*
X134277D01*
X135877Y309528D02*X134277Y311128D01*
X135877D02*Y309528D01*
X133637Y311896D02*X133317Y312216D01*
Y312856D02*Y312216D01*
Y312856D02*X133637Y313176D01*
X135877Y312856D02*X135557Y313176D01*
X135877Y312856D02*Y312216D01*
X135557Y311896D02*X135877Y312216D01*
X134469Y312856D02*Y312216D01*
X133637Y313176D02*X134149D01*
X134789D02*X135557D01*
X134789D02*X134469Y312856D01*
X134149Y313176D02*X134469Y312856D01*
X135877Y315847D02*Y315015D01*
X135429Y314567D02*X135877Y315015D01*
X133765Y314567D02*X135429D01*
X133765D02*X133317Y315015D01*
Y315847D02*Y315015D01*
X133637Y316615D02*X133317Y316935D01*
Y317895D02*Y316935D01*
Y317895D02*X133637Y318215D01*
X134277D01*
X135877Y316615D02*X134277Y318215D01*
X135877D02*Y316615D01*
X133637Y318983D02*X133317Y319303D01*
Y320263D02*Y319303D01*
Y320263D02*X133637Y320583D01*
X134277D01*
X135877Y318983D02*X134277Y320583D01*
X135877D02*Y318983D01*
X285488Y329059D02*Y328259D01*
Y329059D02*X288988D01*
X289488Y328559D02*X288988Y329059D01*
X289488Y328559D02*Y328059D01*
X288988Y327559D02*X289488Y328059D01*
X288488Y327559D02*X288988D01*
X286288Y330259D02*X285488Y331059D01*
X289488D01*
Y331759D02*Y330259D01*
X287988Y332959D02*X285488Y334959D01*
X287988Y335459D02*Y332959D01*
X285488Y334959D02*X289488D01*
X274409Y329281D02*X275689D01*
X276009Y328961D01*
Y328321D01*
X275689Y328001D02*X276009Y328321D01*
X274729Y328001D02*X275689D01*
X274729Y329281D02*Y326721D01*
X275241Y328001D02*X276009Y326721D01*
X276777Y329281D02*X278057D01*
X276777D02*Y328001D01*
X277097Y328321D01*
X277737D01*
X278057Y328001D01*
Y327041D01*
X277737Y326721D02*X278057Y327041D01*
X277097Y326721D02*X277737D01*
X276777Y327041D02*X277097Y326721D01*
X278825Y327041D02*X279145Y326721D01*
X278825Y328961D02*Y327041D01*
Y328961D02*X279145Y329281D01*
X279785D01*
X280105Y328961D01*
Y327041D01*
X279785Y326721D02*X280105Y327041D01*
X279145Y326721D02*X279785D01*
X278825Y327361D02*X280105Y328641D01*
X266535Y329281D02*X267815D01*
X268135Y328961D01*
Y328321D01*
X267815Y328001D02*X268135Y328321D01*
X266855Y328001D02*X267815D01*
X266855Y329281D02*Y326721D01*
X267367Y328001D02*X268135Y326721D01*
X268903Y327681D02*X270183Y329281D01*
X268903Y327681D02*X270503D01*
X270183Y329281D02*Y326721D01*
X271591D02*X272551Y328001D01*
Y328961D02*Y328001D01*
X272231Y329281D02*X272551Y328961D01*
X271591Y329281D02*X272231D01*
X271271Y328961D02*X271591Y329281D01*
X271271Y328961D02*Y328321D01*
X271591Y328001D01*
X272551D01*
X247276Y329315D02*X247776Y328815D01*
X245776Y329315D02*X247276D01*
X245276Y328815D02*X245776Y329315D01*
X245276Y328815D02*Y327815D01*
X245776Y327315D01*
X247276D01*
X247776Y326815D01*
Y325815D01*
X247276Y325315D02*X247776Y325815D01*
X245776Y325315D02*X247276D01*
X245276Y325815D02*X245776Y325315D01*
X248976Y328815D02*X249476Y329315D01*
X250976D01*
X251476Y328815D01*
Y327815D01*
X248976Y325315D02*X251476Y327815D01*
X248976Y325315D02*X251476D01*
X270185Y321441D02*Y317441D01*
X271485Y321441D02*X272185Y320741D01*
Y318141D01*
X271485Y317441D02*X272185Y318141D01*
X269685Y317441D02*X271485D01*
X269685Y321441D02*X271485D01*
X273385Y320641D02*X274185Y321441D01*
Y317441D01*
X273385D02*X274885D01*
X276085Y320941D02*X276585Y321441D01*
X277585D01*
X278085Y320941D01*
X277585Y317441D02*X278085Y317941D01*
X276585Y317441D02*X277585D01*
X276085Y317941D02*X276585Y317441D01*
Y319641D02*X277585D01*
X278085Y320941D02*Y320141D01*
Y319141D02*Y317941D01*
Y319141D02*X277585Y319641D01*
X278085Y320141D02*X277585Y319641D01*
X272294Y305217D02*Y303937D01*
Y305217D02*X272614Y305537D01*
X273254D01*
X273574Y305217D02*X273254Y305537D01*
X273574Y305217D02*Y304257D01*
X272294D02*X274854D01*
X273574Y304769D02*X274854Y305537D01*
X272294Y307265D02*X272614Y307585D01*
X272294Y307265D02*Y306625D01*
X272614Y306305D02*X272294Y306625D01*
X272614Y306305D02*X274534D01*
X274854Y306625D01*
X273446Y307265D02*X273766Y307585D01*
X273446Y307265D02*Y306305D01*
X274854Y307265D02*Y306625D01*
Y307265D02*X274534Y307585D01*
X273766D02*X274534D01*
X274854Y308673D02*X272294Y309953D01*
Y308353D01*
X276231Y305217D02*Y303937D01*
Y305217D02*X276551Y305537D01*
X277191D01*
X277511Y305217D02*X277191Y305537D01*
X277511Y305217D02*Y304257D01*
X276231D02*X278791D01*
X277511Y304769D02*X278791Y305537D01*
X276231Y307265D02*X276551Y307585D01*
X276231Y307265D02*Y306625D01*
X276551Y306305D02*X276231Y306625D01*
X276551Y306305D02*X278471D01*
X278791Y306625D01*
X277383Y307265D02*X277703Y307585D01*
X277383Y307265D02*Y306305D01*
X278791Y307265D02*Y306625D01*
Y307265D02*X278471Y307585D01*
X277703D02*X278471D01*
X276231Y309633D02*Y308353D01*
X277511D01*
X277191Y308673D01*
Y309313D02*Y308673D01*
Y309313D02*X277511Y309633D01*
X278471D01*
X278791Y309313D02*X278471Y309633D01*
X278791Y309313D02*Y308673D01*
X278471Y308353D02*X278791Y308673D01*
X262599Y270158D02*Y269339D01*
X262158Y268898D02*X262599Y269339D01*
X260520Y268898D02*X262158D01*
X260520D02*X260079Y269339D01*
Y270158D02*Y269339D01*
X261654Y270914D02*X260079Y272174D01*
X261654Y272489D02*Y270914D01*
X260079Y272174D02*X262599D01*
X260583Y273245D02*X260079Y273749D01*
X262599D01*
Y274190D02*Y273245D01*
X252959Y267030D02*X256919D01*
X252959Y268317D02*X253652Y269010D01*
X256226D01*
X256919Y268317D02*X256226Y269010D01*
X256919Y268317D02*Y266535D01*
X252959Y268317D02*Y266535D01*
Y272178D02*X253454Y272673D01*
X252959Y272178D02*Y270693D01*
X253454Y270198D02*X252959Y270693D01*
X253454Y270198D02*X254444D01*
X254939Y270693D01*
Y272178D02*Y270693D01*
Y272178D02*X255434Y272673D01*
X256424D01*
X256919Y272178D02*X256424Y272673D01*
X256919Y272178D02*Y270693D01*
X256424Y270198D02*X256919Y270693D01*
X252959Y275346D02*X253454Y275841D01*
X252959Y275346D02*Y274356D01*
X253454Y273861D02*X252959Y274356D01*
X253454Y273861D02*X256424D01*
X256919Y274356D01*
X254741Y275346D02*X255236Y275841D01*
X254741Y275346D02*Y273861D01*
X256919Y275346D02*Y274356D01*
Y275346D02*X256424Y275841D01*
X255236D02*X256424D01*
X268810Y273803D02*X269610D01*
Y270303D01*
X269110Y269803D02*X269610Y270303D01*
X268610Y269803D02*X269110D01*
X268110Y270303D02*X268610Y269803D01*
X268110Y270803D02*Y270303D01*
X270810Y273003D02*X271610Y273803D01*
Y269803D01*
X270810D02*X272310D01*
X273510Y273003D02*X274310Y273803D01*
Y269803D01*
X273510D02*X275010D01*
X237795Y291486D02*X239075D01*
X239395Y291166D01*
Y290526D01*
X239075Y290206D02*X239395Y290526D01*
X238115Y290206D02*X239075D01*
X238115Y291486D02*Y288926D01*
X238627Y290206D02*X239395Y288926D01*
X240163Y289886D02*X241443Y291486D01*
X240163Y289886D02*X241763D01*
X241443Y291486D02*Y288926D01*
X242531Y289246D02*X242851Y288926D01*
X242531Y289758D02*Y289246D01*
Y289758D02*X242979Y290206D01*
X243363D01*
X243811Y289758D01*
Y289246D01*
X243491Y288926D02*X243811Y289246D01*
X242851Y288926D02*X243491D01*
X242531Y290654D02*X242979Y290206D01*
X242531Y291166D02*Y290654D01*
Y291166D02*X242851Y291486D01*
X243491D01*
X243811Y291166D01*
Y290654D01*
X243363Y290206D02*X243811Y290654D01*
X252969Y283102D02*Y281102D01*
Y283102D02*X253469Y283602D01*
X254469D01*
X254969Y283102D02*X254469Y283602D01*
X254969Y283102D02*Y281602D01*
X252969D02*X256969D01*
X254969Y282402D02*X256969Y283602D01*
X253469Y284802D02*X252969Y285302D01*
Y286302D02*Y285302D01*
Y286302D02*X253469Y286802D01*
X256969Y286302D02*X256469Y286802D01*
X256969Y286302D02*Y285302D01*
X256469Y284802D02*X256969Y285302D01*
X254769Y286302D02*Y285302D01*
X253469Y286802D02*X254269D01*
X255269D02*X256469D01*
X255269D02*X254769Y286302D01*
X254269Y286802D02*X254769Y286302D01*
X256469Y288002D02*X256969Y288502D01*
X255669Y288002D02*X256469D01*
X255669D02*X254969Y288702D01*
Y289302D02*Y288702D01*
Y289302D02*X255669Y290002D01*
X256469D01*
X256969Y289502D02*X256469Y290002D01*
X256969Y289502D02*Y288502D01*
X254269Y288002D02*X254969Y288702D01*
X253469Y288002D02*X254269D01*
X253469D02*X252969Y288502D01*
Y289502D02*Y288502D01*
Y289502D02*X253469Y290002D01*
X254269D01*
X254969Y289302D02*X254269Y290002D01*
X251681Y305693D02*Y301693D01*
X252981Y305693D02*X253681Y304993D01*
Y302393D01*
X252981Y301693D02*X253681Y302393D01*
X251181Y301693D02*X252981D01*
X251181Y305693D02*X252981D01*
X254881Y304893D02*X255681Y305693D01*
Y301693D01*
X254881D02*X256381D01*
X257581Y303193D02*X259581Y305693D01*
X257581Y303193D02*X260081D01*
X259581Y305693D02*Y301693D01*
X268357Y305217D02*Y303937D01*
Y305217D02*X268677Y305537D01*
X269317D01*
X269637Y305217D02*X269317Y305537D01*
X269637Y305217D02*Y304257D01*
X268357D02*X270917D01*
X269637Y304769D02*X270917Y305537D01*
X268357Y307265D02*X268677Y307585D01*
X268357Y307265D02*Y306625D01*
X268677Y306305D02*X268357Y306625D01*
X268677Y306305D02*X270597D01*
X270917Y306625D01*
X269509Y307265D02*X269829Y307585D01*
X269509Y307265D02*Y306305D01*
X270917Y307265D02*Y306625D01*
Y307265D02*X270597Y307585D01*
X269829D02*X270597D01*
Y308353D02*X270917Y308673D01*
X270085Y308353D02*X270597D01*
X270085D02*X269637Y308801D01*
Y309185D02*Y308801D01*
Y309185D02*X270085Y309633D01*
X270597D01*
X270917Y309313D02*X270597Y309633D01*
X270917Y309313D02*Y308673D01*
X269189Y308353D02*X269637Y308801D01*
X268677Y308353D02*X269189D01*
X268677D02*X268357Y308673D01*
Y309313D02*Y308673D01*
Y309313D02*X268677Y309633D01*
X269189D01*
X269637Y309185D02*X269189Y309633D01*
M02*
