M48
INCH,TZ
T10C0.063
T11C0.026
T12C0.047
T13C0.031
T14C0.039
T15C0.028
T16C0.057
T17C0.035
T18C0.012
T19C0.126
%
T10
X006299Y028642
X006299Y025689
X006299Y021555
X006299Y018602
X006299Y014469
X006299Y011516
X006535Y035039
X008504Y035039
X027165Y028642
X027165Y025689
X027165Y021555
X027165Y018602
X027165Y014469
X027165Y011516
T11
X017701Y034213
X017701Y033713
X018201Y034213
X018201Y033713
X018701Y034213
X018701Y033713
X019201Y034213
X019201Y033713
X019701Y034213
X019701Y033713
T12
X011455Y035827
X012955Y035827
X014998Y035827
X016498Y035827
X019449Y036909
X022677Y036909
X025628Y035827
X027128Y035827
X007480Y032677
X023622Y032677
T13
X020108Y035697
X022018Y035697
T14
X010669Y030488
X010669Y029488
X028740Y035724
X028740Y034724
X028740Y033724
X028740Y032724
X028740Y031724
X028740Y030724
T15
X016732Y030866
X016732Y028898
T16
X004878Y008193
X004878Y007193
X004878Y006193
X004878Y005193
X007878Y008193
X007878Y007193
X007878Y006193
X007878Y005193
X009366Y008193
X009366Y005193
X010366Y008193
X010366Y005193
X011366Y008193
X011366Y005193
X012366Y008193
X012366Y005193
X021177Y008193
X021177Y005193
X022177Y008193
X022177Y005193
X023177Y008193
X023177Y005193
X024177Y008193
X024177Y005193
T17
X007677Y033740
X007677Y031614
X008661Y033740
X008661Y031614
X009646Y033740
X009646Y031614
X023819Y033740
X023819Y031614
X024803Y033740
X024803Y031614
X025787Y033740
X025787Y031614
T18
X004488Y030197
X004567Y029724
X004646Y034902
X004803Y032913
X004803Y009606
X004843Y016693
X004882Y036850
X005039Y034528
X005039Y030315
X005197Y032913
X005197Y024134
X005354Y030315
X005591Y032913
X005669Y036850
X005669Y030315
X005669Y023110
X005669Y016024
X005984Y032913
X005984Y030315
X005984Y023110
X005984Y016024
X006299Y027165
X006299Y023110
X006299Y020079
X006299Y016024
X006299Y012992
X006299Y009016
X006457Y036850
X006654Y030472
X006890Y029252
X007008Y030472
X007008Y030118
X007008Y029764
X007008Y009606
X007008Y009291
X007165Y029449
X007244Y036850
X007283Y009449
X007323Y026654
X007323Y026417
X007323Y019567
X007323Y019331
X007323Y012480
X007323Y012244
X008031Y036850
X008031Y030000
X008031Y029646
X008346Y009528
X008386Y030079
X008622Y030354
X008819Y036850
X009291Y030000
X009488Y030197
X009606Y036850
X009685Y030000
X009685Y023425
X009685Y023110
X009685Y022795
X009685Y022480
X009685Y022165
X009685Y021535
X009685Y021220
X009685Y020906
X009685Y020591
X009685Y020276
X009685Y017913
X009685Y017598
X009685Y017283
X009685Y016969
X009685Y016654
X009685Y016339
X009685Y016024
X009685Y015709
X009685Y015394
X009685Y015079
X009685Y014764
X009764Y019331
X009764Y019016
X009961Y023583
X009961Y023268
X009961Y022953
X009961Y022638
X009961Y022323
X009961Y021378
X009961Y021063
X009961Y020748
X009961Y020433
X009961Y020118
X009961Y018071
X009961Y017756
X009961Y017441
X009961Y017126
X009961Y016811
X009961Y016496
X009961Y016181
X009961Y015866
X009961Y015551
X009961Y015236
X009961Y014921
X009961Y014606
X009961Y009252
X009961Y008858
X010039Y019488
X010039Y019173
X010039Y018858
X010236Y031496
X010276Y009409
X010394Y036850
X010591Y009567
X010866Y008858
X011181Y036850
X011299Y013858
X011299Y013543
X011457Y023504
X011457Y020197
X011457Y017992
X011457Y014685
X011575Y014016
X011575Y013701
X011575Y013386
X011614Y023780
X011614Y019921
X011614Y018268
X011614Y014409
X011772Y023504
X011772Y020197
X011772Y017992
X011772Y014685
X011791Y025807
X011850Y008858
X011929Y023780
X011929Y019921
X011929Y018268
X011929Y014409
X011969Y036850
X011969Y025650
X012008Y029331
X012008Y029055
X012008Y028780
X012008Y028504
X012047Y028031
X012047Y027756
X012087Y023504
X012087Y020197
X012087Y017992
X012087Y014685
X012146Y025807
X012244Y023780
X012244Y019921
X012244Y018268
X012244Y014409
X012323Y032205
X012323Y030394
X012402Y029331
X012402Y029055
X012402Y028780
X012402Y028504
X012402Y026535
X012402Y026260
X012402Y023504
X012402Y020197
X012402Y017992
X012402Y014685
X012559Y023780
X012559Y019921
X012559Y018268
X012559Y014409
X012598Y032126
X012598Y030394
X012638Y024724
X012717Y023504
X012717Y020197
X012717Y017992
X012717Y014685
X012756Y036850
X012874Y023780
X012874Y019921
X012874Y018268
X012874Y014409
X012874Y008858
X013031Y023504
X013031Y020197
X013031Y017992
X013031Y014685
X013110Y031063
X013110Y030709
X013189Y023780
X013189Y019921
X013189Y018268
X013189Y014409
X013248Y025374
X013268Y034291
X013346Y023504
X013346Y020197
X013346Y017992
X013346Y014685
X013366Y025768
X013465Y026535
X013484Y027008
X013543Y036850
X013740Y010472
X013740Y010157
X013819Y029606
X013819Y029213
X014016Y010630
X014016Y010315
X014094Y033740
X014134Y029213
X014252Y030709
X014291Y027756
X014331Y036850
X014370Y032283
X014409Y027480
X014409Y027244
X014409Y026772
X014409Y026516
X014488Y029921
X014488Y025374
X014488Y025020
X014528Y027756
X014606Y031417
X014606Y030945
X014646Y029449
X014646Y028898
X014646Y024685
X014685Y032283
X014724Y030630
X014764Y020433
X014764Y014921
X014882Y008858
X014882Y008543
X014882Y008228
X014882Y007913
X014882Y007598
X014882Y007283
X014882Y006969
X014882Y006417
X014882Y006102
X014882Y005787
X014882Y005472
X014882Y005157
X014882Y004843
X014882Y004528
X014961Y034882
X014961Y031614
X014961Y029921
X015000Y025276
X015079Y030551
X015118Y036850
X015118Y010630
X015118Y010315
X015118Y008701
X015118Y008386
X015118Y008071
X015118Y007756
X015118Y007441
X015118Y007126
X015118Y006260
X015118Y005945
X015118Y005630
X015118Y005315
X015118Y005000
X015118Y004685
X015197Y025866
X015197Y023583
X015197Y023228
X015276Y034449
X015276Y032323
X015354Y028504
X015354Y008858
X015354Y008543
X015354Y008228
X015354Y007913
X015354Y007598
X015354Y007283
X015354Y006969
X015354Y006417
X015354Y006102
X015354Y005787
X015354Y005472
X015354Y005157
X015354Y004843
X015354Y004528
X015394Y024961
X015394Y010472
X015394Y010157
X015472Y026181
X015512Y034134
X015512Y031102
X015512Y017953
X015512Y017598
X015551Y026969
X015551Y026614
X015630Y032323
X015669Y027638
X015669Y025197
X015709Y014724
X015906Y036850
X015945Y024961
X016024Y027520
X016142Y031142
X016142Y025787
X016220Y006929
X016220Y006457
X016260Y033701
X016339Y027520
X016378Y028386
X016378Y006693
X016417Y026024
X016417Y025551
X016457Y023228
X016457Y017953
X016496Y029370
X016535Y031339
X016535Y006929
X016535Y006457
X016614Y033701
X016614Y032441
X016614Y023583
X016614Y017598
X016614Y015945
X016693Y036850
X016693Y012795
X016693Y012480
X016693Y012165
X016693Y011850
X016693Y011535
X016693Y011220
X016693Y010906
X016693Y006693
X016732Y027520
X016811Y024921
X016850Y006929
X016850Y006457
X016890Y035118
X016890Y014213
X016969Y012953
X016969Y012638
X016969Y012323
X016969Y012008
X016969Y011693
X016969Y011378
X016969Y011063
X016969Y010748
X017008Y035315
X017008Y006693
X017047Y027520
X017126Y035118
X017126Y028543
X017165Y030354
X017165Y024961
X017205Y029567
X017205Y029134
X017244Y017953
X017244Y017598
X017244Y012795
X017244Y012480
X017244Y012165
X017244Y011850
X017244Y011535
X017244Y011220
X017244Y010906
X017362Y032283
X017402Y027362
X017441Y033307
X017441Y032913
X017480Y036850
X017520Y031654
X017520Y014213
X017520Y012953
X017520Y012638
X017520Y012323
X017520Y012008
X017520Y011693
X017520Y011378
X017520Y011063
X017520Y010748
X017638Y025000
X017677Y027638
X017717Y023583
X017717Y023228
X017756Y026260
X017874Y014764
X017992Y025039
X018110Y036102
X018110Y032165
X018110Y030748
X018110Y030394
X018110Y028543
X018110Y027992
X018150Y029803
X018386Y028819
X018386Y028268
X018386Y024961
X018386Y008858
X018386Y008543
X018386Y008228
X018386Y007913
X018386Y007598
X018386Y007283
X018386Y006969
X018386Y006417
X018386Y006102
X018386Y005787
X018386Y005472
X018386Y005157
X018386Y004843
X018386Y004528
X018425Y030000
X018622Y033031
X018622Y031693
X018622Y011535
X018661Y009094
X018661Y008701
X018661Y008386
X018661Y008071
X018661Y007756
X018661Y007441
X018661Y007126
X018661Y006260
X018661Y005945
X018661Y005630
X018661Y005315
X018661Y005000
X018661Y004685
X018701Y017756
X018780Y030630
X018819Y036102
X018937Y035118
X018937Y034803
X018937Y008858
X018937Y008543
X018937Y008228
X018937Y007913
X018937Y007598
X018937Y007283
X018937Y006969
X018937Y006417
X018937Y006102
X018937Y005787
X018937Y005472
X018937Y005157
X018937Y004843
X018937Y004528
X018976Y031693
X019252Y031063
X019252Y030630
X019370Y028150
X019488Y032598
X019488Y026260
X019646Y028386
X019646Y023268
X019764Y032795
X019764Y028701
X019843Y031535
X019843Y031181
X019843Y025039
X020039Y011535
X020118Y033622
X020118Y023504
X020118Y020197
X020118Y017992
X020118Y014685
X020197Y030433
X020197Y024724
X020236Y027126
X020276Y023780
X020276Y019921
X020276Y018268
X020276Y014409
X020433Y031496
X020433Y023504
X020433Y020197
X020433Y017992
X020433Y014685
X020472Y031102
X020551Y030433
X020551Y025472
X020591Y034488
X020591Y023780
X020591Y019921
X020591Y018268
X020591Y014409
X020630Y028780
X020748Y028150
X020748Y023504
X020748Y020197
X020748Y017992
X020748Y014685
X020787Y031260
X020866Y028504
X020906Y031614
X020906Y023780
X020906Y019921
X020906Y018268
X020906Y014409
X021063Y029449
X021063Y029094
X021063Y023504
X021063Y020197
X021063Y017992
X021063Y014685
X021102Y028189
X021142Y012953
X021142Y012638
X021142Y012323
X021142Y012008
X021142Y011693
X021142Y011378
X021142Y011063
X021142Y010748
X021181Y030394
X021220Y023780
X021220Y019921
X021220Y018268
X021220Y014409
X021299Y026654
X021378Y028622
X021378Y023504
X021378Y020197
X021378Y017992
X021378Y014685
X021417Y012795
X021417Y012480
X021417Y012165
X021417Y011850
X021417Y011535
X021417Y011220
X021417Y010906
X021457Y030630
X021535Y028071
X021535Y023780
X021535Y019921
X021535Y018268
X021535Y014409
X021575Y036260
X021654Y026654
X021693Y031142
X021693Y029724
X021693Y023504
X021693Y020197
X021693Y017992
X021693Y014685
X021693Y012953
X021693Y012638
X021693Y012323
X021693Y012008
X021693Y011693
X021693Y011378
X021693Y011063
X021693Y010748
X021732Y033976
X021732Y033701
X021732Y028622
X021850Y033110
X021850Y031614
X021850Y024252
X021850Y023780
X021850Y019921
X021850Y018268
X021850Y014409
X021969Y032520
X021969Y012795
X021969Y012480
X021969Y012165
X021969Y011850
X021969Y011535
X021969Y011220
X021969Y010906
X022008Y033425
X022008Y026654
X022008Y023504
X022008Y020197
X022008Y017992
X022008Y014685
X022087Y032835
X022205Y034961
X022205Y031654
X022283Y027047
X022598Y027480
X022835Y033543
X022835Y033189
X022913Y032638
X022913Y029409
X022953Y034961
X022953Y019488
X022953Y019173
X022953Y018858
X022992Y014016
X022992Y013701
X022992Y013386
X023071Y029094
X023150Y032913
X023150Y032323
X023189Y036063
X023228Y019331
X023228Y019016
X023268Y013858
X023268Y013543
X023307Y035512
X023386Y032047
X023504Y030630
X023504Y029961
X023504Y023583
X023504Y023268
X023504Y022953
X023504Y022638
X023504Y022323
X023504Y021378
X023504Y021063
X023504Y020748
X023504Y020433
X023504Y020118
X023504Y018071
X023504Y017756
X023504Y017441
X023504Y017126
X023504Y016811
X023504Y016496
X023504Y016181
X023504Y015866
X023504Y015551
X023504Y015236
X023504Y014921
X023504Y014606
X023583Y029528
X023583Y028819
X023583Y026693
X023622Y030276
X023780Y023425
X023780Y023110
X023780Y022795
X023780Y022480
X023780Y022165
X023780Y021535
X023780Y021220
X023780Y020906
X023780Y020591
X023780Y020276
X023780Y017913
X023780Y017598
X023780Y017283
X023780Y016969
X023780Y016654
X023780Y016339
X023780Y016024
X023780Y015709
X023780Y015394
X023780Y015079
X023780Y014764
X023858Y034488
X024016Y036142
X024291Y028228
X024331Y032402
X024646Y030512
X024685Y036850
X024685Y035315
X024685Y034291
X024685Y030157
X025433Y036850
X025551Y030512
X025630Y034606
X025669Y029843
X025669Y026378
X025669Y019291
X025669Y012205
X025787Y032402
X025827Y030748
X026024Y029843
X026063Y027913
X026063Y027677
X026063Y020827
X026063Y020591
X026063Y013740
X026063Y013504
X026142Y030945
X026220Y036850
X026220Y016772
X026260Y023386
X026299Y009094
X026299Y008780
X026299Y008465
X026299Y008150
X026299Y007835
X026299Y005984
X026299Y005669
X026299Y005354
X026299Y005039
X026299Y004724
X026378Y036220
X026378Y029843
X026417Y031220
X026457Y033661
X026457Y032795
X026496Y016929
X026496Y016614
X026535Y023543
X026535Y023228
X026575Y009252
X026575Y008937
X026575Y008622
X026575Y008307
X026575Y007992
X026575Y007677
X026575Y006142
X026575Y005827
X026575Y005512
X026575Y005197
X026575Y004882
X026575Y004567
X026811Y010000
X026969Y034016
X026969Y033307
X026969Y031929
X026969Y030236
X026969Y010276
X027008Y036850
X027126Y010000
X027362Y030236
X027677Y009252
X027677Y008937
X027677Y008622
X027677Y008307
X027677Y007992
X027677Y007677
X027677Y006142
X027677Y005827
X027677Y005512
X027677Y005197
X027677Y004882
X027677Y004567
X027756Y035315
X027756Y031535
X027756Y030236
X027795Y036850
X027795Y027165
X027795Y020079
X027795Y012992
X027874Y024134
X027874Y017047
X027953Y009094
X027953Y008780
X027953Y008465
X027953Y008150
X027953Y007835
X027953Y005984
X027953Y005669
X027953Y005354
X027953Y005039
X027953Y004724
X028150Y034921
X028150Y031220
X028425Y009409
X028583Y036850
X028976Y036457
X028976Y034213
X028976Y033228
X028976Y032205
X028976Y031220
X028976Y030197
T19
X010433Y012795
X023031Y025394
M30

