G04 start of page 13 for group -4078 idx -4078 *
G04 Title: (unknown), bottomsilk *
G04 Creator: pcb 20140316 *
G04 CreationDate: Tue 21 Mar 2017 17:58:39 GMT UTC *
G04 For: kier *
G04 Format: Gerber/RS-274X *
G04 PCB-Dimensions (mil): 3346.46 4133.86 *
G04 PCB-Coordinate-Origin: lower left *
%MOIN*%
%FSLAX25Y25*%
%LNBOTTOMSILK*%
%ADD204C,0.0059*%
%ADD203C,0.0079*%
%ADD202C,0.0001*%
G54D202*G36*
X132373Y168044D02*X133328D01*
X134538Y167898D01*
X135325Y167458D01*
X135764Y166634D01*
X135911Y165375D01*
X135819Y164550D01*
X135543Y163916D01*
X135086Y163465D01*
X134457Y163199D01*
Y163183D01*
X134967Y162901D01*
X135336Y162489D01*
X135553Y161925D01*
X135629Y161225D01*
X135498Y159981D01*
X135108Y159250D01*
X134283Y158897D01*
X132872Y158778D01*
X132373D01*
Y159662D01*
X132851D01*
X133773Y159733D01*
X134306Y159944D01*
X134549Y160373D01*
X134630Y161143D01*
X134533Y162033D01*
X134261Y162548D01*
X133648Y162776D01*
X132569Y162852D01*
X132373D01*
Y163747D01*
X132525D01*
X133849Y163813D01*
X134543Y164030D01*
X134815Y164534D01*
X134912Y165549D01*
X134815Y166368D01*
X134543Y166845D01*
X133963Y167079D01*
X132981Y167155D01*
X132373D01*
Y168044D01*
G37*
G36*
X128793D02*X132373D01*
Y167155D01*
X129834D01*
Y163747D01*
X132373D01*
Y162852D01*
X129834D01*
Y159662D01*
X132373D01*
Y158778D01*
X128793D01*
Y168044D01*
G37*
G36*
X146436Y142111D02*X145481D01*
Y145692D01*
X145459Y145708D01*
X145204Y145307D01*
X144765Y145025D01*
X144146Y144851D01*
X143658Y144818D01*
Y145591D01*
X144521Y145708D01*
X145090Y146077D01*
X145383Y146788D01*
X145481Y147949D01*
X145389Y149359D01*
X145134Y150179D01*
X144575Y150553D01*
X143658Y150677D01*
Y151417D01*
X144759Y151226D01*
X145503Y150526D01*
X145546D01*
X145481Y151378D01*
X146436D01*
Y142111D01*
G37*
G36*
X143658Y144818D02*X143354Y144797D01*
X142150Y144976D01*
X141380Y145518D01*
X140967Y146489D01*
X140837Y148030D01*
X140967Y149701D01*
X141380Y150743D01*
X142166Y151280D01*
X143419Y151459D01*
X143658Y151417D01*
Y150677D01*
X143615Y150683D01*
X142709Y150553D01*
X142182Y150179D01*
X141917Y149381D01*
X141835Y148030D01*
X141917Y146804D01*
X142182Y146077D01*
X142703Y145708D01*
X143593Y145583D01*
X143658Y145591D01*
Y144818D01*
G37*
G36*
X135802Y144889D02*Y151378D01*
X136757D01*
Y147493D01*
X136856Y146630D01*
X137148Y146023D01*
X137647Y145654D01*
X138341Y145535D01*
X139150Y145784D01*
X139426Y146533D01*
X139406Y146864D01*
X139383Y147037D01*
X140316D01*
Y146576D01*
X140202Y145768D01*
X139866Y145193D01*
X139312Y144846D01*
X138536Y144731D01*
X137413Y144965D01*
X136670Y145665D01*
X136648Y145648D01*
X136757Y144889D01*
X135802D01*
G37*
G36*
X131505Y145545D02*X131636Y145535D01*
X132487Y145616D01*
X132981Y145865D01*
X133203Y146381D01*
X133285Y147292D01*
Y148095D01*
X133263D01*
X132574Y147596D01*
X131505Y147463D01*
Y148166D01*
X132357Y148231D01*
X132938Y148442D01*
X133231Y148828D01*
X133328Y149468D01*
X133198Y150000D01*
X132824Y150379D01*
X132200Y150607D01*
X131505Y150668D01*
Y151405D01*
X132520Y151258D01*
X133350Y150662D01*
Y150683D01*
X133285Y151378D01*
X134240D01*
Y147097D01*
X134093Y145969D01*
X133654Y145280D01*
X132824Y144916D01*
X131505Y144799D01*
Y145545D01*
G37*
G36*
Y147463D02*X131223Y147428D01*
X129993Y147537D01*
X129227Y147884D01*
X128814Y148502D01*
X128684Y149484D01*
X128836Y150347D01*
X129293Y150965D01*
X130057Y151334D01*
X131136Y151459D01*
X131505Y151405D01*
Y150668D01*
X131332Y150683D01*
X130496Y150623D01*
X130008Y150444D01*
X129764Y150048D01*
X129682Y149376D01*
X129764Y148752D01*
X130008Y148405D01*
X130519Y148220D01*
X131419Y148160D01*
X131505Y148166D01*
Y147463D01*
G37*
G36*
X129899Y146706D02*Y146517D01*
X130002Y146088D01*
X130328Y145779D01*
X130871Y145594D01*
X131505Y145545D01*
Y144799D01*
X131484Y144797D01*
X130230Y144894D01*
X129465Y145187D01*
X129086Y145762D01*
X128966Y146706D01*
X129899D01*
G37*
G36*
X185585Y54127D02*X186171Y55689D01*
X187039D01*
X184283Y48283D01*
X183718D01*
Y49020D01*
X185346Y53492D01*
X183718D01*
Y54127D01*
X185585D01*
G37*
G36*
X183718Y48283D02*X183111D01*
X180398Y55689D01*
X181266D01*
X181852Y54127D01*
X183718D01*
Y53492D01*
X182091D01*
X183697Y48962D01*
X183718Y49020D01*
Y48283D01*
G37*
G36*
X176926Y55776D02*X177826Y55731D01*
X178543Y55602D01*
X179074Y55385D01*
X179422Y55081D01*
X179595Y54680D01*
X179725Y54029D01*
X179807Y53128D01*
X179834Y51978D01*
X179801Y50774D01*
X179720Y49835D01*
X179584Y49168D01*
X179400Y48761D01*
X179085Y48517D01*
X178570Y48343D01*
X177848Y48235D01*
X176926Y48202D01*
Y48918D01*
X178163Y49016D01*
X178749Y49325D01*
X178955Y50188D01*
X179031Y51978D01*
X179009Y52998D01*
X178955Y53785D01*
X178868Y54344D01*
X178749Y54664D01*
X178163Y54957D01*
X176926Y55054D01*
Y55776D01*
G37*
G36*
X176926Y48202D02*X175298Y48338D01*
X174452Y48744D01*
X174256Y49130D01*
X174121Y49754D01*
X174040Y50616D01*
X174018Y51712D01*
X174040Y52981D01*
X174115Y53964D01*
X174246Y54664D01*
X174430Y55081D01*
X174777Y55385D01*
X175309Y55602D01*
X176025Y55731D01*
X176926Y55776D01*
X176926Y55776D01*
Y55054D01*
X176926Y55054D01*
X175678Y54957D01*
X175081Y54664D01*
X174967Y54344D01*
X174886Y53785D01*
X174837Y52998D01*
X174821Y51978D01*
X174886Y50188D01*
X175081Y49325D01*
X175678Y49016D01*
X176926Y48918D01*
X176926Y48918D01*
Y48202D01*
X176926Y48202D01*
G37*
G36*
X171978Y48283D02*X170697D01*
X169417Y49919D01*
Y51025D01*
X171131Y48804D01*
X171153D01*
Y53275D01*
X169417D01*
Y53969D01*
X171153D01*
Y55689D01*
X171978D01*
Y53969D01*
X173085D01*
Y53275D01*
X171978D01*
Y48283D01*
G37*
G36*
X169417Y49919D02*X167008Y52998D01*
Y53969D01*
X169417D01*
Y53275D01*
X167681D01*
X169417Y51025D01*
Y49919D01*
G37*
G36*
X163080Y48283D02*X161149Y53888D01*
X160780Y55011D01*
X160758D01*
X160585Y54452D01*
X160389Y53866D01*
X158414Y48283D01*
X157503D01*
X160172Y55689D01*
X161366D01*
X163970Y48283D01*
X163080D01*
G37*
G36*
X156700Y54972D02*X152186D01*
Y54733D01*
X152251Y53796D01*
X152447Y53318D01*
X153005Y53090D01*
X154139Y52928D01*
X155458Y52689D01*
X156223Y52325D01*
X156592Y51646D01*
X156722Y50540D01*
X156592Y49379D01*
X156201Y48679D01*
X155436Y48316D01*
X154183Y48202D01*
X152767Y48311D01*
X151926Y48657D01*
X151513Y49314D01*
X151383Y50416D01*
X151362Y50806D01*
X152186D01*
Y50242D01*
X152268Y49537D01*
X152533Y49151D01*
X153119Y48972D01*
X154204Y48918D01*
X155089Y48989D01*
X155593Y49200D01*
X155837Y49644D01*
X155919Y50431D01*
X155843Y51316D01*
X155637Y51783D01*
X155078Y52016D01*
X153987Y52194D01*
X152582Y52428D01*
X151817Y52754D01*
X151475Y53329D01*
X151362Y54300D01*
Y55689D01*
X156700D01*
Y54972D01*
G37*
G36*
X148345Y48283D02*X147130D01*
X145090Y50496D01*
X145611Y51001D01*
X147499Y48896D01*
Y55689D01*
X148345D01*
Y48283D01*
G37*
G36*
X124848Y161556D02*X123785D01*
X122678Y165093D01*
X122331Y166194D01*
X122179Y166764D01*
X122006Y167301D01*
X121984D01*
X121810Y166737D01*
X121636Y166194D01*
X121289Y165093D01*
X120139Y161556D01*
X119163D01*
X121311Y168044D01*
X122678D01*
X124848Y161556D01*
G37*
G36*
X124843Y144797D02*Y145583D01*
X125857Y145681D01*
X126406Y145996D01*
X126628Y146733D01*
X126709Y148139D01*
X126628Y149528D01*
X126406Y150271D01*
X125857Y150580D01*
X124843Y150683D01*
Y151459D01*
X126319Y151307D01*
X127165Y150857D01*
X127566Y149858D01*
X127707Y148139D01*
X127566Y146408D01*
X127165Y145426D01*
X126319Y144954D01*
X124843Y144797D01*
G37*
G36*
Y144797D02*X123351Y144954D01*
X122499Y145426D01*
X122109Y146408D01*
X121978Y148139D01*
X122109Y149858D01*
X122499Y150857D01*
X123351Y151307D01*
X124843Y151459D01*
Y150683D01*
X123819Y150580D01*
X123280Y150271D01*
X123047Y149528D01*
X122977Y148139D01*
X123047Y146733D01*
X123280Y145996D01*
X123819Y145681D01*
X124843Y145583D01*
Y144797D01*
G37*
G36*
X117573Y151378D02*X118528D01*
X119738Y151231D01*
X120524Y150792D01*
X120964Y149967D01*
X121110Y148708D01*
X121019Y147884D01*
X120741Y147249D01*
X120286Y146799D01*
X119656Y146533D01*
Y146517D01*
X120166Y146234D01*
X120535Y145822D01*
X120752Y145258D01*
X120828Y144558D01*
X120698Y143316D01*
X120307Y142583D01*
X119483Y142231D01*
X118072Y142111D01*
X117573D01*
Y142994D01*
X118050D01*
X118973Y143066D01*
X119504Y143278D01*
X119749Y143706D01*
X119830Y144477D01*
X119732Y145366D01*
X119461Y145881D01*
X118848Y146110D01*
X117769Y146186D01*
X117573D01*
Y147081D01*
X117725D01*
X119049Y147146D01*
X119743Y147363D01*
X120014Y147868D01*
X120112Y148881D01*
X120014Y149701D01*
X119743Y150179D01*
X119163Y150412D01*
X118181Y150488D01*
X117573D01*
Y151378D01*
G37*
G36*
X113993D02*X117573D01*
Y150488D01*
X115034D01*
Y147081D01*
X117573D01*
Y146186D01*
X115034D01*
Y142994D01*
X117573D01*
Y142111D01*
X113993D01*
Y151378D01*
G37*
G36*
X116022Y164979D02*X118832D01*
Y164458D01*
X118685Y162939D01*
X118267Y162049D01*
X117406Y161610D01*
X116022Y161472D01*
Y162250D01*
X116954Y162326D01*
X117508Y162570D01*
X117763Y163069D01*
X117856Y163937D01*
Y164241D01*
X116022D01*
Y164979D01*
G37*
G36*
X117856Y166086D02*Y166286D01*
X117763Y166834D01*
X117508Y167155D01*
X116971Y167301D01*
X116032Y167350D01*
X116022Y167349D01*
Y168120D01*
X116076Y168126D01*
X117378Y168028D01*
X118224Y167740D01*
X118674Y167181D01*
X118832Y166324D01*
Y166086D01*
X117856D01*
G37*
G36*
X116022Y167349D02*X115034Y167247D01*
X114491Y166938D01*
X114247Y166231D01*
X114166Y164979D01*
X116022D01*
Y164241D01*
X114188D01*
X114269Y163210D01*
X114513Y162614D01*
X115056Y162342D01*
X116011Y162250D01*
X116022Y162250D01*
Y161472D01*
X115924Y161463D01*
X114556Y161631D01*
X113732Y162142D01*
X113303Y163107D01*
X113169Y164724D01*
X113298Y166466D01*
X113710Y167475D01*
X114578Y167963D01*
X116022Y168120D01*
Y167349D01*
G37*
G36*
X108675Y164285D02*X109630D01*
X110243Y164381D01*
X110683Y164691D01*
X110949Y165196D01*
X111041Y165912D01*
Y168044D01*
X112082D01*
Y165673D01*
X111985Y164925D01*
X111708Y164377D01*
X111247Y164030D01*
X110607Y163878D01*
Y163856D01*
X111383Y163628D01*
X111866Y163227D01*
X112121Y162510D01*
X112213Y161425D01*
X112056Y160183D01*
X111606Y159380D01*
X110770Y158924D01*
X109500Y158778D01*
X108675D01*
Y159662D01*
X109500D01*
X110374Y159760D01*
X110889Y160058D01*
X111133Y160650D01*
X111214Y161680D01*
X111101Y162527D01*
X110780Y163053D01*
X110151Y163324D01*
X109153Y163416D01*
X108675D01*
Y164285D01*
G37*
G36*
X105095Y168044D02*X106136D01*
Y164285D01*
X108675D01*
Y163416D01*
X106136D01*
Y159662D01*
X108675D01*
Y158778D01*
X105095D01*
Y168044D01*
G37*
G36*
X105388Y144889D02*Y151378D01*
X106343D01*
Y147493D01*
X106440Y146630D01*
X106733Y146023D01*
X107232Y145654D01*
X107927Y145535D01*
X108735Y145784D01*
X109012Y146533D01*
X108990Y146864D01*
X108969Y147037D01*
X109902D01*
Y146576D01*
X109788Y145768D01*
X109451Y145193D01*
X108898Y144846D01*
X108122Y144731D01*
X106999Y144965D01*
X106256Y145665D01*
X106234Y145648D01*
X106343Y144889D01*
X105388D01*
G37*
G36*
X101265Y148312D02*X104075D01*
Y147792D01*
X103928Y146272D01*
X103511Y145383D01*
X102648Y144943D01*
X101265Y144806D01*
Y145584D01*
X102197Y145659D01*
X102751Y145903D01*
X103006Y146403D01*
X103098Y147271D01*
Y147574D01*
X101265D01*
Y148312D01*
G37*
G36*
X103098Y149419D02*Y149620D01*
X103006Y150168D01*
X102751Y150488D01*
X102214Y150634D01*
X101275Y150683D01*
X101265Y150682D01*
Y151453D01*
X101319Y151459D01*
X102621Y151361D01*
X103467Y151074D01*
X103917Y150515D01*
X104075Y149658D01*
Y149419D01*
X103098D01*
G37*
G36*
X101265Y150682D02*X100277Y150580D01*
X99734Y150271D01*
X99490Y149566D01*
X99409Y148312D01*
X101265D01*
Y147574D01*
X99431D01*
X99512Y146544D01*
X99756Y145947D01*
X100299Y145676D01*
X101254Y145583D01*
X101265Y145584D01*
Y144806D01*
X101167Y144797D01*
X99800Y144965D01*
X98975Y145475D01*
X98546Y146441D01*
X98411Y148057D01*
X98541Y149799D01*
X98953Y150808D01*
X99821Y151296D01*
X101265Y151453D01*
Y150682D01*
G37*
G36*
X99295Y158778D02*X97667D01*
X96094Y160796D01*
Y162223D01*
X98232Y159445D01*
X98253D01*
Y165028D01*
X96094D01*
Y165912D01*
X98253D01*
Y168044D01*
X99295D01*
Y165912D01*
X100684D01*
Y165028D01*
X99295D01*
Y158778D01*
G37*
G36*
X96094Y160796D02*X93067Y164681D01*
Y165912D01*
X96094D01*
Y165028D01*
X93935D01*
X96094Y162223D01*
Y160796D01*
G37*
G36*
X91965Y158778D02*X89535Y165787D01*
X89079Y167193D01*
X89036D01*
X88819Y166481D01*
X88580Y165787D01*
X86106Y158778D01*
X84999D01*
X88298Y168044D01*
X89795D01*
X93072Y158778D01*
X91965D01*
G37*
G36*
X98096Y144889D02*X97076D01*
X96165Y148486D01*
X95882Y149593D01*
X95622Y150727D01*
X95600D01*
X95470Y150162D01*
X95340Y149620D01*
X95058Y148486D01*
X94190Y144889D01*
X92801D01*
X91911Y148486D01*
X91629Y149593D01*
X91369Y150727D01*
X91347D01*
X91217Y150162D01*
X91065Y149593D01*
X90783Y148486D01*
X89871Y144889D01*
X88873D01*
X90631Y151378D01*
X92063D01*
X92953Y147775D01*
X93213Y146668D01*
X93474Y145583D01*
X93495D01*
X93626Y146120D01*
X93734Y146668D01*
X93994Y147775D01*
X94862Y151378D01*
X96273D01*
X98096Y144889D01*
G37*
G36*
X85602Y151459D02*X87077Y151307D01*
X87923Y150857D01*
X88325Y149858D01*
X88466Y148139D01*
X88325Y146408D01*
X87923Y145426D01*
X87077Y144954D01*
X85602Y144797D01*
Y145583D01*
X86616Y145681D01*
X87164Y145996D01*
X87386Y146733D01*
X87469Y148139D01*
X87386Y149528D01*
X87164Y150271D01*
X86616Y150580D01*
X85602Y150683D01*
Y151459D01*
G37*
G36*
X85601Y144797D02*X84109Y144954D01*
X83258Y145426D01*
X82867Y146408D01*
X82737Y148139D01*
X82867Y149858D01*
X83258Y150857D01*
X84109Y151307D01*
X85601Y151459D01*
X85602Y151459D01*
Y150683D01*
X85601Y150683D01*
X84576Y150580D01*
X84039Y150271D01*
X83806Y149528D01*
X83735Y148139D01*
X83806Y146733D01*
X84039Y145996D01*
X84576Y145681D01*
X85601Y145583D01*
X85602Y145583D01*
Y144797D01*
X85601Y144797D01*
G37*
G36*
X78603Y147731D02*X79232D01*
X80599Y147585D01*
X81446Y147146D01*
X81896Y146305D01*
X82053Y144970D01*
X81907Y143581D01*
X81467Y142713D01*
X80648Y142258D01*
X79341Y142111D01*
X78603D01*
Y142994D01*
X79362D01*
X80257Y143088D01*
X80751Y143370D01*
X80974Y143961D01*
X81056Y145063D01*
X80941Y146001D01*
X80599Y146533D01*
X79883Y146766D01*
X78624Y146842D01*
X78603D01*
Y147731D01*
G37*
G36*
X75109Y151378D02*X76150D01*
Y147731D01*
X78603D01*
Y146842D01*
X76150D01*
Y142994D01*
X78603D01*
Y142111D01*
X75109D01*
Y151378D01*
G37*
G54D203*X75197Y301575D02*Y305118D01*
X119685Y262598D02*X122047Y260236D01*
X123622D01*
X119685Y269291D02*X126378D01*
X127165Y268504D01*
X225591Y295669D02*X227559Y297638D01*
X237008D01*
X196457Y242913D02*Y245276D01*
X199606Y248425D01*
X212598Y257087D02*X217717Y251969D01*
Y246457D01*
X222835Y241339D01*
X198031Y261417D02*X200394Y263780D01*
X156693D02*X150394D01*
X149606Y262992D01*
X225197Y268898D02*X220472Y264173D01*
X238976Y268898D02*X225197D01*
X172835Y267717D02*X178740Y273622D01*
X237795Y303150D02*G75*G03X237795Y303150I3150J0D01*G01*
Y295669D02*G75*G03X237795Y295669I3150J0D01*G01*
X245276D02*G75*G03X245276Y295669I3150J0D01*G01*
X232283Y275591D02*G75*G03X232283Y275591I3150J0D01*G01*
Y283465D02*G75*G03X232283Y283465I3150J0D01*G01*
X279134Y257087D02*G75*G03X279134Y257087I3150J0D01*G01*
Y286220D02*G75*G03X279134Y286220I3150J0D01*G01*
X218898Y303150D02*G75*G03X218898Y303150I3150J0D01*G01*
X173228Y287795D02*G75*G03X173228Y287795I3150J0D01*G01*
X164961Y267717D02*G75*G03X164961Y267717I3150J0D01*G01*
X158268Y264961D02*G75*G03X158268Y264961I3150J0D01*G01*
X160630Y248819D02*G75*G03X160630Y248819I3150J0D01*G01*
X146850D02*G75*G03X146850Y248819I3150J0D01*G01*
X156693Y287795D02*G75*G03X156693Y287795I3150J0D01*G01*
X49213Y215748D02*G75*G03X49213Y215748I3150J0D01*G01*
Y186220D02*G75*G03X49213Y186220I3150J0D01*G01*
X72047Y288583D02*G75*G03X72047Y288583I3150J0D01*G01*
X49213Y286220D02*G75*G03X49213Y286220I3150J0D01*G01*
Y257087D02*G75*G03X49213Y257087I3150J0D01*G01*
X127953Y321260D02*G75*G03X127953Y321260I3150J0D01*G01*
X120866Y229528D02*G75*G03X120866Y229528I3150J0D01*G01*
Y174409D02*G75*G03X120866Y174409I3150J0D01*G01*
X135433Y274803D02*G75*G03X135433Y274803I3150J0D01*G01*
X127165Y265354D02*G75*G03X127165Y265354I3150J0D01*G01*
X120079Y252756D02*G75*G03X120079Y252756I3150J0D01*G01*
X124606Y258465D02*G75*G03X124606Y258465I3150J0D01*G01*
X105512Y58661D02*G75*G03X105512Y58661I3150J0D01*G01*
X60630Y66929D02*G75*G03X60630Y66929I3150J0D01*G01*
X178346Y115354D02*G75*G03X178346Y115354I3150J0D01*G01*
X183465Y95276D02*G75*G03X183465Y95276I3150J0D01*G01*
X201969Y115354D02*G75*G03X201969Y115354I3150J0D01*G01*
X175984Y66929D02*G75*G03X175984Y66929I3150J0D01*G01*
X154724D02*G75*G03X154724Y66929I3150J0D01*G01*
X207480Y174409D02*G75*G03X207480Y174409I3150J0D01*G01*
X279134Y144488D02*G75*G03X279134Y144488I3150J0D01*G01*
Y114961D02*G75*G03X279134Y114961I3150J0D01*G01*
X49213Y144488D02*G75*G03X49213Y144488I3150J0D01*G01*
Y115354D02*G75*G03X49213Y115354I3150J0D01*G01*
X207480Y229528D02*G75*G03X207480Y229528I3150J0D01*G01*
X164173Y146457D02*G75*G03X164173Y146457I3150J0D01*G01*
X171654D02*G75*G03X171654Y146457I3150J0D01*G01*
X137795Y341732D02*G75*G03X137795Y341732I3150J0D01*G01*
X63386Y325591D02*G75*G03X63386Y325591I3150J0D01*G01*
X72047Y297244D02*G75*G03X72047Y297244I3150J0D01*G01*
X63386Y317323D02*G75*G03X63386Y317323I3150J0D01*G01*
X62205Y361417D02*G75*G03X62205Y361417I3150J0D01*G01*
X137795Y348819D02*G75*G03X137795Y348819I3150J0D01*G01*
X279134Y215748D02*G75*G03X279134Y215748I3150J0D01*G01*
Y185827D02*G75*G03X279134Y185827I3150J0D01*G01*
X205906Y274803D02*G75*G03X205906Y274803I3150J0D01*G01*
X206299Y260630D02*G75*G03X206299Y260630I3150J0D01*G01*
X213780D02*G75*G03X213780Y260630I3150J0D01*G01*
X206299Y252362D02*G75*G03X206299Y252362I3150J0D01*G01*
X198819D02*G75*G03X198819Y252362I3150J0D01*G01*
X184252Y260630D02*G75*G03X184252Y260630I3150J0D01*G01*
X191732Y258268D02*G75*G03X191732Y258268I3150J0D01*G01*
X183858Y253150D02*G75*G03X183858Y253150I3150J0D01*G01*
X176378Y254724D02*G75*G03X176378Y254724I3150J0D01*G01*
G54D204*X190945Y93520D02*X192945D01*
X191945D02*Y97520D01*
X194645Y93520D02*Y97520D01*
X194145Y93520D02*X196145D01*
X196645Y94020D01*
Y95020D01*
X196145Y95520D02*X196645Y95020D01*
X194645Y95520D02*X196145D01*
X197845Y97020D02*X198345Y97520D01*
X197845Y96220D02*Y97020D01*
Y96220D02*X198545Y95520D01*
X199145D01*
X199845Y96220D01*
Y97020D01*
X199345Y97520D02*X199845Y97020D01*
X198345Y97520D02*X199345D01*
X197845Y94820D02*X198545Y95520D01*
X197845Y94020D02*Y94820D01*
Y94020D02*X198345Y93520D01*
X199345D01*
X199845Y94020D01*
Y94820D01*
X199145Y95520D02*X199845Y94820D01*
X172441Y71472D02*X174441D01*
X173441D02*Y75472D01*
X176141Y71472D02*Y75472D01*
X175641Y71472D02*X177641D01*
X178141Y71972D01*
Y72972D01*
X177641Y73472D02*X178141Y72972D01*
X176141Y73472D02*X177641D01*
X179841Y75472D02*X181341Y73472D01*
Y71972D02*Y73472D01*
X180841Y71472D02*X181341Y71972D01*
X179841Y71472D02*X180841D01*
X179341Y71972D02*X179841Y71472D01*
X179341Y71972D02*Y72972D01*
X179841Y73472D01*
X181341D01*
X156299Y71472D02*X158299D01*
X157299D02*Y75472D01*
X159999Y71472D02*Y75472D01*
X159499Y71472D02*X161499D01*
X161999Y71972D01*
Y72972D01*
X161499Y73472D02*X161999Y72972D01*
X159999Y73472D02*X161499D01*
X163699Y75472D02*X165699Y71472D01*
X163199D02*X165699D01*
X106299Y250606D02*X108299D01*
X107299D02*Y254606D01*
X109999Y250606D02*Y254606D01*
X109499Y250606D02*X111499D01*
X111999Y251106D01*
Y252106D01*
X111499Y252606D02*X111999Y252106D01*
X109999Y252606D02*X111499D01*
X113199Y251406D02*X113999Y250606D01*
Y254606D01*
X113199D02*X114699D01*
X115899Y251106D02*X116399Y250606D01*
X117899D01*
X118399Y251106D01*
Y252106D01*
X115899Y254606D02*X118399Y252106D01*
X115899Y254606D02*X118399D01*
X107087Y227378D02*X109087D01*
X108087D02*Y231378D01*
X110787Y227378D02*Y231378D01*
X110287Y227378D02*X112287D01*
X112787Y227878D01*
Y228878D01*
X112287Y229378D02*X112787Y228878D01*
X110787Y229378D02*X112287D01*
X113987Y227878D02*X114487Y227378D01*
X115487D01*
X115987Y227878D01*
X115487Y231378D02*X115987Y230878D01*
X114487Y231378D02*X115487D01*
X113987Y230878D02*X114487Y231378D01*
Y229178D02*X115487D01*
X115987Y227878D02*Y228678D01*
Y229678D02*Y230878D01*
Y229678D02*X115487Y229178D01*
X115987Y228678D02*X115487Y229178D01*
X117187Y230878D02*X117687Y231378D01*
X117187Y230078D02*Y230878D01*
Y230078D02*X117887Y229378D01*
X118487D01*
X119187Y230078D01*
Y230878D01*
X118687Y231378D02*X119187Y230878D01*
X117687Y231378D02*X118687D01*
X117187Y228678D02*X117887Y229378D01*
X117187Y227878D02*Y228678D01*
Y227878D02*X117687Y227378D01*
X118687D01*
X119187Y227878D01*
Y228678D01*
X118487Y229378D02*X119187Y228678D01*
X160433Y136827D02*X162433D01*
X161433D02*Y140827D01*
X164133Y136827D02*Y140827D01*
X163633Y136827D02*X165633D01*
X166133Y137327D01*
Y138327D01*
X165633Y138827D02*X166133Y138327D01*
X164133Y138827D02*X165633D01*
X168833Y136827D02*X169333Y137327D01*
X167833Y136827D02*X168833D01*
X167333Y137327D02*X167833Y136827D01*
X167333Y137327D02*Y140327D01*
X167833Y140827D01*
X168833Y138627D02*X169333Y139127D01*
X167333Y138627D02*X168833D01*
X167833Y140827D02*X168833D01*
X169333Y140327D01*
Y139127D02*Y140327D01*
X177953Y119898D02*X179953D01*
X178953D02*Y123898D01*
X181653Y119898D02*Y123898D01*
X181153Y119898D02*X183153D01*
X183653Y120398D01*
Y121398D01*
X183153Y121898D02*X183653Y121398D01*
X181653Y121898D02*X183153D01*
X184853Y120398D02*X185353Y119898D01*
X186353D01*
X186853Y120398D01*
X186353Y123898D02*X186853Y123398D01*
X185353Y123898D02*X186353D01*
X184853Y123398D02*X185353Y123898D01*
Y121698D02*X186353D01*
X186853Y120398D02*Y121198D01*
Y122198D02*Y123398D01*
Y122198D02*X186353Y121698D01*
X186853Y121198D02*X186353Y121698D01*
X172835Y136827D02*X174835D01*
X173835D02*Y140827D01*
X176535Y136827D02*Y140827D01*
X176035Y136827D02*X178035D01*
X178535Y137327D01*
Y138327D01*
X178035Y138827D02*X178535Y138327D01*
X176535Y138827D02*X178035D01*
X179735Y136827D02*X181735D01*
X179735D02*Y138827D01*
X180235Y138327D01*
X181235D01*
X181735Y138827D01*
Y140327D01*
X181235Y140827D02*X181735Y140327D01*
X180235Y140827D02*X181235D01*
X179735Y140327D02*X180235Y140827D01*
X159055Y240370D02*X161055D01*
X160055D02*Y244370D01*
X162755Y240370D02*Y244370D01*
X162255Y240370D02*X164255D01*
X164755Y240870D01*
Y241870D01*
X164255Y242370D02*X164755Y241870D01*
X162755Y242370D02*X164255D01*
X165955Y242870D02*X167955Y240370D01*
X165955Y242870D02*X168455D01*
X167955Y240370D02*Y244370D01*
X169655Y240370D02*X171655D01*
X169655D02*Y242370D01*
X170155Y241870D01*
X171155D01*
X171655Y242370D01*
Y243870D01*
X171155Y244370D02*X171655Y243870D01*
X170155Y244370D02*X171155D01*
X169655Y243870D02*X170155Y244370D01*
X180709Y243913D02*X182709D01*
X181709D02*Y247913D01*
X184409Y243913D02*Y247913D01*
X183909Y243913D02*X185909D01*
X186409Y244413D01*
Y245413D01*
X185909Y245913D02*X186409Y245413D01*
X184409Y245913D02*X185909D01*
X187609Y244413D02*X188109Y243913D01*
X189109D01*
X189609Y244413D01*
X189109Y247913D02*X189609Y247413D01*
X188109Y247913D02*X189109D01*
X187609Y247413D02*X188109Y247913D01*
Y245713D02*X189109D01*
X189609Y244413D02*Y245213D01*
Y246213D02*Y247413D01*
Y246213D02*X189109Y245713D01*
X189609Y245213D02*X189109Y245713D01*
X190809Y244413D02*X191309Y243913D01*
X192309D01*
X192809Y244413D01*
X192309Y247913D02*X192809Y247413D01*
X191309Y247913D02*X192309D01*
X190809Y247413D02*X191309Y247913D01*
Y245713D02*X192309D01*
X192809Y244413D02*Y245213D01*
Y246213D02*Y247413D01*
Y246213D02*X192309Y245713D01*
X192809Y245213D02*X192309Y245713D01*
X142126Y240370D02*X144126D01*
X143126D02*Y244370D01*
X145826Y240370D02*Y244370D01*
X145326Y240370D02*X147326D01*
X147826Y240870D01*
Y241870D01*
X147326Y242370D02*X147826Y241870D01*
X145826Y242370D02*X147326D01*
X149026Y240870D02*X149526Y240370D01*
X150526D01*
X151026Y240870D01*
X150526Y244370D02*X151026Y243870D01*
X149526Y244370D02*X150526D01*
X149026Y243870D02*X149526Y244370D01*
Y242170D02*X150526D01*
X151026Y240870D02*Y241670D01*
Y242670D02*Y243870D01*
Y242670D02*X150526Y242170D01*
X151026Y241670D02*X150526Y242170D01*
X152726Y244370D02*X154226Y242370D01*
Y240870D02*Y242370D01*
X153726Y240370D02*X154226Y240870D01*
X152726Y240370D02*X153726D01*
X152226Y240870D02*X152726Y240370D01*
X152226Y240870D02*Y241870D01*
X152726Y242370D01*
X154226D01*
X104331Y63205D02*X106331D01*
X105331D02*Y67205D01*
X108031Y63205D02*Y67205D01*
X107531Y63205D02*X109531D01*
X110031Y63705D01*
Y64705D01*
X109531Y65205D02*X110031Y64705D01*
X108031Y65205D02*X109531D01*
X111231Y64005D02*X112031Y63205D01*
Y67205D01*
X111231D02*X112731D01*
X59055Y71472D02*X61055D01*
X60055D02*Y75472D01*
X62755Y71472D02*Y75472D01*
X62255Y71472D02*X64255D01*
X64755Y71972D01*
Y72972D01*
X64255Y73472D02*X64755Y72972D01*
X62755Y73472D02*X64255D01*
X65955Y73972D02*X67955Y71472D01*
X65955Y73972D02*X68455D01*
X67955Y71472D02*Y75472D01*
X106299Y172260D02*X108299D01*
X107299D02*Y176260D01*
X109999Y172260D02*Y176260D01*
X109499Y172260D02*X111499D01*
X111999Y172760D01*
Y173760D01*
X111499Y174260D02*X111999Y173760D01*
X109999Y174260D02*X111499D01*
X113199Y172760D02*X113699Y172260D01*
X115199D01*
X115699Y172760D01*
Y173760D01*
X113199Y176260D02*X115699Y173760D01*
X113199Y176260D02*X115699D01*
X116899Y172760D02*X117399Y172260D01*
X118399D01*
X118899Y172760D01*
X118399Y176260D02*X118899Y175760D01*
X117399Y176260D02*X118399D01*
X116899Y175760D02*X117399Y176260D01*
Y174060D02*X118399D01*
X118899Y172760D02*Y173560D01*
Y174560D02*Y175760D01*
Y174560D02*X118399Y174060D01*
X118899Y173560D02*X118399Y174060D01*
X42913Y149031D02*X44913D01*
X43913D02*Y153031D01*
X46613Y149031D02*Y153031D01*
X46113Y149031D02*X48113D01*
X48613Y149531D01*
Y150531D01*
X48113Y151031D02*X48613Y150531D01*
X46613Y151031D02*X48113D01*
X49813Y149531D02*X50313Y149031D01*
X51813D01*
X52313Y149531D01*
Y150531D01*
X49813Y153031D02*X52313Y150531D01*
X49813Y153031D02*X52313D01*
X53513Y149031D02*X55513D01*
X53513D02*Y151031D01*
X54013Y150531D01*
X55013D01*
X55513Y151031D01*
Y152531D01*
X55013Y153031D02*X55513Y152531D01*
X54013Y153031D02*X55013D01*
X53513Y152531D02*X54013Y153031D01*
X43307Y119898D02*X45307D01*
X44307D02*Y123898D01*
X47007Y119898D02*Y123898D01*
X46507Y119898D02*X48507D01*
X49007Y120398D01*
Y121398D01*
X48507Y121898D02*X49007Y121398D01*
X47007Y121898D02*X48507D01*
X50207Y120398D02*X50707Y119898D01*
X51707D01*
X52207Y120398D01*
X51707Y123898D02*X52207Y123398D01*
X50707Y123898D02*X51707D01*
X50207Y123398D02*X50707Y123898D01*
Y121698D02*X51707D01*
X52207Y120398D02*Y121198D01*
Y122198D02*Y123398D01*
Y122198D02*X51707Y121698D01*
X52207Y121198D02*X51707Y121698D01*
X53407Y123398D02*X53907Y123898D01*
X53407Y120398D02*Y123398D01*
Y120398D02*X53907Y119898D01*
X54907D01*
X55407Y120398D01*
Y123398D01*
X54907Y123898D02*X55407Y123398D01*
X53907Y123898D02*X54907D01*
X53407Y122898D02*X55407Y120898D01*
X43307Y220291D02*X45307D01*
X44307D02*Y224291D01*
X47007Y220291D02*Y224291D01*
X46507Y220291D02*X48507D01*
X49007Y220791D01*
Y221791D01*
X48507Y222291D02*X49007Y221791D01*
X47007Y222291D02*X48507D01*
X50207Y222791D02*X52207Y220291D01*
X50207Y222791D02*X52707D01*
X52207Y220291D02*Y224291D01*
X53907Y223791D02*X54407Y224291D01*
X53907Y222991D02*Y223791D01*
Y222991D02*X54607Y222291D01*
X55207D01*
X55907Y222991D01*
Y223791D01*
X55407Y224291D02*X55907Y223791D01*
X54407Y224291D02*X55407D01*
X53907Y221591D02*X54607Y222291D01*
X53907Y220791D02*Y221591D01*
Y220791D02*X54407Y220291D01*
X55407D01*
X55907Y220791D01*
Y221591D01*
X55207Y222291D02*X55907Y221591D01*
X43307Y190764D02*X45307D01*
X44307D02*Y194764D01*
X47007Y190764D02*Y194764D01*
X46507Y190764D02*X48507D01*
X49007Y191264D01*
Y192264D01*
X48507Y192764D02*X49007Y192264D01*
X47007Y192764D02*X48507D01*
X50207Y193264D02*X52207Y190764D01*
X50207Y193264D02*X52707D01*
X52207Y190764D02*Y194764D01*
X54407D02*X55907Y192764D01*
Y191264D02*Y192764D01*
X55407Y190764D02*X55907Y191264D01*
X54407Y190764D02*X55407D01*
X53907Y191264D02*X54407Y190764D01*
X53907Y191264D02*Y192264D01*
X54407Y192764D01*
X55907D01*
X278740Y220291D02*X280740D01*
X279740D02*Y224291D01*
X282440Y220291D02*Y224291D01*
X281940Y220291D02*X283940D01*
X284440Y220791D01*
Y221791D01*
X283940Y222291D02*X284440Y221791D01*
X282440Y222291D02*X283940D01*
X285640Y220791D02*X286140Y220291D01*
X287140D01*
X287640Y220791D01*
X287140Y224291D02*X287640Y223791D01*
X286140Y224291D02*X287140D01*
X285640Y223791D02*X286140Y224291D01*
Y222091D02*X287140D01*
X287640Y220791D02*Y221591D01*
Y222591D02*Y223791D01*
Y222591D02*X287140Y222091D01*
X287640Y221591D02*X287140Y222091D01*
X288840Y220291D02*X290840D01*
X288840D02*Y222291D01*
X289340Y221791D01*
X290340D01*
X290840Y222291D01*
Y223791D01*
X290340Y224291D02*X290840Y223791D01*
X289340Y224291D02*X290340D01*
X288840Y223791D02*X289340Y224291D01*
X278740Y190370D02*X280740D01*
X279740D02*Y194370D01*
X282440Y190370D02*Y194370D01*
X281940Y190370D02*X283940D01*
X284440Y190870D01*
Y191870D01*
X283940Y192370D02*X284440Y191870D01*
X282440Y192370D02*X283940D01*
X285640Y190870D02*X286140Y190370D01*
X287140D01*
X287640Y190870D01*
X287140Y194370D02*X287640Y193870D01*
X286140Y194370D02*X287140D01*
X285640Y193870D02*X286140Y194370D01*
Y192170D02*X287140D01*
X287640Y190870D02*Y191670D01*
Y192670D02*Y193870D01*
Y192670D02*X287140Y192170D01*
X287640Y191670D02*X287140Y192170D01*
X288840Y190870D02*X289340Y190370D01*
X290840D01*
X291340Y190870D01*
Y191870D01*
X288840Y194370D02*X291340Y191870D01*
X288840Y194370D02*X291340D01*
X223622Y237614D02*X225622D01*
X224622D02*Y241614D01*
X227322Y237614D02*Y241614D01*
X226822Y237614D02*X228822D01*
X229322Y238114D01*
Y239114D01*
X228822Y239614D02*X229322Y239114D01*
X227322Y239614D02*X228822D01*
X230522Y240114D02*X232522Y237614D01*
X230522Y240114D02*X233022D01*
X232522Y237614D02*Y241614D01*
X234222Y240114D02*X236222Y237614D01*
X234222Y240114D02*X236722D01*
X236222Y237614D02*Y241614D01*
X278740Y261630D02*X280740D01*
X279740D02*Y265630D01*
X282440Y261630D02*Y265630D01*
X281940Y261630D02*X283940D01*
X284440Y262130D01*
Y263130D01*
X283940Y263630D02*X284440Y263130D01*
X282440Y263630D02*X283940D01*
X285640Y262130D02*X286140Y261630D01*
X287140D01*
X287640Y262130D01*
X287140Y265630D02*X287640Y265130D01*
X286140Y265630D02*X287140D01*
X285640Y265130D02*X286140Y265630D01*
Y263430D02*X287140D01*
X287640Y262130D02*Y262930D01*
Y263930D02*Y265130D01*
Y263930D02*X287140Y263430D01*
X287640Y262930D02*X287140Y263430D01*
X289340Y265630D02*X291340Y261630D01*
X288840D02*X291340D01*
X179921Y272654D02*X181921D01*
X180921D02*Y276654D01*
X183621Y272654D02*Y276654D01*
X183121Y272654D02*X185121D01*
X185621Y273154D01*
Y274154D01*
X185121Y274654D02*X185621Y274154D01*
X183621Y274654D02*X185121D01*
X186821Y272654D02*X188821D01*
X186821D02*Y274654D01*
X187321Y274154D01*
X188321D01*
X188821Y274654D01*
Y276154D01*
X188321Y276654D02*X188821Y276154D01*
X187321Y276654D02*X188321D01*
X186821Y276154D02*X187321Y276654D01*
X190021Y276154D02*X190521Y276654D01*
X190021Y275354D02*Y276154D01*
Y275354D02*X190721Y274654D01*
X191321D01*
X192021Y275354D01*
Y276154D01*
X191521Y276654D02*X192021Y276154D01*
X190521Y276654D02*X191521D01*
X190021Y273954D02*X190721Y274654D01*
X190021Y273154D02*Y273954D01*
Y273154D02*X190521Y272654D01*
X191521D01*
X192021Y273154D01*
Y273954D01*
X191321Y274654D02*X192021Y273954D01*
X187008Y237614D02*X189008D01*
X188008D02*Y241614D01*
X190708Y237614D02*Y241614D01*
X190208Y237614D02*X192208D01*
X192708Y238114D01*
Y239114D01*
X192208Y239614D02*X192708Y239114D01*
X190708Y239614D02*X192208D01*
X193908Y240114D02*X195908Y237614D01*
X193908Y240114D02*X196408D01*
X195908Y237614D02*Y241614D01*
X197608Y238114D02*X198108Y237614D01*
X199608D01*
X200108Y238114D01*
Y239114D01*
X197608Y241614D02*X200108Y239114D01*
X197608Y241614D02*X200108D01*
X136614Y258874D02*X138614D01*
X137614D02*Y262874D01*
X140314Y258874D02*Y262874D01*
X139814Y258874D02*X141814D01*
X142314Y259374D01*
Y260374D01*
X141814Y260874D02*X142314Y260374D01*
X140314Y260874D02*X141814D01*
X143514Y258874D02*X145514D01*
X143514D02*Y260874D01*
X144014Y260374D01*
X145014D01*
X145514Y260874D01*
Y262374D01*
X145014Y262874D02*X145514Y262374D01*
X144014Y262874D02*X145014D01*
X143514Y262374D02*X144014Y262874D01*
X147214D02*X149214Y258874D01*
X146714D02*X149214D01*
X179134Y265173D02*X181134D01*
X180134D02*Y269173D01*
X182834Y265173D02*Y269173D01*
X182334Y265173D02*X184334D01*
X184834Y265673D01*
Y266673D01*
X184334Y267173D02*X184834Y266673D01*
X182834Y267173D02*X184334D01*
X186034Y265673D02*X186534Y265173D01*
X188034D01*
X188534Y265673D01*
Y266673D01*
X186034Y269173D02*X188534Y266673D01*
X186034Y269173D02*X188534D01*
X189734Y268673D02*X190234Y269173D01*
X189734Y265673D02*Y268673D01*
Y265673D02*X190234Y265173D01*
X191234D01*
X191734Y265673D01*
Y268673D01*
X191234Y269173D02*X191734Y268673D01*
X190234Y269173D02*X191234D01*
X189734Y268173D02*X191734Y266173D01*
X195276Y265173D02*X197276D01*
X196276D02*Y269173D01*
X198976Y265173D02*Y269173D01*
X198476Y265173D02*X200476D01*
X200976Y265673D01*
Y266673D01*
X200476Y267173D02*X200976Y266673D01*
X198976Y267173D02*X200476D01*
X202176Y265673D02*X202676Y265173D01*
X204176D01*
X204676Y265673D01*
Y266673D01*
X202176Y269173D02*X204676Y266673D01*
X202176Y269173D02*X204676D01*
X207376Y265173D02*X207876Y265673D01*
X206376Y265173D02*X207376D01*
X205876Y265673D02*X206376Y265173D01*
X205876Y265673D02*Y268673D01*
X206376Y269173D01*
X207376Y266973D02*X207876Y267473D01*
X205876Y266973D02*X207376D01*
X206376Y269173D02*X207376D01*
X207876Y268673D01*
Y267473D02*Y268673D01*
X165354Y256906D02*X167354D01*
X166354D02*Y260906D01*
X169054Y256906D02*Y260906D01*
X168554Y256906D02*X170554D01*
X171054Y257406D01*
Y258406D01*
X170554Y258906D02*X171054Y258406D01*
X169054Y258906D02*X170554D01*
X172254Y257406D02*X172754Y256906D01*
X173754D01*
X174254Y257406D01*
X173754Y260906D02*X174254Y260406D01*
X172754Y260906D02*X173754D01*
X172254Y260406D02*X172754Y260906D01*
Y258706D02*X173754D01*
X174254Y257406D02*Y258206D01*
Y259206D02*Y260406D01*
Y259206D02*X173754Y258706D01*
X174254Y258206D02*X173754Y258706D01*
X175454Y257706D02*X176254Y256906D01*
Y260906D01*
X175454D02*X176954D01*
X199606Y119898D02*X201606D01*
X200606D02*Y123898D01*
X203306Y119898D02*Y123898D01*
X202806Y119898D02*X204806D01*
X205306Y120398D01*
Y121398D01*
X204806Y121898D02*X205306Y121398D01*
X203306Y121898D02*X204806D01*
X206506Y120398D02*X207006Y119898D01*
X208506D01*
X209006Y120398D01*
Y121398D01*
X206506Y123898D02*X209006Y121398D01*
X206506Y123898D02*X209006D01*
X214961Y172260D02*X216961D01*
X215961D02*Y176260D01*
X218661Y172260D02*Y176260D01*
X218161Y172260D02*X220161D01*
X220661Y172760D01*
Y173760D01*
X220161Y174260D02*X220661Y173760D01*
X218661Y174260D02*X220161D01*
X221861Y173060D02*X222661Y172260D01*
Y176260D01*
X221861D02*X223361D01*
X224561Y175760D02*X225061Y176260D01*
X224561Y174960D02*Y175760D01*
Y174960D02*X225261Y174260D01*
X225861D01*
X226561Y174960D01*
Y175760D01*
X226061Y176260D02*X226561Y175760D01*
X225061Y176260D02*X226061D01*
X224561Y173560D02*X225261Y174260D01*
X224561Y172760D02*Y173560D01*
Y172760D02*X225061Y172260D01*
X226061D01*
X226561Y172760D01*
Y173560D01*
X225861Y174260D02*X226561Y173560D01*
X278740Y149031D02*X280740D01*
X279740D02*Y153031D01*
X282440Y149031D02*Y153031D01*
X281940Y149031D02*X283940D01*
X284440Y149531D01*
Y150531D01*
X283940Y151031D02*X284440Y150531D01*
X282440Y151031D02*X283940D01*
X285640Y149531D02*X286140Y149031D01*
X287640D01*
X288140Y149531D01*
Y150531D01*
X285640Y153031D02*X288140Y150531D01*
X285640Y153031D02*X288140D01*
X289340Y151531D02*X291340Y149031D01*
X289340Y151531D02*X291840D01*
X291340Y149031D02*Y153031D01*
X278740Y119504D02*X280740D01*
X279740D02*Y123504D01*
X282440Y119504D02*Y123504D01*
X281940Y119504D02*X283940D01*
X284440Y120004D01*
Y121004D01*
X283940Y121504D02*X284440Y121004D01*
X282440Y121504D02*X283940D01*
X285640Y120304D02*X286440Y119504D01*
Y123504D01*
X285640D02*X287140D01*
X288840D02*X290340Y121504D01*
Y120004D02*Y121504D01*
X289840Y119504D02*X290340Y120004D01*
X288840Y119504D02*X289840D01*
X288340Y120004D02*X288840Y119504D01*
X288340Y120004D02*Y121004D01*
X288840Y121504D01*
X290340D01*
X203543Y243520D02*X205543D01*
X204543D02*Y247520D01*
X207243Y243520D02*Y247520D01*
X206743Y243520D02*X208743D01*
X209243Y244020D01*
Y245020D01*
X208743Y245520D02*X209243Y245020D01*
X207243Y245520D02*X208743D01*
X210443Y246020D02*X212443Y243520D01*
X210443Y246020D02*X212943D01*
X212443Y243520D02*Y247520D01*
X214143Y244320D02*X214943Y243520D01*
Y247520D01*
X214143D02*X215643D01*
X214961Y227378D02*X216961D01*
X215961D02*Y231378D01*
X218661Y227378D02*Y231378D01*
X218161Y227378D02*X220161D01*
X220661Y227878D01*
Y228878D01*
X220161Y229378D02*X220661Y228878D01*
X218661Y229378D02*X220161D01*
X221861Y227878D02*X222361Y227378D01*
X223861D01*
X224361Y227878D01*
Y228878D01*
X221861Y231378D02*X224361Y228878D01*
X221861Y231378D02*X224361D01*
X226061D02*X227561Y229378D01*
Y227878D02*Y229378D01*
X227061Y227378D02*X227561Y227878D01*
X226061Y227378D02*X227061D01*
X225561Y227878D02*X226061Y227378D01*
X225561Y227878D02*Y228878D01*
X226061Y229378D01*
X227561D01*
X49606Y323441D02*X51606D01*
X50606D02*Y327441D01*
X53306Y323441D02*Y327441D01*
X52806Y323441D02*X54806D01*
X55306Y323941D01*
Y324941D01*
X54806Y325441D02*X55306Y324941D01*
X53306Y325441D02*X54806D01*
X56506Y323441D02*X58506D01*
X56506D02*Y325441D01*
X57006Y324941D01*
X58006D01*
X58506Y325441D01*
Y326941D01*
X58006Y327441D02*X58506Y326941D01*
X57006Y327441D02*X58006D01*
X56506Y326941D02*X57006Y327441D01*
X59706Y326941D02*X60206Y327441D01*
X59706Y323941D02*Y326941D01*
Y323941D02*X60206Y323441D01*
X61206D01*
X61706Y323941D01*
Y326941D01*
X61206Y327441D02*X61706Y326941D01*
X60206Y327441D02*X61206D01*
X59706Y326441D02*X61706Y324441D01*
X49606Y315173D02*X51606D01*
X50606D02*Y319173D01*
X53306Y315173D02*Y319173D01*
X52806Y315173D02*X54806D01*
X55306Y315673D01*
Y316673D01*
X54806Y317173D02*X55306Y316673D01*
X53306Y317173D02*X54806D01*
X56506Y315673D02*X57006Y315173D01*
X58006D01*
X58506Y315673D01*
X58006Y319173D02*X58506Y318673D01*
X57006Y319173D02*X58006D01*
X56506Y318673D02*X57006Y319173D01*
Y316973D02*X58006D01*
X58506Y315673D02*Y316473D01*
Y317473D02*Y318673D01*
Y317473D02*X58006Y316973D01*
X58506Y316473D02*X58006Y316973D01*
X61206Y315173D02*X61706Y315673D01*
X60206Y315173D02*X61206D01*
X59706Y315673D02*X60206Y315173D01*
X59706Y315673D02*Y318673D01*
X60206Y319173D01*
X61206Y316973D02*X61706Y317473D01*
X59706Y316973D02*X61206D01*
X60206Y319173D02*X61206D01*
X61706Y318673D01*
Y317473D02*Y318673D01*
X43307Y290764D02*X45307D01*
X44307D02*Y294764D01*
X47007Y290764D02*Y294764D01*
X46507Y290764D02*X48507D01*
X49007Y291264D01*
Y292264D01*
X48507Y292764D02*X49007Y292264D01*
X47007Y292764D02*X48507D01*
X50207Y293264D02*X52207Y290764D01*
X50207Y293264D02*X52707D01*
X52207Y290764D02*Y294764D01*
X53907Y291264D02*X54407Y290764D01*
X55407D01*
X55907Y291264D01*
X55407Y294764D02*X55907Y294264D01*
X54407Y294764D02*X55407D01*
X53907Y294264D02*X54407Y294764D01*
Y292564D02*X55407D01*
X55907Y291264D02*Y292064D01*
Y293064D02*Y294264D01*
Y293064D02*X55407Y292564D01*
X55907Y292064D02*X55407Y292564D01*
X43307Y261630D02*X45307D01*
X44307D02*Y265630D01*
X47007Y261630D02*Y265630D01*
X46507Y261630D02*X48507D01*
X49007Y262130D01*
Y263130D01*
X48507Y263630D02*X49007Y263130D01*
X47007Y263630D02*X48507D01*
X50207Y264130D02*X52207Y261630D01*
X50207Y264130D02*X52707D01*
X52207Y261630D02*Y265630D01*
X54407D02*X56407Y261630D01*
X53907D02*X56407D01*
X122835Y272654D02*X124835D01*
X123835D02*Y276654D01*
X126535Y272654D02*Y276654D01*
X126035Y272654D02*X128035D01*
X128535Y273154D01*
Y274154D01*
X128035Y274654D02*X128535Y274154D01*
X126535Y274654D02*X128035D01*
X129735Y273454D02*X130535Y272654D01*
Y276654D01*
X129735D02*X131235D01*
X132435Y273454D02*X133235Y272654D01*
Y276654D01*
X132435D02*X133935D01*
X124803Y346669D02*X126803D01*
X125803D02*Y350669D01*
X128503Y346669D02*Y350669D01*
X128003Y346669D02*X130003D01*
X130503Y347169D01*
Y348169D01*
X130003Y348669D02*X130503Y348169D01*
X128503Y348669D02*X130003D01*
X131703Y347469D02*X132503Y346669D01*
Y350669D01*
X131703D02*X133203D01*
X135903Y346669D02*X136403Y347169D01*
X134903Y346669D02*X135903D01*
X134403Y347169D02*X134903Y346669D01*
X134403Y347169D02*Y350169D01*
X134903Y350669D01*
X135903Y348469D02*X136403Y348969D01*
X134403Y348469D02*X135903D01*
X134903Y350669D02*X135903D01*
X136403Y350169D01*
Y348969D02*Y350169D01*
X106693Y267535D02*X108693D01*
X107693D02*Y271535D01*
X110393Y267535D02*Y271535D01*
X109893Y267535D02*X111893D01*
X112393Y268035D01*
Y269035D01*
X111893Y269535D02*X112393Y269035D01*
X110393Y269535D02*X111893D01*
X113593Y268335D02*X114393Y267535D01*
Y271535D01*
X113593D02*X115093D01*
X116293Y270035D02*X118293Y267535D01*
X116293Y270035D02*X118793D01*
X118293Y267535D02*Y271535D01*
X106890Y260646D02*X108890D01*
X107890D02*Y264646D01*
X110590Y260646D02*Y264646D01*
X110090Y260646D02*X112090D01*
X112590Y261146D01*
Y262146D01*
X112090Y262646D02*X112590Y262146D01*
X110590Y262646D02*X112090D01*
X113790Y261446D02*X114590Y260646D01*
Y264646D01*
X113790D02*X115290D01*
X116490Y261146D02*X116990Y260646D01*
X117990D01*
X118490Y261146D01*
X117990Y264646D02*X118490Y264146D01*
X116990Y264646D02*X117990D01*
X116490Y264146D02*X116990Y264646D01*
Y262446D02*X117990D01*
X118490Y261146D02*Y261946D01*
Y262946D02*Y264146D01*
Y262946D02*X117990Y262446D01*
X118490Y261946D02*X117990Y262446D01*
X72047Y306512D02*X74047D01*
X73047D02*Y310512D01*
X75747Y306512D02*Y310512D01*
X75247Y306512D02*X77247D01*
X77747Y307012D01*
Y308012D01*
X77247Y308512D02*X77747Y308012D01*
X75747Y308512D02*X77247D01*
X78947Y307012D02*X79447Y306512D01*
X80947D01*
X81447Y307012D01*
Y308012D01*
X78947Y310512D02*X81447Y308012D01*
X78947Y310512D02*X81447D01*
X82647Y307012D02*X83147Y306512D01*
X84647D01*
X85147Y307012D01*
Y308012D01*
X82647Y310512D02*X85147Y308012D01*
X82647Y310512D02*X85147D01*
X79528Y286433D02*X81528D01*
X80528D02*Y290433D01*
X83228Y286433D02*Y290433D01*
X82728Y286433D02*X84728D01*
X85228Y286933D01*
Y287933D01*
X84728Y288433D02*X85228Y287933D01*
X83228Y288433D02*X84728D01*
X86428Y286933D02*X86928Y286433D01*
X87928D01*
X88428Y286933D01*
X87928Y290433D02*X88428Y289933D01*
X86928Y290433D02*X87928D01*
X86428Y289933D02*X86928Y290433D01*
Y288233D02*X87928D01*
X88428Y286933D02*Y287733D01*
Y288733D02*Y289933D01*
Y288733D02*X87928Y288233D01*
X88428Y287733D02*X87928Y288233D01*
X89628Y288933D02*X91628Y286433D01*
X89628Y288933D02*X92128D01*
X91628Y286433D02*Y290433D01*
X69685Y359268D02*X71685D01*
X70685D02*Y363268D01*
X73385Y359268D02*Y363268D01*
X72885Y359268D02*X74885D01*
X75385Y359768D01*
Y360768D01*
X74885Y361268D02*X75385Y360768D01*
X73385Y361268D02*X74885D01*
X76585Y360068D02*X77385Y359268D01*
Y363268D01*
X76585D02*X78085D01*
X79285Y362768D02*X79785Y363268D01*
X79285Y359768D02*Y362768D01*
Y359768D02*X79785Y359268D01*
X80785D01*
X81285Y359768D01*
Y362768D01*
X80785Y363268D02*X81285Y362768D01*
X79785Y363268D02*X80785D01*
X79285Y362268D02*X81285Y360268D01*
X150000Y292339D02*X152000D01*
X151000D02*Y296339D01*
X153700Y292339D02*Y296339D01*
X153200Y292339D02*X155200D01*
X155700Y292839D01*
Y293839D01*
X155200Y294339D02*X155700Y293839D01*
X153700Y294339D02*X155200D01*
X156900Y292339D02*X158900D01*
X156900D02*Y294339D01*
X157400Y293839D01*
X158400D01*
X158900Y294339D01*
Y295839D01*
X158400Y296339D02*X158900Y295839D01*
X157400Y296339D02*X158400D01*
X156900Y295839D02*X157400Y296339D01*
X160100Y292839D02*X160600Y292339D01*
X161600D01*
X162100Y292839D01*
X161600Y296339D02*X162100Y295839D01*
X160600Y296339D02*X161600D01*
X160100Y295839D02*X160600Y296339D01*
Y294139D02*X161600D01*
X162100Y292839D02*Y293639D01*
Y294639D02*Y295839D01*
Y294639D02*X161600Y294139D01*
X162100Y293639D02*X161600Y294139D01*
X219291Y307693D02*X221291D01*
X220291D02*Y311693D01*
X222991Y307693D02*Y311693D01*
X222491Y307693D02*X224491D01*
X224991Y308193D01*
Y309193D01*
X224491Y309693D02*X224991Y309193D01*
X222991Y309693D02*X224491D01*
X226191Y307693D02*X228191D01*
X226191D02*Y309693D01*
X226691Y309193D01*
X227691D01*
X228191Y309693D01*
Y311193D01*
X227691Y311693D02*X228191Y311193D01*
X226691Y311693D02*X227691D01*
X226191Y311193D02*X226691Y311693D01*
X229391Y307693D02*X231391D01*
X229391D02*Y309693D01*
X229891Y309193D01*
X230891D01*
X231391Y309693D01*
Y311193D01*
X230891Y311693D02*X231391Y311193D01*
X229891Y311693D02*X230891D01*
X229391Y311193D02*X229891Y311693D01*
X215748Y290370D02*X217748D01*
X216748D02*Y294370D01*
X219448Y290370D02*Y294370D01*
X218948Y290370D02*X220948D01*
X221448Y290870D01*
Y291870D01*
X220948Y292370D02*X221448Y291870D01*
X219448Y292370D02*X220948D01*
X222648Y290370D02*X224648D01*
X222648D02*Y292370D01*
X223148Y291870D01*
X224148D01*
X224648Y292370D01*
Y293870D01*
X224148Y294370D02*X224648Y293870D01*
X223148Y294370D02*X224148D01*
X222648Y293870D02*X223148Y294370D01*
X227348Y290370D02*X227848Y290870D01*
X226348Y290370D02*X227348D01*
X225848Y290870D02*X226348Y290370D01*
X225848Y290870D02*Y293870D01*
X226348Y294370D01*
X227348Y292170D02*X227848Y292670D01*
X225848Y292170D02*X227348D01*
X226348Y294370D02*X227348D01*
X227848Y293870D01*
Y292670D02*Y293870D01*
X213386Y272654D02*X215386D01*
X214386D02*Y276654D01*
X217086Y272654D02*Y276654D01*
X216586Y272654D02*X218586D01*
X219086Y273154D01*
Y274154D01*
X218586Y274654D02*X219086Y274154D01*
X217086Y274654D02*X218586D01*
X220286Y272654D02*X222286D01*
X220286D02*Y274654D01*
X220786Y274154D01*
X221786D01*
X222286Y274654D01*
Y276154D01*
X221786Y276654D02*X222286Y276154D01*
X220786Y276654D02*X221786D01*
X220286Y276154D02*X220786Y276654D01*
X223486Y273454D02*X224286Y272654D01*
Y276654D01*
X223486D02*X224986D01*
X240157Y273441D02*X242157D01*
X241157D02*Y277441D01*
X243857Y273441D02*Y277441D01*
X243357Y273441D02*X245357D01*
X245857Y273941D01*
Y274941D01*
X245357Y275441D02*X245857Y274941D01*
X243857Y275441D02*X245357D01*
X247057Y273941D02*X247557Y273441D01*
X249057D01*
X249557Y273941D01*
Y274941D01*
X247057Y277441D02*X249557Y274941D01*
X247057Y277441D02*X249557D01*
X250757Y274241D02*X251557Y273441D01*
Y277441D01*
X250757D02*X252257D01*
X124803Y336827D02*X126803D01*
X125803D02*Y340827D01*
X128503Y336827D02*Y340827D01*
X128003Y336827D02*X130003D01*
X130503Y337327D01*
Y338327D01*
X130003Y338827D02*X130503Y338327D01*
X128503Y338827D02*X130003D01*
X131703Y337627D02*X132503Y336827D01*
Y340827D01*
X131703D02*X133203D01*
X134403Y336827D02*X136403D01*
X134403D02*Y338827D01*
X134903Y338327D01*
X135903D01*
X136403Y338827D01*
Y340327D01*
X135903Y340827D02*X136403Y340327D01*
X134903Y340827D02*X135903D01*
X134403Y340327D02*X134903Y340827D01*
X125197Y325803D02*X127197D01*
X126197D02*Y329803D01*
X128897Y325803D02*Y329803D01*
X128397Y325803D02*X130397D01*
X130897Y326303D01*
Y327303D01*
X130397Y327803D02*X130897Y327303D01*
X128897Y327803D02*X130397D01*
X132097Y326603D02*X132897Y325803D01*
Y329803D01*
X132097D02*X133597D01*
X135297D02*X137297Y325803D01*
X134797D02*X137297D01*
X174016Y292339D02*X176016D01*
X175016D02*Y296339D01*
X177716Y292339D02*Y296339D01*
X177216Y292339D02*X179216D01*
X179716Y292839D01*
Y293839D01*
X179216Y294339D02*X179716Y293839D01*
X177716Y294339D02*X179216D01*
X180916Y292339D02*X182916D01*
X180916D02*Y294339D01*
X181416Y293839D01*
X182416D01*
X182916Y294339D01*
Y295839D01*
X182416Y296339D02*X182916Y295839D01*
X181416Y296339D02*X182416D01*
X180916Y295839D02*X181416Y296339D01*
X184116Y294839D02*X186116Y292339D01*
X184116Y294839D02*X186616D01*
X186116Y292339D02*Y296339D01*
X278740Y290764D02*X280740D01*
X279740D02*Y294764D01*
X282440Y290764D02*Y294764D01*
X281940Y290764D02*X283940D01*
X284440Y291264D01*
Y292264D01*
X283940Y292764D02*X284440Y292264D01*
X282440Y292764D02*X283940D01*
X285640Y293264D02*X287640Y290764D01*
X285640Y293264D02*X288140D01*
X287640Y290764D02*Y294764D01*
X289340Y294264D02*X289840Y294764D01*
X289340Y291264D02*Y294264D01*
Y291264D02*X289840Y290764D01*
X290840D01*
X291340Y291264D01*
Y294264D01*
X290840Y294764D02*X291340Y294264D01*
X289840Y294764D02*X290840D01*
X289340Y293764D02*X291340Y291764D01*
X240157Y266748D02*X242157D01*
X241157D02*Y270748D01*
X243857Y266748D02*Y270748D01*
X243357Y266748D02*X245357D01*
X245857Y267248D01*
Y268248D01*
X245357Y268748D02*X245857Y268248D01*
X243857Y268748D02*X245357D01*
X247057Y269248D02*X249057Y266748D01*
X247057Y269248D02*X249557D01*
X249057Y266748D02*Y270748D01*
X252257Y266748D02*X252757Y267248D01*
X251257Y266748D02*X252257D01*
X250757Y267248D02*X251257Y266748D01*
X250757Y267248D02*Y270248D01*
X251257Y270748D01*
X252257Y268548D02*X252757Y269048D01*
X250757Y268548D02*X252257D01*
X251257Y270748D02*X252257D01*
X252757Y270248D01*
Y269048D02*Y270248D01*
X238189Y307693D02*X240189D01*
X239189D02*Y311693D01*
X241889Y307693D02*Y311693D01*
X241389Y307693D02*X243389D01*
X243889Y308193D01*
Y309193D01*
X243389Y309693D02*X243889Y309193D01*
X241889Y309693D02*X243389D01*
X245089Y307693D02*X247089D01*
X245089D02*Y309693D01*
X245589Y309193D01*
X246589D01*
X247089Y309693D01*
Y311193D01*
X246589Y311693D02*X247089Y311193D01*
X245589Y311693D02*X246589D01*
X245089Y311193D02*X245589Y311693D01*
X248289Y308193D02*X248789Y307693D01*
X250289D01*
X250789Y308193D01*
Y309193D01*
X248289Y311693D02*X250789Y309193D01*
X248289Y311693D02*X250789D01*
X240157Y284858D02*X242157D01*
X241157D02*Y288858D01*
X243857Y284858D02*Y288858D01*
X243357Y284858D02*X245357D01*
X245857Y285358D01*
Y286358D01*
X245357Y286858D02*X245857Y286358D01*
X243857Y286858D02*X245357D01*
X247057Y285358D02*X247557Y284858D01*
X249057D01*
X249557Y285358D01*
Y286358D01*
X247057Y288858D02*X249557Y286358D01*
X247057Y288858D02*X249557D01*
X251257D02*X253257Y284858D01*
X250757D02*X253257D01*
X251969Y292339D02*X253969D01*
X252969D02*Y296339D01*
X255669Y292339D02*Y296339D01*
X255169Y292339D02*X257169D01*
X257669Y292839D01*
Y293839D01*
X257169Y294339D02*X257669Y293839D01*
X255669Y294339D02*X257169D01*
X258869Y292839D02*X259369Y292339D01*
X260869D01*
X261369Y292839D01*
Y293839D01*
X258869Y296339D02*X261369Y293839D01*
X258869Y296339D02*X261369D01*
X262569Y295839D02*X263069Y296339D01*
X262569Y295039D02*Y295839D01*
Y295039D02*X263269Y294339D01*
X263869D01*
X264569Y295039D01*
Y295839D01*
X264069Y296339D02*X264569Y295839D01*
X263069Y296339D02*X264069D01*
X262569Y293639D02*X263269Y294339D01*
X262569Y292839D02*Y293639D01*
Y292839D02*X263069Y292339D01*
X264069D01*
X264569Y292839D01*
Y293639D01*
X263869Y294339D02*X264569Y293639D01*
M02*
